G04 #@! TF.GenerationSoftware,KiCad,Pcbnew,(5.0.1-3-g963ef8bb5)*
G04 #@! TF.CreationDate,2019-10-19T22:42:43+03:00*
G04 #@! TF.ProjectId,kangal-bcu,6B616E67616C2D6263752E6B69636164,rev?*
G04 #@! TF.SameCoordinates,Original*
G04 #@! TF.FileFunction,Profile,NP*
%FSLAX46Y46*%
G04 Gerber Fmt 4.6, Leading zero omitted, Abs format (unit mm)*
G04 Created by KiCad (PCBNEW (5.0.1-3-g963ef8bb5)) date 2019 October 19, Saturday 22:42:43*
%MOMM*%
%LPD*%
G01*
G04 APERTURE LIST*
%ADD10C,0.050000*%
G04 APERTURE END LIST*
D10*
X225804906Y-114236462D02*
G75*
G02X223964500Y-116014500I-1840406J63462D01*
G01*
X224028000Y-50673000D02*
G75*
G02X225806038Y-52513406I-63462J-1840406D01*
G01*
X172975094Y-52451038D02*
G75*
G02X174815500Y-50673000I1840406J-63462D01*
G01*
X174752038Y-116013406D02*
G75*
G02X172974000Y-114173000I63462J1840406D01*
G01*
X215836500Y-116014500D02*
X174688500Y-116014500D01*
X172974000Y-52451000D02*
X172974000Y-114236500D01*
X211216240Y-50673000D02*
X174815500Y-50673000D01*
X224028000Y-50673000D02*
X211074000Y-50673000D01*
X225806000Y-114300000D02*
X225806000Y-52451000D01*
X223964500Y-116014500D02*
X223964500Y-116014500D01*
X215900000Y-116014500D02*
X223964500Y-116014500D01*
G04 #@! TO.C,MODULE1*
X190226290Y-94813785D02*
X190226290Y-95385214D01*
X190226290Y-95099500D02*
X189226290Y-95099500D01*
X189369148Y-95194738D01*
X189464386Y-95289976D01*
X189512005Y-95385214D01*
X190227750Y-119312776D02*
X190227750Y-119884204D01*
X190227750Y-119598490D02*
X189227750Y-119598490D01*
X189370608Y-119693728D01*
X189465846Y-119788966D01*
X189513465Y-119884204D01*
X189322989Y-118931823D02*
X189275370Y-118884204D01*
X189227750Y-118788966D01*
X189227750Y-118550871D01*
X189275370Y-118455633D01*
X189322989Y-118408014D01*
X189418227Y-118360395D01*
X189513465Y-118360395D01*
X189656322Y-118408014D01*
X190227750Y-118979442D01*
X190227750Y-118360395D01*
G04 #@! TO.C,U5*
X182057666Y-62439480D02*
X182724333Y-63439480D01*
X182724333Y-62439480D02*
X182057666Y-63439480D01*
X182010000Y-62963290D02*
X182010000Y-63439480D01*
X181676666Y-62439480D02*
X182010000Y-62963290D01*
X182343333Y-62439480D01*
X182057666Y-62058480D02*
X182724333Y-62058480D01*
X182057666Y-63058480D01*
X182724333Y-63058480D01*
G04 #@! TD*
M02*
