M48
;DRILL file {KiCad (5.0.1-3-g963ef8bb5)} date 2019 October 19, Saturday 22:43:24
;FORMAT={3:3/ absolute / metric / suppress leading zeros}
FMAT,2
METRIC,TZ
T1C0.400
T2C0.500
T3C0.650
T4C0.700
T5C3.200
%
G90
G05
M71
T1
X180467Y-66294
X182814Y-76540
X182880Y-70485
X183071Y-78105
X184849Y-95250
X185674Y-60482
X185801Y-66739
X185842Y-58014
X186106Y-76876
X186690Y-94996
X186837Y-73868
X188404Y-76835
X189040Y-66929
X189294Y-62230
X190183Y-94488
X190246Y-81852
X190818Y-76518
X193548Y-114491
X194183Y-84899
X194310Y-81280
X195644Y-82931
X196977Y-96965
X199644Y-106553
X200406Y-96837
X203540Y-87244
X207200Y-84582
X207836Y-64262
X208788Y-83947
X208915Y-86487
X212154Y-103568
X212598Y-64198
X212852Y-87948
X213233Y-59500
X213380Y-96896
X214059Y-70612
X214757Y-83820
X215329Y-77026
X215836Y-68326
X215900Y-86043
X217869Y-90615
X217996Y-82868
X218885Y-86741
X219075Y-95441
X219202Y-102743
X219837Y-112888
X219994Y-95093
X220218Y-103505
X220345Y-63564
X220536Y-88583
X220883Y-95982
X220980Y-94424
X221615Y-102362
X221996Y-77661
X222631Y-93462
X223139Y-88709
X223266Y-94298
X223901Y-90107
T2
X204165Y-111951
X204868Y-110253
X204868Y-113648
X206565Y-109551
X206565Y-114351
X208263Y-110253
X208263Y-113648
X208965Y-111951
X174574Y-54483
X175277Y-52786
X175277Y-56180
X176975Y-52083
X176975Y-56883
X178672Y-52786
X178672Y-56180
X179374Y-54483
X219406Y-54547
X220108Y-52849
X220108Y-56244
X221806Y-52147
X221806Y-56947
X223503Y-52849
X223503Y-56244
X224206Y-54547
T5
X206565Y-111951
X176975Y-54483
X221806Y-54547
T3
X217392Y-111536G85X217392Y-111136
G05
X222232Y-111536G85X222232Y-111136
G05
T4
X217082Y-114586G85X217082Y-114086
G05
X222542Y-114586G85X222542Y-114086
G05
T0
M30
