G04 #@! TF.GenerationSoftware,KiCad,Pcbnew,(5.0.1-3-g963ef8bb5)*
G04 #@! TF.CreationDate,2019-10-19T22:42:43+03:00*
G04 #@! TF.ProjectId,kangal-bcu,6B616E67616C2D6263752E6B69636164,rev?*
G04 #@! TF.SameCoordinates,Original*
G04 #@! TF.FileFunction,Paste,Top*
G04 #@! TF.FilePolarity,Positive*
%FSLAX46Y46*%
G04 Gerber Fmt 4.6, Leading zero omitted, Abs format (unit mm)*
G04 Created by KiCad (PCBNEW (5.0.1-3-g963ef8bb5)) date 2019 October 19, Saturday 22:42:43*
%MOMM*%
%LPD*%
G01*
G04 APERTURE LIST*
%ADD10C,0.100000*%
%ADD11C,0.975000*%
%ADD12R,1.350000X2.000000*%
%ADD13R,1.825000X0.700000*%
%ADD14R,2.000000X1.500000*%
%ADD15R,0.400000X1.650000*%
%ADD16R,1.430000X2.500000*%
%ADD17R,1.000000X2.500000*%
%ADD18R,0.800000X0.900000*%
%ADD19R,1.300000X1.550000*%
%ADD20R,0.350000X0.500000*%
%ADD21R,5.000000X5.000000*%
%ADD22R,2.000000X0.900000*%
%ADD23R,0.900000X2.000000*%
%ADD24R,3.800000X2.000000*%
%ADD25R,1.500000X2.000000*%
%ADD26C,1.050000*%
%ADD27C,0.250000*%
%ADD28R,0.500000X1.123800*%
%ADD29R,1.123800X0.500000*%
G04 APERTURE END LIST*
D10*
G04 #@! TO.C,C1*
G36*
X222246143Y-78822675D02*
X222269804Y-78826185D01*
X222293008Y-78831997D01*
X222315530Y-78840055D01*
X222337154Y-78850283D01*
X222357671Y-78862580D01*
X222376884Y-78876830D01*
X222394608Y-78892894D01*
X222410672Y-78910618D01*
X222424922Y-78929831D01*
X222437219Y-78950348D01*
X222447447Y-78971972D01*
X222455505Y-78994494D01*
X222461317Y-79017698D01*
X222464827Y-79041359D01*
X222466001Y-79065251D01*
X222466001Y-79977751D01*
X222464827Y-80001643D01*
X222461317Y-80025304D01*
X222455505Y-80048508D01*
X222447447Y-80071030D01*
X222437219Y-80092654D01*
X222424922Y-80113171D01*
X222410672Y-80132384D01*
X222394608Y-80150108D01*
X222376884Y-80166172D01*
X222357671Y-80180422D01*
X222337154Y-80192719D01*
X222315530Y-80202947D01*
X222293008Y-80211005D01*
X222269804Y-80216817D01*
X222246143Y-80220327D01*
X222222251Y-80221501D01*
X221734751Y-80221501D01*
X221710859Y-80220327D01*
X221687198Y-80216817D01*
X221663994Y-80211005D01*
X221641472Y-80202947D01*
X221619848Y-80192719D01*
X221599331Y-80180422D01*
X221580118Y-80166172D01*
X221562394Y-80150108D01*
X221546330Y-80132384D01*
X221532080Y-80113171D01*
X221519783Y-80092654D01*
X221509555Y-80071030D01*
X221501497Y-80048508D01*
X221495685Y-80025304D01*
X221492175Y-80001643D01*
X221491001Y-79977751D01*
X221491001Y-79065251D01*
X221492175Y-79041359D01*
X221495685Y-79017698D01*
X221501497Y-78994494D01*
X221509555Y-78971972D01*
X221519783Y-78950348D01*
X221532080Y-78929831D01*
X221546330Y-78910618D01*
X221562394Y-78892894D01*
X221580118Y-78876830D01*
X221599331Y-78862580D01*
X221619848Y-78850283D01*
X221641472Y-78840055D01*
X221663994Y-78831997D01*
X221687198Y-78826185D01*
X221710859Y-78822675D01*
X221734751Y-78821501D01*
X222222251Y-78821501D01*
X222246143Y-78822675D01*
X222246143Y-78822675D01*
G37*
D11*
X221978501Y-79521501D03*
D10*
G36*
X224121143Y-78822675D02*
X224144804Y-78826185D01*
X224168008Y-78831997D01*
X224190530Y-78840055D01*
X224212154Y-78850283D01*
X224232671Y-78862580D01*
X224251884Y-78876830D01*
X224269608Y-78892894D01*
X224285672Y-78910618D01*
X224299922Y-78929831D01*
X224312219Y-78950348D01*
X224322447Y-78971972D01*
X224330505Y-78994494D01*
X224336317Y-79017698D01*
X224339827Y-79041359D01*
X224341001Y-79065251D01*
X224341001Y-79977751D01*
X224339827Y-80001643D01*
X224336317Y-80025304D01*
X224330505Y-80048508D01*
X224322447Y-80071030D01*
X224312219Y-80092654D01*
X224299922Y-80113171D01*
X224285672Y-80132384D01*
X224269608Y-80150108D01*
X224251884Y-80166172D01*
X224232671Y-80180422D01*
X224212154Y-80192719D01*
X224190530Y-80202947D01*
X224168008Y-80211005D01*
X224144804Y-80216817D01*
X224121143Y-80220327D01*
X224097251Y-80221501D01*
X223609751Y-80221501D01*
X223585859Y-80220327D01*
X223562198Y-80216817D01*
X223538994Y-80211005D01*
X223516472Y-80202947D01*
X223494848Y-80192719D01*
X223474331Y-80180422D01*
X223455118Y-80166172D01*
X223437394Y-80150108D01*
X223421330Y-80132384D01*
X223407080Y-80113171D01*
X223394783Y-80092654D01*
X223384555Y-80071030D01*
X223376497Y-80048508D01*
X223370685Y-80025304D01*
X223367175Y-80001643D01*
X223366001Y-79977751D01*
X223366001Y-79065251D01*
X223367175Y-79041359D01*
X223370685Y-79017698D01*
X223376497Y-78994494D01*
X223384555Y-78971972D01*
X223394783Y-78950348D01*
X223407080Y-78929831D01*
X223421330Y-78910618D01*
X223437394Y-78892894D01*
X223455118Y-78876830D01*
X223474331Y-78862580D01*
X223494848Y-78850283D01*
X223516472Y-78840055D01*
X223538994Y-78831997D01*
X223562198Y-78826185D01*
X223585859Y-78822675D01*
X223609751Y-78821501D01*
X224097251Y-78821501D01*
X224121143Y-78822675D01*
X224121143Y-78822675D01*
G37*
D11*
X223853501Y-79521501D03*
G04 #@! TD*
D10*
G04 #@! TO.C,C2*
G36*
X188149142Y-79247674D02*
X188172803Y-79251184D01*
X188196007Y-79256996D01*
X188218529Y-79265054D01*
X188240153Y-79275282D01*
X188260670Y-79287579D01*
X188279883Y-79301829D01*
X188297607Y-79317893D01*
X188313671Y-79335617D01*
X188327921Y-79354830D01*
X188340218Y-79375347D01*
X188350446Y-79396971D01*
X188358504Y-79419493D01*
X188364316Y-79442697D01*
X188367826Y-79466358D01*
X188369000Y-79490250D01*
X188369000Y-80402750D01*
X188367826Y-80426642D01*
X188364316Y-80450303D01*
X188358504Y-80473507D01*
X188350446Y-80496029D01*
X188340218Y-80517653D01*
X188327921Y-80538170D01*
X188313671Y-80557383D01*
X188297607Y-80575107D01*
X188279883Y-80591171D01*
X188260670Y-80605421D01*
X188240153Y-80617718D01*
X188218529Y-80627946D01*
X188196007Y-80636004D01*
X188172803Y-80641816D01*
X188149142Y-80645326D01*
X188125250Y-80646500D01*
X187637750Y-80646500D01*
X187613858Y-80645326D01*
X187590197Y-80641816D01*
X187566993Y-80636004D01*
X187544471Y-80627946D01*
X187522847Y-80617718D01*
X187502330Y-80605421D01*
X187483117Y-80591171D01*
X187465393Y-80575107D01*
X187449329Y-80557383D01*
X187435079Y-80538170D01*
X187422782Y-80517653D01*
X187412554Y-80496029D01*
X187404496Y-80473507D01*
X187398684Y-80450303D01*
X187395174Y-80426642D01*
X187394000Y-80402750D01*
X187394000Y-79490250D01*
X187395174Y-79466358D01*
X187398684Y-79442697D01*
X187404496Y-79419493D01*
X187412554Y-79396971D01*
X187422782Y-79375347D01*
X187435079Y-79354830D01*
X187449329Y-79335617D01*
X187465393Y-79317893D01*
X187483117Y-79301829D01*
X187502330Y-79287579D01*
X187522847Y-79275282D01*
X187544471Y-79265054D01*
X187566993Y-79256996D01*
X187590197Y-79251184D01*
X187613858Y-79247674D01*
X187637750Y-79246500D01*
X188125250Y-79246500D01*
X188149142Y-79247674D01*
X188149142Y-79247674D01*
G37*
D11*
X187881500Y-79946500D03*
D10*
G36*
X186274142Y-79247674D02*
X186297803Y-79251184D01*
X186321007Y-79256996D01*
X186343529Y-79265054D01*
X186365153Y-79275282D01*
X186385670Y-79287579D01*
X186404883Y-79301829D01*
X186422607Y-79317893D01*
X186438671Y-79335617D01*
X186452921Y-79354830D01*
X186465218Y-79375347D01*
X186475446Y-79396971D01*
X186483504Y-79419493D01*
X186489316Y-79442697D01*
X186492826Y-79466358D01*
X186494000Y-79490250D01*
X186494000Y-80402750D01*
X186492826Y-80426642D01*
X186489316Y-80450303D01*
X186483504Y-80473507D01*
X186475446Y-80496029D01*
X186465218Y-80517653D01*
X186452921Y-80538170D01*
X186438671Y-80557383D01*
X186422607Y-80575107D01*
X186404883Y-80591171D01*
X186385670Y-80605421D01*
X186365153Y-80617718D01*
X186343529Y-80627946D01*
X186321007Y-80636004D01*
X186297803Y-80641816D01*
X186274142Y-80645326D01*
X186250250Y-80646500D01*
X185762750Y-80646500D01*
X185738858Y-80645326D01*
X185715197Y-80641816D01*
X185691993Y-80636004D01*
X185669471Y-80627946D01*
X185647847Y-80617718D01*
X185627330Y-80605421D01*
X185608117Y-80591171D01*
X185590393Y-80575107D01*
X185574329Y-80557383D01*
X185560079Y-80538170D01*
X185547782Y-80517653D01*
X185537554Y-80496029D01*
X185529496Y-80473507D01*
X185523684Y-80450303D01*
X185520174Y-80426642D01*
X185519000Y-80402750D01*
X185519000Y-79490250D01*
X185520174Y-79466358D01*
X185523684Y-79442697D01*
X185529496Y-79419493D01*
X185537554Y-79396971D01*
X185547782Y-79375347D01*
X185560079Y-79354830D01*
X185574329Y-79335617D01*
X185590393Y-79317893D01*
X185608117Y-79301829D01*
X185627330Y-79287579D01*
X185647847Y-79275282D01*
X185669471Y-79265054D01*
X185691993Y-79256996D01*
X185715197Y-79251184D01*
X185738858Y-79247674D01*
X185762750Y-79246500D01*
X186250250Y-79246500D01*
X186274142Y-79247674D01*
X186274142Y-79247674D01*
G37*
D11*
X186006500Y-79946500D03*
G04 #@! TD*
D10*
G04 #@! TO.C,C3*
G36*
X201343143Y-87717675D02*
X201366804Y-87721185D01*
X201390008Y-87726997D01*
X201412530Y-87735055D01*
X201434154Y-87745283D01*
X201454671Y-87757580D01*
X201473884Y-87771830D01*
X201491608Y-87787894D01*
X201507672Y-87805618D01*
X201521922Y-87824831D01*
X201534219Y-87845348D01*
X201544447Y-87866972D01*
X201552505Y-87889494D01*
X201558317Y-87912698D01*
X201561827Y-87936359D01*
X201563001Y-87960251D01*
X201563001Y-88872751D01*
X201561827Y-88896643D01*
X201558317Y-88920304D01*
X201552505Y-88943508D01*
X201544447Y-88966030D01*
X201534219Y-88987654D01*
X201521922Y-89008171D01*
X201507672Y-89027384D01*
X201491608Y-89045108D01*
X201473884Y-89061172D01*
X201454671Y-89075422D01*
X201434154Y-89087719D01*
X201412530Y-89097947D01*
X201390008Y-89106005D01*
X201366804Y-89111817D01*
X201343143Y-89115327D01*
X201319251Y-89116501D01*
X200831751Y-89116501D01*
X200807859Y-89115327D01*
X200784198Y-89111817D01*
X200760994Y-89106005D01*
X200738472Y-89097947D01*
X200716848Y-89087719D01*
X200696331Y-89075422D01*
X200677118Y-89061172D01*
X200659394Y-89045108D01*
X200643330Y-89027384D01*
X200629080Y-89008171D01*
X200616783Y-88987654D01*
X200606555Y-88966030D01*
X200598497Y-88943508D01*
X200592685Y-88920304D01*
X200589175Y-88896643D01*
X200588001Y-88872751D01*
X200588001Y-87960251D01*
X200589175Y-87936359D01*
X200592685Y-87912698D01*
X200598497Y-87889494D01*
X200606555Y-87866972D01*
X200616783Y-87845348D01*
X200629080Y-87824831D01*
X200643330Y-87805618D01*
X200659394Y-87787894D01*
X200677118Y-87771830D01*
X200696331Y-87757580D01*
X200716848Y-87745283D01*
X200738472Y-87735055D01*
X200760994Y-87726997D01*
X200784198Y-87721185D01*
X200807859Y-87717675D01*
X200831751Y-87716501D01*
X201319251Y-87716501D01*
X201343143Y-87717675D01*
X201343143Y-87717675D01*
G37*
D11*
X201075501Y-88416501D03*
D10*
G36*
X199468143Y-87717675D02*
X199491804Y-87721185D01*
X199515008Y-87726997D01*
X199537530Y-87735055D01*
X199559154Y-87745283D01*
X199579671Y-87757580D01*
X199598884Y-87771830D01*
X199616608Y-87787894D01*
X199632672Y-87805618D01*
X199646922Y-87824831D01*
X199659219Y-87845348D01*
X199669447Y-87866972D01*
X199677505Y-87889494D01*
X199683317Y-87912698D01*
X199686827Y-87936359D01*
X199688001Y-87960251D01*
X199688001Y-88872751D01*
X199686827Y-88896643D01*
X199683317Y-88920304D01*
X199677505Y-88943508D01*
X199669447Y-88966030D01*
X199659219Y-88987654D01*
X199646922Y-89008171D01*
X199632672Y-89027384D01*
X199616608Y-89045108D01*
X199598884Y-89061172D01*
X199579671Y-89075422D01*
X199559154Y-89087719D01*
X199537530Y-89097947D01*
X199515008Y-89106005D01*
X199491804Y-89111817D01*
X199468143Y-89115327D01*
X199444251Y-89116501D01*
X198956751Y-89116501D01*
X198932859Y-89115327D01*
X198909198Y-89111817D01*
X198885994Y-89106005D01*
X198863472Y-89097947D01*
X198841848Y-89087719D01*
X198821331Y-89075422D01*
X198802118Y-89061172D01*
X198784394Y-89045108D01*
X198768330Y-89027384D01*
X198754080Y-89008171D01*
X198741783Y-88987654D01*
X198731555Y-88966030D01*
X198723497Y-88943508D01*
X198717685Y-88920304D01*
X198714175Y-88896643D01*
X198713001Y-88872751D01*
X198713001Y-87960251D01*
X198714175Y-87936359D01*
X198717685Y-87912698D01*
X198723497Y-87889494D01*
X198731555Y-87866972D01*
X198741783Y-87845348D01*
X198754080Y-87824831D01*
X198768330Y-87805618D01*
X198784394Y-87787894D01*
X198802118Y-87771830D01*
X198821331Y-87757580D01*
X198841848Y-87745283D01*
X198863472Y-87735055D01*
X198885994Y-87726997D01*
X198909198Y-87721185D01*
X198932859Y-87717675D01*
X198956751Y-87716501D01*
X199444251Y-87716501D01*
X199468143Y-87717675D01*
X199468143Y-87717675D01*
G37*
D11*
X199200501Y-88416501D03*
G04 #@! TD*
D10*
G04 #@! TO.C,C4*
G36*
X203393643Y-81752675D02*
X203417304Y-81756185D01*
X203440508Y-81761997D01*
X203463030Y-81770055D01*
X203484654Y-81780283D01*
X203505171Y-81792580D01*
X203524384Y-81806830D01*
X203542108Y-81822894D01*
X203558172Y-81840618D01*
X203572422Y-81859831D01*
X203584719Y-81880348D01*
X203594947Y-81901972D01*
X203603005Y-81924494D01*
X203608817Y-81947698D01*
X203612327Y-81971359D01*
X203613501Y-81995251D01*
X203613501Y-82907751D01*
X203612327Y-82931643D01*
X203608817Y-82955304D01*
X203603005Y-82978508D01*
X203594947Y-83001030D01*
X203584719Y-83022654D01*
X203572422Y-83043171D01*
X203558172Y-83062384D01*
X203542108Y-83080108D01*
X203524384Y-83096172D01*
X203505171Y-83110422D01*
X203484654Y-83122719D01*
X203463030Y-83132947D01*
X203440508Y-83141005D01*
X203417304Y-83146817D01*
X203393643Y-83150327D01*
X203369751Y-83151501D01*
X202882251Y-83151501D01*
X202858359Y-83150327D01*
X202834698Y-83146817D01*
X202811494Y-83141005D01*
X202788972Y-83132947D01*
X202767348Y-83122719D01*
X202746831Y-83110422D01*
X202727618Y-83096172D01*
X202709894Y-83080108D01*
X202693830Y-83062384D01*
X202679580Y-83043171D01*
X202667283Y-83022654D01*
X202657055Y-83001030D01*
X202648997Y-82978508D01*
X202643185Y-82955304D01*
X202639675Y-82931643D01*
X202638501Y-82907751D01*
X202638501Y-81995251D01*
X202639675Y-81971359D01*
X202643185Y-81947698D01*
X202648997Y-81924494D01*
X202657055Y-81901972D01*
X202667283Y-81880348D01*
X202679580Y-81859831D01*
X202693830Y-81840618D01*
X202709894Y-81822894D01*
X202727618Y-81806830D01*
X202746831Y-81792580D01*
X202767348Y-81780283D01*
X202788972Y-81770055D01*
X202811494Y-81761997D01*
X202834698Y-81756185D01*
X202858359Y-81752675D01*
X202882251Y-81751501D01*
X203369751Y-81751501D01*
X203393643Y-81752675D01*
X203393643Y-81752675D01*
G37*
D11*
X203126001Y-82451501D03*
D10*
G36*
X205268643Y-81752675D02*
X205292304Y-81756185D01*
X205315508Y-81761997D01*
X205338030Y-81770055D01*
X205359654Y-81780283D01*
X205380171Y-81792580D01*
X205399384Y-81806830D01*
X205417108Y-81822894D01*
X205433172Y-81840618D01*
X205447422Y-81859831D01*
X205459719Y-81880348D01*
X205469947Y-81901972D01*
X205478005Y-81924494D01*
X205483817Y-81947698D01*
X205487327Y-81971359D01*
X205488501Y-81995251D01*
X205488501Y-82907751D01*
X205487327Y-82931643D01*
X205483817Y-82955304D01*
X205478005Y-82978508D01*
X205469947Y-83001030D01*
X205459719Y-83022654D01*
X205447422Y-83043171D01*
X205433172Y-83062384D01*
X205417108Y-83080108D01*
X205399384Y-83096172D01*
X205380171Y-83110422D01*
X205359654Y-83122719D01*
X205338030Y-83132947D01*
X205315508Y-83141005D01*
X205292304Y-83146817D01*
X205268643Y-83150327D01*
X205244751Y-83151501D01*
X204757251Y-83151501D01*
X204733359Y-83150327D01*
X204709698Y-83146817D01*
X204686494Y-83141005D01*
X204663972Y-83132947D01*
X204642348Y-83122719D01*
X204621831Y-83110422D01*
X204602618Y-83096172D01*
X204584894Y-83080108D01*
X204568830Y-83062384D01*
X204554580Y-83043171D01*
X204542283Y-83022654D01*
X204532055Y-83001030D01*
X204523997Y-82978508D01*
X204518185Y-82955304D01*
X204514675Y-82931643D01*
X204513501Y-82907751D01*
X204513501Y-81995251D01*
X204514675Y-81971359D01*
X204518185Y-81947698D01*
X204523997Y-81924494D01*
X204532055Y-81901972D01*
X204542283Y-81880348D01*
X204554580Y-81859831D01*
X204568830Y-81840618D01*
X204584894Y-81822894D01*
X204602618Y-81806830D01*
X204621831Y-81792580D01*
X204642348Y-81780283D01*
X204663972Y-81770055D01*
X204686494Y-81761997D01*
X204709698Y-81756185D01*
X204733359Y-81752675D01*
X204757251Y-81751501D01*
X205244751Y-81751501D01*
X205268643Y-81752675D01*
X205268643Y-81752675D01*
G37*
D11*
X205001001Y-82451501D03*
G04 #@! TD*
D10*
G04 #@! TO.C,C5*
G36*
X186147142Y-82676674D02*
X186170803Y-82680184D01*
X186194007Y-82685996D01*
X186216529Y-82694054D01*
X186238153Y-82704282D01*
X186258670Y-82716579D01*
X186277883Y-82730829D01*
X186295607Y-82746893D01*
X186311671Y-82764617D01*
X186325921Y-82783830D01*
X186338218Y-82804347D01*
X186348446Y-82825971D01*
X186356504Y-82848493D01*
X186362316Y-82871697D01*
X186365826Y-82895358D01*
X186367000Y-82919250D01*
X186367000Y-83831750D01*
X186365826Y-83855642D01*
X186362316Y-83879303D01*
X186356504Y-83902507D01*
X186348446Y-83925029D01*
X186338218Y-83946653D01*
X186325921Y-83967170D01*
X186311671Y-83986383D01*
X186295607Y-84004107D01*
X186277883Y-84020171D01*
X186258670Y-84034421D01*
X186238153Y-84046718D01*
X186216529Y-84056946D01*
X186194007Y-84065004D01*
X186170803Y-84070816D01*
X186147142Y-84074326D01*
X186123250Y-84075500D01*
X185635750Y-84075500D01*
X185611858Y-84074326D01*
X185588197Y-84070816D01*
X185564993Y-84065004D01*
X185542471Y-84056946D01*
X185520847Y-84046718D01*
X185500330Y-84034421D01*
X185481117Y-84020171D01*
X185463393Y-84004107D01*
X185447329Y-83986383D01*
X185433079Y-83967170D01*
X185420782Y-83946653D01*
X185410554Y-83925029D01*
X185402496Y-83902507D01*
X185396684Y-83879303D01*
X185393174Y-83855642D01*
X185392000Y-83831750D01*
X185392000Y-82919250D01*
X185393174Y-82895358D01*
X185396684Y-82871697D01*
X185402496Y-82848493D01*
X185410554Y-82825971D01*
X185420782Y-82804347D01*
X185433079Y-82783830D01*
X185447329Y-82764617D01*
X185463393Y-82746893D01*
X185481117Y-82730829D01*
X185500330Y-82716579D01*
X185520847Y-82704282D01*
X185542471Y-82694054D01*
X185564993Y-82685996D01*
X185588197Y-82680184D01*
X185611858Y-82676674D01*
X185635750Y-82675500D01*
X186123250Y-82675500D01*
X186147142Y-82676674D01*
X186147142Y-82676674D01*
G37*
D11*
X185879500Y-83375500D03*
D10*
G36*
X188022142Y-82676674D02*
X188045803Y-82680184D01*
X188069007Y-82685996D01*
X188091529Y-82694054D01*
X188113153Y-82704282D01*
X188133670Y-82716579D01*
X188152883Y-82730829D01*
X188170607Y-82746893D01*
X188186671Y-82764617D01*
X188200921Y-82783830D01*
X188213218Y-82804347D01*
X188223446Y-82825971D01*
X188231504Y-82848493D01*
X188237316Y-82871697D01*
X188240826Y-82895358D01*
X188242000Y-82919250D01*
X188242000Y-83831750D01*
X188240826Y-83855642D01*
X188237316Y-83879303D01*
X188231504Y-83902507D01*
X188223446Y-83925029D01*
X188213218Y-83946653D01*
X188200921Y-83967170D01*
X188186671Y-83986383D01*
X188170607Y-84004107D01*
X188152883Y-84020171D01*
X188133670Y-84034421D01*
X188113153Y-84046718D01*
X188091529Y-84056946D01*
X188069007Y-84065004D01*
X188045803Y-84070816D01*
X188022142Y-84074326D01*
X187998250Y-84075500D01*
X187510750Y-84075500D01*
X187486858Y-84074326D01*
X187463197Y-84070816D01*
X187439993Y-84065004D01*
X187417471Y-84056946D01*
X187395847Y-84046718D01*
X187375330Y-84034421D01*
X187356117Y-84020171D01*
X187338393Y-84004107D01*
X187322329Y-83986383D01*
X187308079Y-83967170D01*
X187295782Y-83946653D01*
X187285554Y-83925029D01*
X187277496Y-83902507D01*
X187271684Y-83879303D01*
X187268174Y-83855642D01*
X187267000Y-83831750D01*
X187267000Y-82919250D01*
X187268174Y-82895358D01*
X187271684Y-82871697D01*
X187277496Y-82848493D01*
X187285554Y-82825971D01*
X187295782Y-82804347D01*
X187308079Y-82783830D01*
X187322329Y-82764617D01*
X187338393Y-82746893D01*
X187356117Y-82730829D01*
X187375330Y-82716579D01*
X187395847Y-82704282D01*
X187417471Y-82694054D01*
X187439993Y-82685996D01*
X187463197Y-82680184D01*
X187486858Y-82676674D01*
X187510750Y-82675500D01*
X187998250Y-82675500D01*
X188022142Y-82676674D01*
X188022142Y-82676674D01*
G37*
D11*
X187754500Y-83375500D03*
G04 #@! TD*
D10*
G04 #@! TO.C,C6*
G36*
X201858643Y-81752675D02*
X201882304Y-81756185D01*
X201905508Y-81761997D01*
X201928030Y-81770055D01*
X201949654Y-81780283D01*
X201970171Y-81792580D01*
X201989384Y-81806830D01*
X202007108Y-81822894D01*
X202023172Y-81840618D01*
X202037422Y-81859831D01*
X202049719Y-81880348D01*
X202059947Y-81901972D01*
X202068005Y-81924494D01*
X202073817Y-81947698D01*
X202077327Y-81971359D01*
X202078501Y-81995251D01*
X202078501Y-82907751D01*
X202077327Y-82931643D01*
X202073817Y-82955304D01*
X202068005Y-82978508D01*
X202059947Y-83001030D01*
X202049719Y-83022654D01*
X202037422Y-83043171D01*
X202023172Y-83062384D01*
X202007108Y-83080108D01*
X201989384Y-83096172D01*
X201970171Y-83110422D01*
X201949654Y-83122719D01*
X201928030Y-83132947D01*
X201905508Y-83141005D01*
X201882304Y-83146817D01*
X201858643Y-83150327D01*
X201834751Y-83151501D01*
X201347251Y-83151501D01*
X201323359Y-83150327D01*
X201299698Y-83146817D01*
X201276494Y-83141005D01*
X201253972Y-83132947D01*
X201232348Y-83122719D01*
X201211831Y-83110422D01*
X201192618Y-83096172D01*
X201174894Y-83080108D01*
X201158830Y-83062384D01*
X201144580Y-83043171D01*
X201132283Y-83022654D01*
X201122055Y-83001030D01*
X201113997Y-82978508D01*
X201108185Y-82955304D01*
X201104675Y-82931643D01*
X201103501Y-82907751D01*
X201103501Y-81995251D01*
X201104675Y-81971359D01*
X201108185Y-81947698D01*
X201113997Y-81924494D01*
X201122055Y-81901972D01*
X201132283Y-81880348D01*
X201144580Y-81859831D01*
X201158830Y-81840618D01*
X201174894Y-81822894D01*
X201192618Y-81806830D01*
X201211831Y-81792580D01*
X201232348Y-81780283D01*
X201253972Y-81770055D01*
X201276494Y-81761997D01*
X201299698Y-81756185D01*
X201323359Y-81752675D01*
X201347251Y-81751501D01*
X201834751Y-81751501D01*
X201858643Y-81752675D01*
X201858643Y-81752675D01*
G37*
D11*
X201591001Y-82451501D03*
D10*
G36*
X199983643Y-81752675D02*
X200007304Y-81756185D01*
X200030508Y-81761997D01*
X200053030Y-81770055D01*
X200074654Y-81780283D01*
X200095171Y-81792580D01*
X200114384Y-81806830D01*
X200132108Y-81822894D01*
X200148172Y-81840618D01*
X200162422Y-81859831D01*
X200174719Y-81880348D01*
X200184947Y-81901972D01*
X200193005Y-81924494D01*
X200198817Y-81947698D01*
X200202327Y-81971359D01*
X200203501Y-81995251D01*
X200203501Y-82907751D01*
X200202327Y-82931643D01*
X200198817Y-82955304D01*
X200193005Y-82978508D01*
X200184947Y-83001030D01*
X200174719Y-83022654D01*
X200162422Y-83043171D01*
X200148172Y-83062384D01*
X200132108Y-83080108D01*
X200114384Y-83096172D01*
X200095171Y-83110422D01*
X200074654Y-83122719D01*
X200053030Y-83132947D01*
X200030508Y-83141005D01*
X200007304Y-83146817D01*
X199983643Y-83150327D01*
X199959751Y-83151501D01*
X199472251Y-83151501D01*
X199448359Y-83150327D01*
X199424698Y-83146817D01*
X199401494Y-83141005D01*
X199378972Y-83132947D01*
X199357348Y-83122719D01*
X199336831Y-83110422D01*
X199317618Y-83096172D01*
X199299894Y-83080108D01*
X199283830Y-83062384D01*
X199269580Y-83043171D01*
X199257283Y-83022654D01*
X199247055Y-83001030D01*
X199238997Y-82978508D01*
X199233185Y-82955304D01*
X199229675Y-82931643D01*
X199228501Y-82907751D01*
X199228501Y-81995251D01*
X199229675Y-81971359D01*
X199233185Y-81947698D01*
X199238997Y-81924494D01*
X199247055Y-81901972D01*
X199257283Y-81880348D01*
X199269580Y-81859831D01*
X199283830Y-81840618D01*
X199299894Y-81822894D01*
X199317618Y-81806830D01*
X199336831Y-81792580D01*
X199357348Y-81780283D01*
X199378972Y-81770055D01*
X199401494Y-81761997D01*
X199424698Y-81756185D01*
X199448359Y-81752675D01*
X199472251Y-81751501D01*
X199959751Y-81751501D01*
X199983643Y-81752675D01*
X199983643Y-81752675D01*
G37*
D11*
X199716001Y-82451501D03*
G04 #@! TD*
D10*
G04 #@! TO.C,C7*
G36*
X181829142Y-56451174D02*
X181852803Y-56454684D01*
X181876007Y-56460496D01*
X181898529Y-56468554D01*
X181920153Y-56478782D01*
X181940670Y-56491079D01*
X181959883Y-56505329D01*
X181977607Y-56521393D01*
X181993671Y-56539117D01*
X182007921Y-56558330D01*
X182020218Y-56578847D01*
X182030446Y-56600471D01*
X182038504Y-56622993D01*
X182044316Y-56646197D01*
X182047826Y-56669858D01*
X182049000Y-56693750D01*
X182049000Y-57606250D01*
X182047826Y-57630142D01*
X182044316Y-57653803D01*
X182038504Y-57677007D01*
X182030446Y-57699529D01*
X182020218Y-57721153D01*
X182007921Y-57741670D01*
X181993671Y-57760883D01*
X181977607Y-57778607D01*
X181959883Y-57794671D01*
X181940670Y-57808921D01*
X181920153Y-57821218D01*
X181898529Y-57831446D01*
X181876007Y-57839504D01*
X181852803Y-57845316D01*
X181829142Y-57848826D01*
X181805250Y-57850000D01*
X181317750Y-57850000D01*
X181293858Y-57848826D01*
X181270197Y-57845316D01*
X181246993Y-57839504D01*
X181224471Y-57831446D01*
X181202847Y-57821218D01*
X181182330Y-57808921D01*
X181163117Y-57794671D01*
X181145393Y-57778607D01*
X181129329Y-57760883D01*
X181115079Y-57741670D01*
X181102782Y-57721153D01*
X181092554Y-57699529D01*
X181084496Y-57677007D01*
X181078684Y-57653803D01*
X181075174Y-57630142D01*
X181074000Y-57606250D01*
X181074000Y-56693750D01*
X181075174Y-56669858D01*
X181078684Y-56646197D01*
X181084496Y-56622993D01*
X181092554Y-56600471D01*
X181102782Y-56578847D01*
X181115079Y-56558330D01*
X181129329Y-56539117D01*
X181145393Y-56521393D01*
X181163117Y-56505329D01*
X181182330Y-56491079D01*
X181202847Y-56478782D01*
X181224471Y-56468554D01*
X181246993Y-56460496D01*
X181270197Y-56454684D01*
X181293858Y-56451174D01*
X181317750Y-56450000D01*
X181805250Y-56450000D01*
X181829142Y-56451174D01*
X181829142Y-56451174D01*
G37*
D11*
X181561500Y-57150000D03*
D10*
G36*
X183704142Y-56451174D02*
X183727803Y-56454684D01*
X183751007Y-56460496D01*
X183773529Y-56468554D01*
X183795153Y-56478782D01*
X183815670Y-56491079D01*
X183834883Y-56505329D01*
X183852607Y-56521393D01*
X183868671Y-56539117D01*
X183882921Y-56558330D01*
X183895218Y-56578847D01*
X183905446Y-56600471D01*
X183913504Y-56622993D01*
X183919316Y-56646197D01*
X183922826Y-56669858D01*
X183924000Y-56693750D01*
X183924000Y-57606250D01*
X183922826Y-57630142D01*
X183919316Y-57653803D01*
X183913504Y-57677007D01*
X183905446Y-57699529D01*
X183895218Y-57721153D01*
X183882921Y-57741670D01*
X183868671Y-57760883D01*
X183852607Y-57778607D01*
X183834883Y-57794671D01*
X183815670Y-57808921D01*
X183795153Y-57821218D01*
X183773529Y-57831446D01*
X183751007Y-57839504D01*
X183727803Y-57845316D01*
X183704142Y-57848826D01*
X183680250Y-57850000D01*
X183192750Y-57850000D01*
X183168858Y-57848826D01*
X183145197Y-57845316D01*
X183121993Y-57839504D01*
X183099471Y-57831446D01*
X183077847Y-57821218D01*
X183057330Y-57808921D01*
X183038117Y-57794671D01*
X183020393Y-57778607D01*
X183004329Y-57760883D01*
X182990079Y-57741670D01*
X182977782Y-57721153D01*
X182967554Y-57699529D01*
X182959496Y-57677007D01*
X182953684Y-57653803D01*
X182950174Y-57630142D01*
X182949000Y-57606250D01*
X182949000Y-56693750D01*
X182950174Y-56669858D01*
X182953684Y-56646197D01*
X182959496Y-56622993D01*
X182967554Y-56600471D01*
X182977782Y-56578847D01*
X182990079Y-56558330D01*
X183004329Y-56539117D01*
X183020393Y-56521393D01*
X183038117Y-56505329D01*
X183057330Y-56491079D01*
X183077847Y-56478782D01*
X183099471Y-56468554D01*
X183121993Y-56460496D01*
X183145197Y-56454684D01*
X183168858Y-56451174D01*
X183192750Y-56450000D01*
X183680250Y-56450000D01*
X183704142Y-56451174D01*
X183704142Y-56451174D01*
G37*
D11*
X183436500Y-57150000D03*
G04 #@! TD*
D10*
G04 #@! TO.C,C8*
G36*
X198405143Y-103073175D02*
X198428804Y-103076685D01*
X198452008Y-103082497D01*
X198474530Y-103090555D01*
X198496154Y-103100783D01*
X198516671Y-103113080D01*
X198535884Y-103127330D01*
X198553608Y-103143394D01*
X198569672Y-103161118D01*
X198583922Y-103180331D01*
X198596219Y-103200848D01*
X198606447Y-103222472D01*
X198614505Y-103244994D01*
X198620317Y-103268198D01*
X198623827Y-103291859D01*
X198625001Y-103315751D01*
X198625001Y-104228251D01*
X198623827Y-104252143D01*
X198620317Y-104275804D01*
X198614505Y-104299008D01*
X198606447Y-104321530D01*
X198596219Y-104343154D01*
X198583922Y-104363671D01*
X198569672Y-104382884D01*
X198553608Y-104400608D01*
X198535884Y-104416672D01*
X198516671Y-104430922D01*
X198496154Y-104443219D01*
X198474530Y-104453447D01*
X198452008Y-104461505D01*
X198428804Y-104467317D01*
X198405143Y-104470827D01*
X198381251Y-104472001D01*
X197893751Y-104472001D01*
X197869859Y-104470827D01*
X197846198Y-104467317D01*
X197822994Y-104461505D01*
X197800472Y-104453447D01*
X197778848Y-104443219D01*
X197758331Y-104430922D01*
X197739118Y-104416672D01*
X197721394Y-104400608D01*
X197705330Y-104382884D01*
X197691080Y-104363671D01*
X197678783Y-104343154D01*
X197668555Y-104321530D01*
X197660497Y-104299008D01*
X197654685Y-104275804D01*
X197651175Y-104252143D01*
X197650001Y-104228251D01*
X197650001Y-103315751D01*
X197651175Y-103291859D01*
X197654685Y-103268198D01*
X197660497Y-103244994D01*
X197668555Y-103222472D01*
X197678783Y-103200848D01*
X197691080Y-103180331D01*
X197705330Y-103161118D01*
X197721394Y-103143394D01*
X197739118Y-103127330D01*
X197758331Y-103113080D01*
X197778848Y-103100783D01*
X197800472Y-103090555D01*
X197822994Y-103082497D01*
X197846198Y-103076685D01*
X197869859Y-103073175D01*
X197893751Y-103072001D01*
X198381251Y-103072001D01*
X198405143Y-103073175D01*
X198405143Y-103073175D01*
G37*
D11*
X198137501Y-103772001D03*
D10*
G36*
X196530143Y-103073175D02*
X196553804Y-103076685D01*
X196577008Y-103082497D01*
X196599530Y-103090555D01*
X196621154Y-103100783D01*
X196641671Y-103113080D01*
X196660884Y-103127330D01*
X196678608Y-103143394D01*
X196694672Y-103161118D01*
X196708922Y-103180331D01*
X196721219Y-103200848D01*
X196731447Y-103222472D01*
X196739505Y-103244994D01*
X196745317Y-103268198D01*
X196748827Y-103291859D01*
X196750001Y-103315751D01*
X196750001Y-104228251D01*
X196748827Y-104252143D01*
X196745317Y-104275804D01*
X196739505Y-104299008D01*
X196731447Y-104321530D01*
X196721219Y-104343154D01*
X196708922Y-104363671D01*
X196694672Y-104382884D01*
X196678608Y-104400608D01*
X196660884Y-104416672D01*
X196641671Y-104430922D01*
X196621154Y-104443219D01*
X196599530Y-104453447D01*
X196577008Y-104461505D01*
X196553804Y-104467317D01*
X196530143Y-104470827D01*
X196506251Y-104472001D01*
X196018751Y-104472001D01*
X195994859Y-104470827D01*
X195971198Y-104467317D01*
X195947994Y-104461505D01*
X195925472Y-104453447D01*
X195903848Y-104443219D01*
X195883331Y-104430922D01*
X195864118Y-104416672D01*
X195846394Y-104400608D01*
X195830330Y-104382884D01*
X195816080Y-104363671D01*
X195803783Y-104343154D01*
X195793555Y-104321530D01*
X195785497Y-104299008D01*
X195779685Y-104275804D01*
X195776175Y-104252143D01*
X195775001Y-104228251D01*
X195775001Y-103315751D01*
X195776175Y-103291859D01*
X195779685Y-103268198D01*
X195785497Y-103244994D01*
X195793555Y-103222472D01*
X195803783Y-103200848D01*
X195816080Y-103180331D01*
X195830330Y-103161118D01*
X195846394Y-103143394D01*
X195864118Y-103127330D01*
X195883331Y-103113080D01*
X195903848Y-103100783D01*
X195925472Y-103090555D01*
X195947994Y-103082497D01*
X195971198Y-103076685D01*
X195994859Y-103073175D01*
X196018751Y-103072001D01*
X196506251Y-103072001D01*
X196530143Y-103073175D01*
X196530143Y-103073175D01*
G37*
D11*
X196262501Y-103772001D03*
G04 #@! TD*
D10*
G04 #@! TO.C,C9*
G36*
X199940143Y-103073175D02*
X199963804Y-103076685D01*
X199987008Y-103082497D01*
X200009530Y-103090555D01*
X200031154Y-103100783D01*
X200051671Y-103113080D01*
X200070884Y-103127330D01*
X200088608Y-103143394D01*
X200104672Y-103161118D01*
X200118922Y-103180331D01*
X200131219Y-103200848D01*
X200141447Y-103222472D01*
X200149505Y-103244994D01*
X200155317Y-103268198D01*
X200158827Y-103291859D01*
X200160001Y-103315751D01*
X200160001Y-104228251D01*
X200158827Y-104252143D01*
X200155317Y-104275804D01*
X200149505Y-104299008D01*
X200141447Y-104321530D01*
X200131219Y-104343154D01*
X200118922Y-104363671D01*
X200104672Y-104382884D01*
X200088608Y-104400608D01*
X200070884Y-104416672D01*
X200051671Y-104430922D01*
X200031154Y-104443219D01*
X200009530Y-104453447D01*
X199987008Y-104461505D01*
X199963804Y-104467317D01*
X199940143Y-104470827D01*
X199916251Y-104472001D01*
X199428751Y-104472001D01*
X199404859Y-104470827D01*
X199381198Y-104467317D01*
X199357994Y-104461505D01*
X199335472Y-104453447D01*
X199313848Y-104443219D01*
X199293331Y-104430922D01*
X199274118Y-104416672D01*
X199256394Y-104400608D01*
X199240330Y-104382884D01*
X199226080Y-104363671D01*
X199213783Y-104343154D01*
X199203555Y-104321530D01*
X199195497Y-104299008D01*
X199189685Y-104275804D01*
X199186175Y-104252143D01*
X199185001Y-104228251D01*
X199185001Y-103315751D01*
X199186175Y-103291859D01*
X199189685Y-103268198D01*
X199195497Y-103244994D01*
X199203555Y-103222472D01*
X199213783Y-103200848D01*
X199226080Y-103180331D01*
X199240330Y-103161118D01*
X199256394Y-103143394D01*
X199274118Y-103127330D01*
X199293331Y-103113080D01*
X199313848Y-103100783D01*
X199335472Y-103090555D01*
X199357994Y-103082497D01*
X199381198Y-103076685D01*
X199404859Y-103073175D01*
X199428751Y-103072001D01*
X199916251Y-103072001D01*
X199940143Y-103073175D01*
X199940143Y-103073175D01*
G37*
D11*
X199672501Y-103772001D03*
D10*
G36*
X201815143Y-103073175D02*
X201838804Y-103076685D01*
X201862008Y-103082497D01*
X201884530Y-103090555D01*
X201906154Y-103100783D01*
X201926671Y-103113080D01*
X201945884Y-103127330D01*
X201963608Y-103143394D01*
X201979672Y-103161118D01*
X201993922Y-103180331D01*
X202006219Y-103200848D01*
X202016447Y-103222472D01*
X202024505Y-103244994D01*
X202030317Y-103268198D01*
X202033827Y-103291859D01*
X202035001Y-103315751D01*
X202035001Y-104228251D01*
X202033827Y-104252143D01*
X202030317Y-104275804D01*
X202024505Y-104299008D01*
X202016447Y-104321530D01*
X202006219Y-104343154D01*
X201993922Y-104363671D01*
X201979672Y-104382884D01*
X201963608Y-104400608D01*
X201945884Y-104416672D01*
X201926671Y-104430922D01*
X201906154Y-104443219D01*
X201884530Y-104453447D01*
X201862008Y-104461505D01*
X201838804Y-104467317D01*
X201815143Y-104470827D01*
X201791251Y-104472001D01*
X201303751Y-104472001D01*
X201279859Y-104470827D01*
X201256198Y-104467317D01*
X201232994Y-104461505D01*
X201210472Y-104453447D01*
X201188848Y-104443219D01*
X201168331Y-104430922D01*
X201149118Y-104416672D01*
X201131394Y-104400608D01*
X201115330Y-104382884D01*
X201101080Y-104363671D01*
X201088783Y-104343154D01*
X201078555Y-104321530D01*
X201070497Y-104299008D01*
X201064685Y-104275804D01*
X201061175Y-104252143D01*
X201060001Y-104228251D01*
X201060001Y-103315751D01*
X201061175Y-103291859D01*
X201064685Y-103268198D01*
X201070497Y-103244994D01*
X201078555Y-103222472D01*
X201088783Y-103200848D01*
X201101080Y-103180331D01*
X201115330Y-103161118D01*
X201131394Y-103143394D01*
X201149118Y-103127330D01*
X201168331Y-103113080D01*
X201188848Y-103100783D01*
X201210472Y-103090555D01*
X201232994Y-103082497D01*
X201256198Y-103076685D01*
X201279859Y-103073175D01*
X201303751Y-103072001D01*
X201791251Y-103072001D01*
X201815143Y-103073175D01*
X201815143Y-103073175D01*
G37*
D11*
X201547501Y-103772001D03*
G04 #@! TD*
D10*
G04 #@! TO.C,C10*
G36*
X198938643Y-93865675D02*
X198962304Y-93869185D01*
X198985508Y-93874997D01*
X199008030Y-93883055D01*
X199029654Y-93893283D01*
X199050171Y-93905580D01*
X199069384Y-93919830D01*
X199087108Y-93935894D01*
X199103172Y-93953618D01*
X199117422Y-93972831D01*
X199129719Y-93993348D01*
X199139947Y-94014972D01*
X199148005Y-94037494D01*
X199153817Y-94060698D01*
X199157327Y-94084359D01*
X199158501Y-94108251D01*
X199158501Y-95020751D01*
X199157327Y-95044643D01*
X199153817Y-95068304D01*
X199148005Y-95091508D01*
X199139947Y-95114030D01*
X199129719Y-95135654D01*
X199117422Y-95156171D01*
X199103172Y-95175384D01*
X199087108Y-95193108D01*
X199069384Y-95209172D01*
X199050171Y-95223422D01*
X199029654Y-95235719D01*
X199008030Y-95245947D01*
X198985508Y-95254005D01*
X198962304Y-95259817D01*
X198938643Y-95263327D01*
X198914751Y-95264501D01*
X198427251Y-95264501D01*
X198403359Y-95263327D01*
X198379698Y-95259817D01*
X198356494Y-95254005D01*
X198333972Y-95245947D01*
X198312348Y-95235719D01*
X198291831Y-95223422D01*
X198272618Y-95209172D01*
X198254894Y-95193108D01*
X198238830Y-95175384D01*
X198224580Y-95156171D01*
X198212283Y-95135654D01*
X198202055Y-95114030D01*
X198193997Y-95091508D01*
X198188185Y-95068304D01*
X198184675Y-95044643D01*
X198183501Y-95020751D01*
X198183501Y-94108251D01*
X198184675Y-94084359D01*
X198188185Y-94060698D01*
X198193997Y-94037494D01*
X198202055Y-94014972D01*
X198212283Y-93993348D01*
X198224580Y-93972831D01*
X198238830Y-93953618D01*
X198254894Y-93935894D01*
X198272618Y-93919830D01*
X198291831Y-93905580D01*
X198312348Y-93893283D01*
X198333972Y-93883055D01*
X198356494Y-93874997D01*
X198379698Y-93869185D01*
X198403359Y-93865675D01*
X198427251Y-93864501D01*
X198914751Y-93864501D01*
X198938643Y-93865675D01*
X198938643Y-93865675D01*
G37*
D11*
X198671001Y-94564501D03*
D10*
G36*
X197063643Y-93865675D02*
X197087304Y-93869185D01*
X197110508Y-93874997D01*
X197133030Y-93883055D01*
X197154654Y-93893283D01*
X197175171Y-93905580D01*
X197194384Y-93919830D01*
X197212108Y-93935894D01*
X197228172Y-93953618D01*
X197242422Y-93972831D01*
X197254719Y-93993348D01*
X197264947Y-94014972D01*
X197273005Y-94037494D01*
X197278817Y-94060698D01*
X197282327Y-94084359D01*
X197283501Y-94108251D01*
X197283501Y-95020751D01*
X197282327Y-95044643D01*
X197278817Y-95068304D01*
X197273005Y-95091508D01*
X197264947Y-95114030D01*
X197254719Y-95135654D01*
X197242422Y-95156171D01*
X197228172Y-95175384D01*
X197212108Y-95193108D01*
X197194384Y-95209172D01*
X197175171Y-95223422D01*
X197154654Y-95235719D01*
X197133030Y-95245947D01*
X197110508Y-95254005D01*
X197087304Y-95259817D01*
X197063643Y-95263327D01*
X197039751Y-95264501D01*
X196552251Y-95264501D01*
X196528359Y-95263327D01*
X196504698Y-95259817D01*
X196481494Y-95254005D01*
X196458972Y-95245947D01*
X196437348Y-95235719D01*
X196416831Y-95223422D01*
X196397618Y-95209172D01*
X196379894Y-95193108D01*
X196363830Y-95175384D01*
X196349580Y-95156171D01*
X196337283Y-95135654D01*
X196327055Y-95114030D01*
X196318997Y-95091508D01*
X196313185Y-95068304D01*
X196309675Y-95044643D01*
X196308501Y-95020751D01*
X196308501Y-94108251D01*
X196309675Y-94084359D01*
X196313185Y-94060698D01*
X196318997Y-94037494D01*
X196327055Y-94014972D01*
X196337283Y-93993348D01*
X196349580Y-93972831D01*
X196363830Y-93953618D01*
X196379894Y-93935894D01*
X196397618Y-93919830D01*
X196416831Y-93905580D01*
X196437348Y-93893283D01*
X196458972Y-93883055D01*
X196481494Y-93874997D01*
X196504698Y-93869185D01*
X196528359Y-93865675D01*
X196552251Y-93864501D01*
X197039751Y-93864501D01*
X197063643Y-93865675D01*
X197063643Y-93865675D01*
G37*
D11*
X196796001Y-94564501D03*
G04 #@! TD*
D10*
G04 #@! TO.C,C11*
G36*
X200473643Y-93865675D02*
X200497304Y-93869185D01*
X200520508Y-93874997D01*
X200543030Y-93883055D01*
X200564654Y-93893283D01*
X200585171Y-93905580D01*
X200604384Y-93919830D01*
X200622108Y-93935894D01*
X200638172Y-93953618D01*
X200652422Y-93972831D01*
X200664719Y-93993348D01*
X200674947Y-94014972D01*
X200683005Y-94037494D01*
X200688817Y-94060698D01*
X200692327Y-94084359D01*
X200693501Y-94108251D01*
X200693501Y-95020751D01*
X200692327Y-95044643D01*
X200688817Y-95068304D01*
X200683005Y-95091508D01*
X200674947Y-95114030D01*
X200664719Y-95135654D01*
X200652422Y-95156171D01*
X200638172Y-95175384D01*
X200622108Y-95193108D01*
X200604384Y-95209172D01*
X200585171Y-95223422D01*
X200564654Y-95235719D01*
X200543030Y-95245947D01*
X200520508Y-95254005D01*
X200497304Y-95259817D01*
X200473643Y-95263327D01*
X200449751Y-95264501D01*
X199962251Y-95264501D01*
X199938359Y-95263327D01*
X199914698Y-95259817D01*
X199891494Y-95254005D01*
X199868972Y-95245947D01*
X199847348Y-95235719D01*
X199826831Y-95223422D01*
X199807618Y-95209172D01*
X199789894Y-95193108D01*
X199773830Y-95175384D01*
X199759580Y-95156171D01*
X199747283Y-95135654D01*
X199737055Y-95114030D01*
X199728997Y-95091508D01*
X199723185Y-95068304D01*
X199719675Y-95044643D01*
X199718501Y-95020751D01*
X199718501Y-94108251D01*
X199719675Y-94084359D01*
X199723185Y-94060698D01*
X199728997Y-94037494D01*
X199737055Y-94014972D01*
X199747283Y-93993348D01*
X199759580Y-93972831D01*
X199773830Y-93953618D01*
X199789894Y-93935894D01*
X199807618Y-93919830D01*
X199826831Y-93905580D01*
X199847348Y-93893283D01*
X199868972Y-93883055D01*
X199891494Y-93874997D01*
X199914698Y-93869185D01*
X199938359Y-93865675D01*
X199962251Y-93864501D01*
X200449751Y-93864501D01*
X200473643Y-93865675D01*
X200473643Y-93865675D01*
G37*
D11*
X200206001Y-94564501D03*
D10*
G36*
X202348643Y-93865675D02*
X202372304Y-93869185D01*
X202395508Y-93874997D01*
X202418030Y-93883055D01*
X202439654Y-93893283D01*
X202460171Y-93905580D01*
X202479384Y-93919830D01*
X202497108Y-93935894D01*
X202513172Y-93953618D01*
X202527422Y-93972831D01*
X202539719Y-93993348D01*
X202549947Y-94014972D01*
X202558005Y-94037494D01*
X202563817Y-94060698D01*
X202567327Y-94084359D01*
X202568501Y-94108251D01*
X202568501Y-95020751D01*
X202567327Y-95044643D01*
X202563817Y-95068304D01*
X202558005Y-95091508D01*
X202549947Y-95114030D01*
X202539719Y-95135654D01*
X202527422Y-95156171D01*
X202513172Y-95175384D01*
X202497108Y-95193108D01*
X202479384Y-95209172D01*
X202460171Y-95223422D01*
X202439654Y-95235719D01*
X202418030Y-95245947D01*
X202395508Y-95254005D01*
X202372304Y-95259817D01*
X202348643Y-95263327D01*
X202324751Y-95264501D01*
X201837251Y-95264501D01*
X201813359Y-95263327D01*
X201789698Y-95259817D01*
X201766494Y-95254005D01*
X201743972Y-95245947D01*
X201722348Y-95235719D01*
X201701831Y-95223422D01*
X201682618Y-95209172D01*
X201664894Y-95193108D01*
X201648830Y-95175384D01*
X201634580Y-95156171D01*
X201622283Y-95135654D01*
X201612055Y-95114030D01*
X201603997Y-95091508D01*
X201598185Y-95068304D01*
X201594675Y-95044643D01*
X201593501Y-95020751D01*
X201593501Y-94108251D01*
X201594675Y-94084359D01*
X201598185Y-94060698D01*
X201603997Y-94037494D01*
X201612055Y-94014972D01*
X201622283Y-93993348D01*
X201634580Y-93972831D01*
X201648830Y-93953618D01*
X201664894Y-93935894D01*
X201682618Y-93919830D01*
X201701831Y-93905580D01*
X201722348Y-93893283D01*
X201743972Y-93883055D01*
X201766494Y-93874997D01*
X201789698Y-93869185D01*
X201813359Y-93865675D01*
X201837251Y-93864501D01*
X202324751Y-93864501D01*
X202348643Y-93865675D01*
X202348643Y-93865675D01*
G37*
D11*
X202081001Y-94564501D03*
G04 #@! TD*
D10*
G04 #@! TO.C,C12*
G36*
X196581143Y-107899175D02*
X196604804Y-107902685D01*
X196628008Y-107908497D01*
X196650530Y-107916555D01*
X196672154Y-107926783D01*
X196692671Y-107939080D01*
X196711884Y-107953330D01*
X196729608Y-107969394D01*
X196745672Y-107987118D01*
X196759922Y-108006331D01*
X196772219Y-108026848D01*
X196782447Y-108048472D01*
X196790505Y-108070994D01*
X196796317Y-108094198D01*
X196799827Y-108117859D01*
X196801001Y-108141751D01*
X196801001Y-109054251D01*
X196799827Y-109078143D01*
X196796317Y-109101804D01*
X196790505Y-109125008D01*
X196782447Y-109147530D01*
X196772219Y-109169154D01*
X196759922Y-109189671D01*
X196745672Y-109208884D01*
X196729608Y-109226608D01*
X196711884Y-109242672D01*
X196692671Y-109256922D01*
X196672154Y-109269219D01*
X196650530Y-109279447D01*
X196628008Y-109287505D01*
X196604804Y-109293317D01*
X196581143Y-109296827D01*
X196557251Y-109298001D01*
X196069751Y-109298001D01*
X196045859Y-109296827D01*
X196022198Y-109293317D01*
X195998994Y-109287505D01*
X195976472Y-109279447D01*
X195954848Y-109269219D01*
X195934331Y-109256922D01*
X195915118Y-109242672D01*
X195897394Y-109226608D01*
X195881330Y-109208884D01*
X195867080Y-109189671D01*
X195854783Y-109169154D01*
X195844555Y-109147530D01*
X195836497Y-109125008D01*
X195830685Y-109101804D01*
X195827175Y-109078143D01*
X195826001Y-109054251D01*
X195826001Y-108141751D01*
X195827175Y-108117859D01*
X195830685Y-108094198D01*
X195836497Y-108070994D01*
X195844555Y-108048472D01*
X195854783Y-108026848D01*
X195867080Y-108006331D01*
X195881330Y-107987118D01*
X195897394Y-107969394D01*
X195915118Y-107953330D01*
X195934331Y-107939080D01*
X195954848Y-107926783D01*
X195976472Y-107916555D01*
X195998994Y-107908497D01*
X196022198Y-107902685D01*
X196045859Y-107899175D01*
X196069751Y-107898001D01*
X196557251Y-107898001D01*
X196581143Y-107899175D01*
X196581143Y-107899175D01*
G37*
D11*
X196313501Y-108598001D03*
D10*
G36*
X198456143Y-107899175D02*
X198479804Y-107902685D01*
X198503008Y-107908497D01*
X198525530Y-107916555D01*
X198547154Y-107926783D01*
X198567671Y-107939080D01*
X198586884Y-107953330D01*
X198604608Y-107969394D01*
X198620672Y-107987118D01*
X198634922Y-108006331D01*
X198647219Y-108026848D01*
X198657447Y-108048472D01*
X198665505Y-108070994D01*
X198671317Y-108094198D01*
X198674827Y-108117859D01*
X198676001Y-108141751D01*
X198676001Y-109054251D01*
X198674827Y-109078143D01*
X198671317Y-109101804D01*
X198665505Y-109125008D01*
X198657447Y-109147530D01*
X198647219Y-109169154D01*
X198634922Y-109189671D01*
X198620672Y-109208884D01*
X198604608Y-109226608D01*
X198586884Y-109242672D01*
X198567671Y-109256922D01*
X198547154Y-109269219D01*
X198525530Y-109279447D01*
X198503008Y-109287505D01*
X198479804Y-109293317D01*
X198456143Y-109296827D01*
X198432251Y-109298001D01*
X197944751Y-109298001D01*
X197920859Y-109296827D01*
X197897198Y-109293317D01*
X197873994Y-109287505D01*
X197851472Y-109279447D01*
X197829848Y-109269219D01*
X197809331Y-109256922D01*
X197790118Y-109242672D01*
X197772394Y-109226608D01*
X197756330Y-109208884D01*
X197742080Y-109189671D01*
X197729783Y-109169154D01*
X197719555Y-109147530D01*
X197711497Y-109125008D01*
X197705685Y-109101804D01*
X197702175Y-109078143D01*
X197701001Y-109054251D01*
X197701001Y-108141751D01*
X197702175Y-108117859D01*
X197705685Y-108094198D01*
X197711497Y-108070994D01*
X197719555Y-108048472D01*
X197729783Y-108026848D01*
X197742080Y-108006331D01*
X197756330Y-107987118D01*
X197772394Y-107969394D01*
X197790118Y-107953330D01*
X197809331Y-107939080D01*
X197829848Y-107926783D01*
X197851472Y-107916555D01*
X197873994Y-107908497D01*
X197897198Y-107902685D01*
X197920859Y-107899175D01*
X197944751Y-107898001D01*
X198432251Y-107898001D01*
X198456143Y-107899175D01*
X198456143Y-107899175D01*
G37*
D11*
X198188501Y-108598001D03*
G04 #@! TD*
D10*
G04 #@! TO.C,C13*
G36*
X201866143Y-107899175D02*
X201889804Y-107902685D01*
X201913008Y-107908497D01*
X201935530Y-107916555D01*
X201957154Y-107926783D01*
X201977671Y-107939080D01*
X201996884Y-107953330D01*
X202014608Y-107969394D01*
X202030672Y-107987118D01*
X202044922Y-108006331D01*
X202057219Y-108026848D01*
X202067447Y-108048472D01*
X202075505Y-108070994D01*
X202081317Y-108094198D01*
X202084827Y-108117859D01*
X202086001Y-108141751D01*
X202086001Y-109054251D01*
X202084827Y-109078143D01*
X202081317Y-109101804D01*
X202075505Y-109125008D01*
X202067447Y-109147530D01*
X202057219Y-109169154D01*
X202044922Y-109189671D01*
X202030672Y-109208884D01*
X202014608Y-109226608D01*
X201996884Y-109242672D01*
X201977671Y-109256922D01*
X201957154Y-109269219D01*
X201935530Y-109279447D01*
X201913008Y-109287505D01*
X201889804Y-109293317D01*
X201866143Y-109296827D01*
X201842251Y-109298001D01*
X201354751Y-109298001D01*
X201330859Y-109296827D01*
X201307198Y-109293317D01*
X201283994Y-109287505D01*
X201261472Y-109279447D01*
X201239848Y-109269219D01*
X201219331Y-109256922D01*
X201200118Y-109242672D01*
X201182394Y-109226608D01*
X201166330Y-109208884D01*
X201152080Y-109189671D01*
X201139783Y-109169154D01*
X201129555Y-109147530D01*
X201121497Y-109125008D01*
X201115685Y-109101804D01*
X201112175Y-109078143D01*
X201111001Y-109054251D01*
X201111001Y-108141751D01*
X201112175Y-108117859D01*
X201115685Y-108094198D01*
X201121497Y-108070994D01*
X201129555Y-108048472D01*
X201139783Y-108026848D01*
X201152080Y-108006331D01*
X201166330Y-107987118D01*
X201182394Y-107969394D01*
X201200118Y-107953330D01*
X201219331Y-107939080D01*
X201239848Y-107926783D01*
X201261472Y-107916555D01*
X201283994Y-107908497D01*
X201307198Y-107902685D01*
X201330859Y-107899175D01*
X201354751Y-107898001D01*
X201842251Y-107898001D01*
X201866143Y-107899175D01*
X201866143Y-107899175D01*
G37*
D11*
X201598501Y-108598001D03*
D10*
G36*
X199991143Y-107899175D02*
X200014804Y-107902685D01*
X200038008Y-107908497D01*
X200060530Y-107916555D01*
X200082154Y-107926783D01*
X200102671Y-107939080D01*
X200121884Y-107953330D01*
X200139608Y-107969394D01*
X200155672Y-107987118D01*
X200169922Y-108006331D01*
X200182219Y-108026848D01*
X200192447Y-108048472D01*
X200200505Y-108070994D01*
X200206317Y-108094198D01*
X200209827Y-108117859D01*
X200211001Y-108141751D01*
X200211001Y-109054251D01*
X200209827Y-109078143D01*
X200206317Y-109101804D01*
X200200505Y-109125008D01*
X200192447Y-109147530D01*
X200182219Y-109169154D01*
X200169922Y-109189671D01*
X200155672Y-109208884D01*
X200139608Y-109226608D01*
X200121884Y-109242672D01*
X200102671Y-109256922D01*
X200082154Y-109269219D01*
X200060530Y-109279447D01*
X200038008Y-109287505D01*
X200014804Y-109293317D01*
X199991143Y-109296827D01*
X199967251Y-109298001D01*
X199479751Y-109298001D01*
X199455859Y-109296827D01*
X199432198Y-109293317D01*
X199408994Y-109287505D01*
X199386472Y-109279447D01*
X199364848Y-109269219D01*
X199344331Y-109256922D01*
X199325118Y-109242672D01*
X199307394Y-109226608D01*
X199291330Y-109208884D01*
X199277080Y-109189671D01*
X199264783Y-109169154D01*
X199254555Y-109147530D01*
X199246497Y-109125008D01*
X199240685Y-109101804D01*
X199237175Y-109078143D01*
X199236001Y-109054251D01*
X199236001Y-108141751D01*
X199237175Y-108117859D01*
X199240685Y-108094198D01*
X199246497Y-108070994D01*
X199254555Y-108048472D01*
X199264783Y-108026848D01*
X199277080Y-108006331D01*
X199291330Y-107987118D01*
X199307394Y-107969394D01*
X199325118Y-107953330D01*
X199344331Y-107939080D01*
X199364848Y-107926783D01*
X199386472Y-107916555D01*
X199408994Y-107908497D01*
X199432198Y-107902685D01*
X199455859Y-107899175D01*
X199479751Y-107898001D01*
X199967251Y-107898001D01*
X199991143Y-107899175D01*
X199991143Y-107899175D01*
G37*
D11*
X199723501Y-108598001D03*
G04 #@! TD*
D10*
G04 #@! TO.C,C14*
G36*
X178724642Y-67298174D02*
X178748303Y-67301684D01*
X178771507Y-67307496D01*
X178794029Y-67315554D01*
X178815653Y-67325782D01*
X178836170Y-67338079D01*
X178855383Y-67352329D01*
X178873107Y-67368393D01*
X178889171Y-67386117D01*
X178903421Y-67405330D01*
X178915718Y-67425847D01*
X178925946Y-67447471D01*
X178934004Y-67469993D01*
X178939816Y-67493197D01*
X178943326Y-67516858D01*
X178944500Y-67540750D01*
X178944500Y-68028250D01*
X178943326Y-68052142D01*
X178939816Y-68075803D01*
X178934004Y-68099007D01*
X178925946Y-68121529D01*
X178915718Y-68143153D01*
X178903421Y-68163670D01*
X178889171Y-68182883D01*
X178873107Y-68200607D01*
X178855383Y-68216671D01*
X178836170Y-68230921D01*
X178815653Y-68243218D01*
X178794029Y-68253446D01*
X178771507Y-68261504D01*
X178748303Y-68267316D01*
X178724642Y-68270826D01*
X178700750Y-68272000D01*
X177788250Y-68272000D01*
X177764358Y-68270826D01*
X177740697Y-68267316D01*
X177717493Y-68261504D01*
X177694971Y-68253446D01*
X177673347Y-68243218D01*
X177652830Y-68230921D01*
X177633617Y-68216671D01*
X177615893Y-68200607D01*
X177599829Y-68182883D01*
X177585579Y-68163670D01*
X177573282Y-68143153D01*
X177563054Y-68121529D01*
X177554996Y-68099007D01*
X177549184Y-68075803D01*
X177545674Y-68052142D01*
X177544500Y-68028250D01*
X177544500Y-67540750D01*
X177545674Y-67516858D01*
X177549184Y-67493197D01*
X177554996Y-67469993D01*
X177563054Y-67447471D01*
X177573282Y-67425847D01*
X177585579Y-67405330D01*
X177599829Y-67386117D01*
X177615893Y-67368393D01*
X177633617Y-67352329D01*
X177652830Y-67338079D01*
X177673347Y-67325782D01*
X177694971Y-67315554D01*
X177717493Y-67307496D01*
X177740697Y-67301684D01*
X177764358Y-67298174D01*
X177788250Y-67297000D01*
X178700750Y-67297000D01*
X178724642Y-67298174D01*
X178724642Y-67298174D01*
G37*
D11*
X178244500Y-67784500D03*
D10*
G36*
X178724642Y-69173174D02*
X178748303Y-69176684D01*
X178771507Y-69182496D01*
X178794029Y-69190554D01*
X178815653Y-69200782D01*
X178836170Y-69213079D01*
X178855383Y-69227329D01*
X178873107Y-69243393D01*
X178889171Y-69261117D01*
X178903421Y-69280330D01*
X178915718Y-69300847D01*
X178925946Y-69322471D01*
X178934004Y-69344993D01*
X178939816Y-69368197D01*
X178943326Y-69391858D01*
X178944500Y-69415750D01*
X178944500Y-69903250D01*
X178943326Y-69927142D01*
X178939816Y-69950803D01*
X178934004Y-69974007D01*
X178925946Y-69996529D01*
X178915718Y-70018153D01*
X178903421Y-70038670D01*
X178889171Y-70057883D01*
X178873107Y-70075607D01*
X178855383Y-70091671D01*
X178836170Y-70105921D01*
X178815653Y-70118218D01*
X178794029Y-70128446D01*
X178771507Y-70136504D01*
X178748303Y-70142316D01*
X178724642Y-70145826D01*
X178700750Y-70147000D01*
X177788250Y-70147000D01*
X177764358Y-70145826D01*
X177740697Y-70142316D01*
X177717493Y-70136504D01*
X177694971Y-70128446D01*
X177673347Y-70118218D01*
X177652830Y-70105921D01*
X177633617Y-70091671D01*
X177615893Y-70075607D01*
X177599829Y-70057883D01*
X177585579Y-70038670D01*
X177573282Y-70018153D01*
X177563054Y-69996529D01*
X177554996Y-69974007D01*
X177549184Y-69950803D01*
X177545674Y-69927142D01*
X177544500Y-69903250D01*
X177544500Y-69415750D01*
X177545674Y-69391858D01*
X177549184Y-69368197D01*
X177554996Y-69344993D01*
X177563054Y-69322471D01*
X177573282Y-69300847D01*
X177585579Y-69280330D01*
X177599829Y-69261117D01*
X177615893Y-69243393D01*
X177633617Y-69227329D01*
X177652830Y-69213079D01*
X177673347Y-69200782D01*
X177694971Y-69190554D01*
X177717493Y-69182496D01*
X177740697Y-69176684D01*
X177764358Y-69173174D01*
X177788250Y-69172000D01*
X178700750Y-69172000D01*
X178724642Y-69173174D01*
X178724642Y-69173174D01*
G37*
D11*
X178244500Y-69659500D03*
G04 #@! TD*
D10*
G04 #@! TO.C,C15*
G36*
X180719642Y-79247674D02*
X180743303Y-79251184D01*
X180766507Y-79256996D01*
X180789029Y-79265054D01*
X180810653Y-79275282D01*
X180831170Y-79287579D01*
X180850383Y-79301829D01*
X180868107Y-79317893D01*
X180884171Y-79335617D01*
X180898421Y-79354830D01*
X180910718Y-79375347D01*
X180920946Y-79396971D01*
X180929004Y-79419493D01*
X180934816Y-79442697D01*
X180938326Y-79466358D01*
X180939500Y-79490250D01*
X180939500Y-80402750D01*
X180938326Y-80426642D01*
X180934816Y-80450303D01*
X180929004Y-80473507D01*
X180920946Y-80496029D01*
X180910718Y-80517653D01*
X180898421Y-80538170D01*
X180884171Y-80557383D01*
X180868107Y-80575107D01*
X180850383Y-80591171D01*
X180831170Y-80605421D01*
X180810653Y-80617718D01*
X180789029Y-80627946D01*
X180766507Y-80636004D01*
X180743303Y-80641816D01*
X180719642Y-80645326D01*
X180695750Y-80646500D01*
X180208250Y-80646500D01*
X180184358Y-80645326D01*
X180160697Y-80641816D01*
X180137493Y-80636004D01*
X180114971Y-80627946D01*
X180093347Y-80617718D01*
X180072830Y-80605421D01*
X180053617Y-80591171D01*
X180035893Y-80575107D01*
X180019829Y-80557383D01*
X180005579Y-80538170D01*
X179993282Y-80517653D01*
X179983054Y-80496029D01*
X179974996Y-80473507D01*
X179969184Y-80450303D01*
X179965674Y-80426642D01*
X179964500Y-80402750D01*
X179964500Y-79490250D01*
X179965674Y-79466358D01*
X179969184Y-79442697D01*
X179974996Y-79419493D01*
X179983054Y-79396971D01*
X179993282Y-79375347D01*
X180005579Y-79354830D01*
X180019829Y-79335617D01*
X180035893Y-79317893D01*
X180053617Y-79301829D01*
X180072830Y-79287579D01*
X180093347Y-79275282D01*
X180114971Y-79265054D01*
X180137493Y-79256996D01*
X180160697Y-79251184D01*
X180184358Y-79247674D01*
X180208250Y-79246500D01*
X180695750Y-79246500D01*
X180719642Y-79247674D01*
X180719642Y-79247674D01*
G37*
D11*
X180452000Y-79946500D03*
D10*
G36*
X178844642Y-79247674D02*
X178868303Y-79251184D01*
X178891507Y-79256996D01*
X178914029Y-79265054D01*
X178935653Y-79275282D01*
X178956170Y-79287579D01*
X178975383Y-79301829D01*
X178993107Y-79317893D01*
X179009171Y-79335617D01*
X179023421Y-79354830D01*
X179035718Y-79375347D01*
X179045946Y-79396971D01*
X179054004Y-79419493D01*
X179059816Y-79442697D01*
X179063326Y-79466358D01*
X179064500Y-79490250D01*
X179064500Y-80402750D01*
X179063326Y-80426642D01*
X179059816Y-80450303D01*
X179054004Y-80473507D01*
X179045946Y-80496029D01*
X179035718Y-80517653D01*
X179023421Y-80538170D01*
X179009171Y-80557383D01*
X178993107Y-80575107D01*
X178975383Y-80591171D01*
X178956170Y-80605421D01*
X178935653Y-80617718D01*
X178914029Y-80627946D01*
X178891507Y-80636004D01*
X178868303Y-80641816D01*
X178844642Y-80645326D01*
X178820750Y-80646500D01*
X178333250Y-80646500D01*
X178309358Y-80645326D01*
X178285697Y-80641816D01*
X178262493Y-80636004D01*
X178239971Y-80627946D01*
X178218347Y-80617718D01*
X178197830Y-80605421D01*
X178178617Y-80591171D01*
X178160893Y-80575107D01*
X178144829Y-80557383D01*
X178130579Y-80538170D01*
X178118282Y-80517653D01*
X178108054Y-80496029D01*
X178099996Y-80473507D01*
X178094184Y-80450303D01*
X178090674Y-80426642D01*
X178089500Y-80402750D01*
X178089500Y-79490250D01*
X178090674Y-79466358D01*
X178094184Y-79442697D01*
X178099996Y-79419493D01*
X178108054Y-79396971D01*
X178118282Y-79375347D01*
X178130579Y-79354830D01*
X178144829Y-79335617D01*
X178160893Y-79317893D01*
X178178617Y-79301829D01*
X178197830Y-79287579D01*
X178218347Y-79275282D01*
X178239971Y-79265054D01*
X178262493Y-79256996D01*
X178285697Y-79251184D01*
X178309358Y-79247674D01*
X178333250Y-79246500D01*
X178820750Y-79246500D01*
X178844642Y-79247674D01*
X178844642Y-79247674D01*
G37*
D11*
X178577000Y-79946500D03*
G04 #@! TD*
D10*
G04 #@! TO.C,C16*
G36*
X222664643Y-84260175D02*
X222688304Y-84263685D01*
X222711508Y-84269497D01*
X222734030Y-84277555D01*
X222755654Y-84287783D01*
X222776171Y-84300080D01*
X222795384Y-84314330D01*
X222813108Y-84330394D01*
X222829172Y-84348118D01*
X222843422Y-84367331D01*
X222855719Y-84387848D01*
X222865947Y-84409472D01*
X222874005Y-84431994D01*
X222879817Y-84455198D01*
X222883327Y-84478859D01*
X222884501Y-84502751D01*
X222884501Y-85415251D01*
X222883327Y-85439143D01*
X222879817Y-85462804D01*
X222874005Y-85486008D01*
X222865947Y-85508530D01*
X222855719Y-85530154D01*
X222843422Y-85550671D01*
X222829172Y-85569884D01*
X222813108Y-85587608D01*
X222795384Y-85603672D01*
X222776171Y-85617922D01*
X222755654Y-85630219D01*
X222734030Y-85640447D01*
X222711508Y-85648505D01*
X222688304Y-85654317D01*
X222664643Y-85657827D01*
X222640751Y-85659001D01*
X222153251Y-85659001D01*
X222129359Y-85657827D01*
X222105698Y-85654317D01*
X222082494Y-85648505D01*
X222059972Y-85640447D01*
X222038348Y-85630219D01*
X222017831Y-85617922D01*
X221998618Y-85603672D01*
X221980894Y-85587608D01*
X221964830Y-85569884D01*
X221950580Y-85550671D01*
X221938283Y-85530154D01*
X221928055Y-85508530D01*
X221919997Y-85486008D01*
X221914185Y-85462804D01*
X221910675Y-85439143D01*
X221909501Y-85415251D01*
X221909501Y-84502751D01*
X221910675Y-84478859D01*
X221914185Y-84455198D01*
X221919997Y-84431994D01*
X221928055Y-84409472D01*
X221938283Y-84387848D01*
X221950580Y-84367331D01*
X221964830Y-84348118D01*
X221980894Y-84330394D01*
X221998618Y-84314330D01*
X222017831Y-84300080D01*
X222038348Y-84287783D01*
X222059972Y-84277555D01*
X222082494Y-84269497D01*
X222105698Y-84263685D01*
X222129359Y-84260175D01*
X222153251Y-84259001D01*
X222640751Y-84259001D01*
X222664643Y-84260175D01*
X222664643Y-84260175D01*
G37*
D11*
X222397001Y-84959001D03*
D10*
G36*
X224539643Y-84260175D02*
X224563304Y-84263685D01*
X224586508Y-84269497D01*
X224609030Y-84277555D01*
X224630654Y-84287783D01*
X224651171Y-84300080D01*
X224670384Y-84314330D01*
X224688108Y-84330394D01*
X224704172Y-84348118D01*
X224718422Y-84367331D01*
X224730719Y-84387848D01*
X224740947Y-84409472D01*
X224749005Y-84431994D01*
X224754817Y-84455198D01*
X224758327Y-84478859D01*
X224759501Y-84502751D01*
X224759501Y-85415251D01*
X224758327Y-85439143D01*
X224754817Y-85462804D01*
X224749005Y-85486008D01*
X224740947Y-85508530D01*
X224730719Y-85530154D01*
X224718422Y-85550671D01*
X224704172Y-85569884D01*
X224688108Y-85587608D01*
X224670384Y-85603672D01*
X224651171Y-85617922D01*
X224630654Y-85630219D01*
X224609030Y-85640447D01*
X224586508Y-85648505D01*
X224563304Y-85654317D01*
X224539643Y-85657827D01*
X224515751Y-85659001D01*
X224028251Y-85659001D01*
X224004359Y-85657827D01*
X223980698Y-85654317D01*
X223957494Y-85648505D01*
X223934972Y-85640447D01*
X223913348Y-85630219D01*
X223892831Y-85617922D01*
X223873618Y-85603672D01*
X223855894Y-85587608D01*
X223839830Y-85569884D01*
X223825580Y-85550671D01*
X223813283Y-85530154D01*
X223803055Y-85508530D01*
X223794997Y-85486008D01*
X223789185Y-85462804D01*
X223785675Y-85439143D01*
X223784501Y-85415251D01*
X223784501Y-84502751D01*
X223785675Y-84478859D01*
X223789185Y-84455198D01*
X223794997Y-84431994D01*
X223803055Y-84409472D01*
X223813283Y-84387848D01*
X223825580Y-84367331D01*
X223839830Y-84348118D01*
X223855894Y-84330394D01*
X223873618Y-84314330D01*
X223892831Y-84300080D01*
X223913348Y-84287783D01*
X223934972Y-84277555D01*
X223957494Y-84269497D01*
X223980698Y-84263685D01*
X224004359Y-84260175D01*
X224028251Y-84259001D01*
X224515751Y-84259001D01*
X224539643Y-84260175D01*
X224539643Y-84260175D01*
G37*
D11*
X224272001Y-84959001D03*
G04 #@! TD*
D10*
G04 #@! TO.C,D1*
G36*
X210882142Y-104965174D02*
X210905803Y-104968684D01*
X210929007Y-104974496D01*
X210951529Y-104982554D01*
X210973153Y-104992782D01*
X210993670Y-105005079D01*
X211012883Y-105019329D01*
X211030607Y-105035393D01*
X211046671Y-105053117D01*
X211060921Y-105072330D01*
X211073218Y-105092847D01*
X211083446Y-105114471D01*
X211091504Y-105136993D01*
X211097316Y-105160197D01*
X211100826Y-105183858D01*
X211102000Y-105207750D01*
X211102000Y-106120250D01*
X211100826Y-106144142D01*
X211097316Y-106167803D01*
X211091504Y-106191007D01*
X211083446Y-106213529D01*
X211073218Y-106235153D01*
X211060921Y-106255670D01*
X211046671Y-106274883D01*
X211030607Y-106292607D01*
X211012883Y-106308671D01*
X210993670Y-106322921D01*
X210973153Y-106335218D01*
X210951529Y-106345446D01*
X210929007Y-106353504D01*
X210905803Y-106359316D01*
X210882142Y-106362826D01*
X210858250Y-106364000D01*
X210370750Y-106364000D01*
X210346858Y-106362826D01*
X210323197Y-106359316D01*
X210299993Y-106353504D01*
X210277471Y-106345446D01*
X210255847Y-106335218D01*
X210235330Y-106322921D01*
X210216117Y-106308671D01*
X210198393Y-106292607D01*
X210182329Y-106274883D01*
X210168079Y-106255670D01*
X210155782Y-106235153D01*
X210145554Y-106213529D01*
X210137496Y-106191007D01*
X210131684Y-106167803D01*
X210128174Y-106144142D01*
X210127000Y-106120250D01*
X210127000Y-105207750D01*
X210128174Y-105183858D01*
X210131684Y-105160197D01*
X210137496Y-105136993D01*
X210145554Y-105114471D01*
X210155782Y-105092847D01*
X210168079Y-105072330D01*
X210182329Y-105053117D01*
X210198393Y-105035393D01*
X210216117Y-105019329D01*
X210235330Y-105005079D01*
X210255847Y-104992782D01*
X210277471Y-104982554D01*
X210299993Y-104974496D01*
X210323197Y-104968684D01*
X210346858Y-104965174D01*
X210370750Y-104964000D01*
X210858250Y-104964000D01*
X210882142Y-104965174D01*
X210882142Y-104965174D01*
G37*
D11*
X210614500Y-105664000D03*
D10*
G36*
X209007142Y-104965174D02*
X209030803Y-104968684D01*
X209054007Y-104974496D01*
X209076529Y-104982554D01*
X209098153Y-104992782D01*
X209118670Y-105005079D01*
X209137883Y-105019329D01*
X209155607Y-105035393D01*
X209171671Y-105053117D01*
X209185921Y-105072330D01*
X209198218Y-105092847D01*
X209208446Y-105114471D01*
X209216504Y-105136993D01*
X209222316Y-105160197D01*
X209225826Y-105183858D01*
X209227000Y-105207750D01*
X209227000Y-106120250D01*
X209225826Y-106144142D01*
X209222316Y-106167803D01*
X209216504Y-106191007D01*
X209208446Y-106213529D01*
X209198218Y-106235153D01*
X209185921Y-106255670D01*
X209171671Y-106274883D01*
X209155607Y-106292607D01*
X209137883Y-106308671D01*
X209118670Y-106322921D01*
X209098153Y-106335218D01*
X209076529Y-106345446D01*
X209054007Y-106353504D01*
X209030803Y-106359316D01*
X209007142Y-106362826D01*
X208983250Y-106364000D01*
X208495750Y-106364000D01*
X208471858Y-106362826D01*
X208448197Y-106359316D01*
X208424993Y-106353504D01*
X208402471Y-106345446D01*
X208380847Y-106335218D01*
X208360330Y-106322921D01*
X208341117Y-106308671D01*
X208323393Y-106292607D01*
X208307329Y-106274883D01*
X208293079Y-106255670D01*
X208280782Y-106235153D01*
X208270554Y-106213529D01*
X208262496Y-106191007D01*
X208256684Y-106167803D01*
X208253174Y-106144142D01*
X208252000Y-106120250D01*
X208252000Y-105207750D01*
X208253174Y-105183858D01*
X208256684Y-105160197D01*
X208262496Y-105136993D01*
X208270554Y-105114471D01*
X208280782Y-105092847D01*
X208293079Y-105072330D01*
X208307329Y-105053117D01*
X208323393Y-105035393D01*
X208341117Y-105019329D01*
X208360330Y-105005079D01*
X208380847Y-104992782D01*
X208402471Y-104982554D01*
X208424993Y-104974496D01*
X208448197Y-104968684D01*
X208471858Y-104965174D01*
X208495750Y-104964000D01*
X208983250Y-104964000D01*
X209007142Y-104965174D01*
X209007142Y-104965174D01*
G37*
D11*
X208739500Y-105664000D03*
G04 #@! TD*
D10*
G04 #@! TO.C,D2*
G36*
X198892641Y-98557173D02*
X198916302Y-98560683D01*
X198939506Y-98566495D01*
X198962028Y-98574553D01*
X198983652Y-98584781D01*
X199004169Y-98597078D01*
X199023382Y-98611328D01*
X199041106Y-98627392D01*
X199057170Y-98645116D01*
X199071420Y-98664329D01*
X199083717Y-98684846D01*
X199093945Y-98706470D01*
X199102003Y-98728992D01*
X199107815Y-98752196D01*
X199111325Y-98775857D01*
X199112499Y-98799749D01*
X199112499Y-99712249D01*
X199111325Y-99736141D01*
X199107815Y-99759802D01*
X199102003Y-99783006D01*
X199093945Y-99805528D01*
X199083717Y-99827152D01*
X199071420Y-99847669D01*
X199057170Y-99866882D01*
X199041106Y-99884606D01*
X199023382Y-99900670D01*
X199004169Y-99914920D01*
X198983652Y-99927217D01*
X198962028Y-99937445D01*
X198939506Y-99945503D01*
X198916302Y-99951315D01*
X198892641Y-99954825D01*
X198868749Y-99955999D01*
X198381249Y-99955999D01*
X198357357Y-99954825D01*
X198333696Y-99951315D01*
X198310492Y-99945503D01*
X198287970Y-99937445D01*
X198266346Y-99927217D01*
X198245829Y-99914920D01*
X198226616Y-99900670D01*
X198208892Y-99884606D01*
X198192828Y-99866882D01*
X198178578Y-99847669D01*
X198166281Y-99827152D01*
X198156053Y-99805528D01*
X198147995Y-99783006D01*
X198142183Y-99759802D01*
X198138673Y-99736141D01*
X198137499Y-99712249D01*
X198137499Y-98799749D01*
X198138673Y-98775857D01*
X198142183Y-98752196D01*
X198147995Y-98728992D01*
X198156053Y-98706470D01*
X198166281Y-98684846D01*
X198178578Y-98664329D01*
X198192828Y-98645116D01*
X198208892Y-98627392D01*
X198226616Y-98611328D01*
X198245829Y-98597078D01*
X198266346Y-98584781D01*
X198287970Y-98574553D01*
X198310492Y-98566495D01*
X198333696Y-98560683D01*
X198357357Y-98557173D01*
X198381249Y-98555999D01*
X198868749Y-98555999D01*
X198892641Y-98557173D01*
X198892641Y-98557173D01*
G37*
D11*
X198624999Y-99255999D03*
D10*
G36*
X197017641Y-98557173D02*
X197041302Y-98560683D01*
X197064506Y-98566495D01*
X197087028Y-98574553D01*
X197108652Y-98584781D01*
X197129169Y-98597078D01*
X197148382Y-98611328D01*
X197166106Y-98627392D01*
X197182170Y-98645116D01*
X197196420Y-98664329D01*
X197208717Y-98684846D01*
X197218945Y-98706470D01*
X197227003Y-98728992D01*
X197232815Y-98752196D01*
X197236325Y-98775857D01*
X197237499Y-98799749D01*
X197237499Y-99712249D01*
X197236325Y-99736141D01*
X197232815Y-99759802D01*
X197227003Y-99783006D01*
X197218945Y-99805528D01*
X197208717Y-99827152D01*
X197196420Y-99847669D01*
X197182170Y-99866882D01*
X197166106Y-99884606D01*
X197148382Y-99900670D01*
X197129169Y-99914920D01*
X197108652Y-99927217D01*
X197087028Y-99937445D01*
X197064506Y-99945503D01*
X197041302Y-99951315D01*
X197017641Y-99954825D01*
X196993749Y-99955999D01*
X196506249Y-99955999D01*
X196482357Y-99954825D01*
X196458696Y-99951315D01*
X196435492Y-99945503D01*
X196412970Y-99937445D01*
X196391346Y-99927217D01*
X196370829Y-99914920D01*
X196351616Y-99900670D01*
X196333892Y-99884606D01*
X196317828Y-99866882D01*
X196303578Y-99847669D01*
X196291281Y-99827152D01*
X196281053Y-99805528D01*
X196272995Y-99783006D01*
X196267183Y-99759802D01*
X196263673Y-99736141D01*
X196262499Y-99712249D01*
X196262499Y-98799749D01*
X196263673Y-98775857D01*
X196267183Y-98752196D01*
X196272995Y-98728992D01*
X196281053Y-98706470D01*
X196291281Y-98684846D01*
X196303578Y-98664329D01*
X196317828Y-98645116D01*
X196333892Y-98627392D01*
X196351616Y-98611328D01*
X196370829Y-98597078D01*
X196391346Y-98584781D01*
X196412970Y-98574553D01*
X196435492Y-98566495D01*
X196458696Y-98560683D01*
X196482357Y-98557173D01*
X196506249Y-98555999D01*
X196993749Y-98555999D01*
X197017641Y-98557173D01*
X197017641Y-98557173D01*
G37*
D11*
X196749999Y-99255999D03*
G04 #@! TD*
D12*
G04 #@! TO.C,J1*
X222562000Y-113405500D03*
X217082000Y-113405500D03*
D13*
X216862000Y-112655500D03*
X222812000Y-112655500D03*
D14*
X216962000Y-111355500D03*
X222712000Y-111335500D03*
D15*
X218512000Y-111455500D03*
X219162000Y-111455500D03*
X219812000Y-111455500D03*
X220462000Y-111455500D03*
X221112000Y-111455500D03*
D16*
X218852000Y-114605500D03*
X220772000Y-114605500D03*
G04 #@! TD*
D17*
G04 #@! TO.C,MODULE1*
X189269000Y-98208500D03*
X186729000Y-98208500D03*
X184189000Y-98208500D03*
X181649000Y-98208500D03*
X179109000Y-98208500D03*
X176569000Y-98208500D03*
X176569000Y-114008500D03*
X179109000Y-114008500D03*
X181649000Y-114008500D03*
X184189000Y-114008500D03*
X186729000Y-114008500D03*
X189269000Y-114008500D03*
G04 #@! TD*
D18*
G04 #@! TO.C,Q1*
X220662500Y-90757500D03*
X221612500Y-92757500D03*
X219712500Y-92757500D03*
G04 #@! TD*
G04 #@! TO.C,Q2*
X211648000Y-84820000D03*
X213548000Y-84820000D03*
X212598000Y-82820000D03*
G04 #@! TD*
D10*
G04 #@! TO.C,R1*
G36*
X185418642Y-67690674D02*
X185442303Y-67694184D01*
X185465507Y-67699996D01*
X185488029Y-67708054D01*
X185509653Y-67718282D01*
X185530170Y-67730579D01*
X185549383Y-67744829D01*
X185567107Y-67760893D01*
X185583171Y-67778617D01*
X185597421Y-67797830D01*
X185609718Y-67818347D01*
X185619946Y-67839971D01*
X185628004Y-67862493D01*
X185633816Y-67885697D01*
X185637326Y-67909358D01*
X185638500Y-67933250D01*
X185638500Y-68845750D01*
X185637326Y-68869642D01*
X185633816Y-68893303D01*
X185628004Y-68916507D01*
X185619946Y-68939029D01*
X185609718Y-68960653D01*
X185597421Y-68981170D01*
X185583171Y-69000383D01*
X185567107Y-69018107D01*
X185549383Y-69034171D01*
X185530170Y-69048421D01*
X185509653Y-69060718D01*
X185488029Y-69070946D01*
X185465507Y-69079004D01*
X185442303Y-69084816D01*
X185418642Y-69088326D01*
X185394750Y-69089500D01*
X184907250Y-69089500D01*
X184883358Y-69088326D01*
X184859697Y-69084816D01*
X184836493Y-69079004D01*
X184813971Y-69070946D01*
X184792347Y-69060718D01*
X184771830Y-69048421D01*
X184752617Y-69034171D01*
X184734893Y-69018107D01*
X184718829Y-69000383D01*
X184704579Y-68981170D01*
X184692282Y-68960653D01*
X184682054Y-68939029D01*
X184673996Y-68916507D01*
X184668184Y-68893303D01*
X184664674Y-68869642D01*
X184663500Y-68845750D01*
X184663500Y-67933250D01*
X184664674Y-67909358D01*
X184668184Y-67885697D01*
X184673996Y-67862493D01*
X184682054Y-67839971D01*
X184692282Y-67818347D01*
X184704579Y-67797830D01*
X184718829Y-67778617D01*
X184734893Y-67760893D01*
X184752617Y-67744829D01*
X184771830Y-67730579D01*
X184792347Y-67718282D01*
X184813971Y-67708054D01*
X184836493Y-67699996D01*
X184859697Y-67694184D01*
X184883358Y-67690674D01*
X184907250Y-67689500D01*
X185394750Y-67689500D01*
X185418642Y-67690674D01*
X185418642Y-67690674D01*
G37*
D11*
X185151000Y-68389500D03*
D10*
G36*
X183543642Y-67690674D02*
X183567303Y-67694184D01*
X183590507Y-67699996D01*
X183613029Y-67708054D01*
X183634653Y-67718282D01*
X183655170Y-67730579D01*
X183674383Y-67744829D01*
X183692107Y-67760893D01*
X183708171Y-67778617D01*
X183722421Y-67797830D01*
X183734718Y-67818347D01*
X183744946Y-67839971D01*
X183753004Y-67862493D01*
X183758816Y-67885697D01*
X183762326Y-67909358D01*
X183763500Y-67933250D01*
X183763500Y-68845750D01*
X183762326Y-68869642D01*
X183758816Y-68893303D01*
X183753004Y-68916507D01*
X183744946Y-68939029D01*
X183734718Y-68960653D01*
X183722421Y-68981170D01*
X183708171Y-69000383D01*
X183692107Y-69018107D01*
X183674383Y-69034171D01*
X183655170Y-69048421D01*
X183634653Y-69060718D01*
X183613029Y-69070946D01*
X183590507Y-69079004D01*
X183567303Y-69084816D01*
X183543642Y-69088326D01*
X183519750Y-69089500D01*
X183032250Y-69089500D01*
X183008358Y-69088326D01*
X182984697Y-69084816D01*
X182961493Y-69079004D01*
X182938971Y-69070946D01*
X182917347Y-69060718D01*
X182896830Y-69048421D01*
X182877617Y-69034171D01*
X182859893Y-69018107D01*
X182843829Y-69000383D01*
X182829579Y-68981170D01*
X182817282Y-68960653D01*
X182807054Y-68939029D01*
X182798996Y-68916507D01*
X182793184Y-68893303D01*
X182789674Y-68869642D01*
X182788500Y-68845750D01*
X182788500Y-67933250D01*
X182789674Y-67909358D01*
X182793184Y-67885697D01*
X182798996Y-67862493D01*
X182807054Y-67839971D01*
X182817282Y-67818347D01*
X182829579Y-67797830D01*
X182843829Y-67778617D01*
X182859893Y-67760893D01*
X182877617Y-67744829D01*
X182896830Y-67730579D01*
X182917347Y-67718282D01*
X182938971Y-67708054D01*
X182961493Y-67699996D01*
X182984697Y-67694184D01*
X183008358Y-67690674D01*
X183032250Y-67689500D01*
X183519750Y-67689500D01*
X183543642Y-67690674D01*
X183543642Y-67690674D01*
G37*
D11*
X183276000Y-68389500D03*
G04 #@! TD*
D10*
G04 #@! TO.C,R2*
G36*
X214341142Y-60578674D02*
X214364803Y-60582184D01*
X214388007Y-60587996D01*
X214410529Y-60596054D01*
X214432153Y-60606282D01*
X214452670Y-60618579D01*
X214471883Y-60632829D01*
X214489607Y-60648893D01*
X214505671Y-60666617D01*
X214519921Y-60685830D01*
X214532218Y-60706347D01*
X214542446Y-60727971D01*
X214550504Y-60750493D01*
X214556316Y-60773697D01*
X214559826Y-60797358D01*
X214561000Y-60821250D01*
X214561000Y-61733750D01*
X214559826Y-61757642D01*
X214556316Y-61781303D01*
X214550504Y-61804507D01*
X214542446Y-61827029D01*
X214532218Y-61848653D01*
X214519921Y-61869170D01*
X214505671Y-61888383D01*
X214489607Y-61906107D01*
X214471883Y-61922171D01*
X214452670Y-61936421D01*
X214432153Y-61948718D01*
X214410529Y-61958946D01*
X214388007Y-61967004D01*
X214364803Y-61972816D01*
X214341142Y-61976326D01*
X214317250Y-61977500D01*
X213829750Y-61977500D01*
X213805858Y-61976326D01*
X213782197Y-61972816D01*
X213758993Y-61967004D01*
X213736471Y-61958946D01*
X213714847Y-61948718D01*
X213694330Y-61936421D01*
X213675117Y-61922171D01*
X213657393Y-61906107D01*
X213641329Y-61888383D01*
X213627079Y-61869170D01*
X213614782Y-61848653D01*
X213604554Y-61827029D01*
X213596496Y-61804507D01*
X213590684Y-61781303D01*
X213587174Y-61757642D01*
X213586000Y-61733750D01*
X213586000Y-60821250D01*
X213587174Y-60797358D01*
X213590684Y-60773697D01*
X213596496Y-60750493D01*
X213604554Y-60727971D01*
X213614782Y-60706347D01*
X213627079Y-60685830D01*
X213641329Y-60666617D01*
X213657393Y-60648893D01*
X213675117Y-60632829D01*
X213694330Y-60618579D01*
X213714847Y-60606282D01*
X213736471Y-60596054D01*
X213758993Y-60587996D01*
X213782197Y-60582184D01*
X213805858Y-60578674D01*
X213829750Y-60577500D01*
X214317250Y-60577500D01*
X214341142Y-60578674D01*
X214341142Y-60578674D01*
G37*
D11*
X214073500Y-61277500D03*
D10*
G36*
X216216142Y-60578674D02*
X216239803Y-60582184D01*
X216263007Y-60587996D01*
X216285529Y-60596054D01*
X216307153Y-60606282D01*
X216327670Y-60618579D01*
X216346883Y-60632829D01*
X216364607Y-60648893D01*
X216380671Y-60666617D01*
X216394921Y-60685830D01*
X216407218Y-60706347D01*
X216417446Y-60727971D01*
X216425504Y-60750493D01*
X216431316Y-60773697D01*
X216434826Y-60797358D01*
X216436000Y-60821250D01*
X216436000Y-61733750D01*
X216434826Y-61757642D01*
X216431316Y-61781303D01*
X216425504Y-61804507D01*
X216417446Y-61827029D01*
X216407218Y-61848653D01*
X216394921Y-61869170D01*
X216380671Y-61888383D01*
X216364607Y-61906107D01*
X216346883Y-61922171D01*
X216327670Y-61936421D01*
X216307153Y-61948718D01*
X216285529Y-61958946D01*
X216263007Y-61967004D01*
X216239803Y-61972816D01*
X216216142Y-61976326D01*
X216192250Y-61977500D01*
X215704750Y-61977500D01*
X215680858Y-61976326D01*
X215657197Y-61972816D01*
X215633993Y-61967004D01*
X215611471Y-61958946D01*
X215589847Y-61948718D01*
X215569330Y-61936421D01*
X215550117Y-61922171D01*
X215532393Y-61906107D01*
X215516329Y-61888383D01*
X215502079Y-61869170D01*
X215489782Y-61848653D01*
X215479554Y-61827029D01*
X215471496Y-61804507D01*
X215465684Y-61781303D01*
X215462174Y-61757642D01*
X215461000Y-61733750D01*
X215461000Y-60821250D01*
X215462174Y-60797358D01*
X215465684Y-60773697D01*
X215471496Y-60750493D01*
X215479554Y-60727971D01*
X215489782Y-60706347D01*
X215502079Y-60685830D01*
X215516329Y-60666617D01*
X215532393Y-60648893D01*
X215550117Y-60632829D01*
X215569330Y-60618579D01*
X215589847Y-60606282D01*
X215611471Y-60596054D01*
X215633993Y-60587996D01*
X215657197Y-60582184D01*
X215680858Y-60578674D01*
X215704750Y-60577500D01*
X216192250Y-60577500D01*
X216216142Y-60578674D01*
X216216142Y-60578674D01*
G37*
D11*
X215948500Y-61277500D03*
G04 #@! TD*
D10*
G04 #@! TO.C,R3*
G36*
X220711143Y-78822675D02*
X220734804Y-78826185D01*
X220758008Y-78831997D01*
X220780530Y-78840055D01*
X220802154Y-78850283D01*
X220822671Y-78862580D01*
X220841884Y-78876830D01*
X220859608Y-78892894D01*
X220875672Y-78910618D01*
X220889922Y-78929831D01*
X220902219Y-78950348D01*
X220912447Y-78971972D01*
X220920505Y-78994494D01*
X220926317Y-79017698D01*
X220929827Y-79041359D01*
X220931001Y-79065251D01*
X220931001Y-79977751D01*
X220929827Y-80001643D01*
X220926317Y-80025304D01*
X220920505Y-80048508D01*
X220912447Y-80071030D01*
X220902219Y-80092654D01*
X220889922Y-80113171D01*
X220875672Y-80132384D01*
X220859608Y-80150108D01*
X220841884Y-80166172D01*
X220822671Y-80180422D01*
X220802154Y-80192719D01*
X220780530Y-80202947D01*
X220758008Y-80211005D01*
X220734804Y-80216817D01*
X220711143Y-80220327D01*
X220687251Y-80221501D01*
X220199751Y-80221501D01*
X220175859Y-80220327D01*
X220152198Y-80216817D01*
X220128994Y-80211005D01*
X220106472Y-80202947D01*
X220084848Y-80192719D01*
X220064331Y-80180422D01*
X220045118Y-80166172D01*
X220027394Y-80150108D01*
X220011330Y-80132384D01*
X219997080Y-80113171D01*
X219984783Y-80092654D01*
X219974555Y-80071030D01*
X219966497Y-80048508D01*
X219960685Y-80025304D01*
X219957175Y-80001643D01*
X219956001Y-79977751D01*
X219956001Y-79065251D01*
X219957175Y-79041359D01*
X219960685Y-79017698D01*
X219966497Y-78994494D01*
X219974555Y-78971972D01*
X219984783Y-78950348D01*
X219997080Y-78929831D01*
X220011330Y-78910618D01*
X220027394Y-78892894D01*
X220045118Y-78876830D01*
X220064331Y-78862580D01*
X220084848Y-78850283D01*
X220106472Y-78840055D01*
X220128994Y-78831997D01*
X220152198Y-78826185D01*
X220175859Y-78822675D01*
X220199751Y-78821501D01*
X220687251Y-78821501D01*
X220711143Y-78822675D01*
X220711143Y-78822675D01*
G37*
D11*
X220443501Y-79521501D03*
D10*
G36*
X218836143Y-78822675D02*
X218859804Y-78826185D01*
X218883008Y-78831997D01*
X218905530Y-78840055D01*
X218927154Y-78850283D01*
X218947671Y-78862580D01*
X218966884Y-78876830D01*
X218984608Y-78892894D01*
X219000672Y-78910618D01*
X219014922Y-78929831D01*
X219027219Y-78950348D01*
X219037447Y-78971972D01*
X219045505Y-78994494D01*
X219051317Y-79017698D01*
X219054827Y-79041359D01*
X219056001Y-79065251D01*
X219056001Y-79977751D01*
X219054827Y-80001643D01*
X219051317Y-80025304D01*
X219045505Y-80048508D01*
X219037447Y-80071030D01*
X219027219Y-80092654D01*
X219014922Y-80113171D01*
X219000672Y-80132384D01*
X218984608Y-80150108D01*
X218966884Y-80166172D01*
X218947671Y-80180422D01*
X218927154Y-80192719D01*
X218905530Y-80202947D01*
X218883008Y-80211005D01*
X218859804Y-80216817D01*
X218836143Y-80220327D01*
X218812251Y-80221501D01*
X218324751Y-80221501D01*
X218300859Y-80220327D01*
X218277198Y-80216817D01*
X218253994Y-80211005D01*
X218231472Y-80202947D01*
X218209848Y-80192719D01*
X218189331Y-80180422D01*
X218170118Y-80166172D01*
X218152394Y-80150108D01*
X218136330Y-80132384D01*
X218122080Y-80113171D01*
X218109783Y-80092654D01*
X218099555Y-80071030D01*
X218091497Y-80048508D01*
X218085685Y-80025304D01*
X218082175Y-80001643D01*
X218081001Y-79977751D01*
X218081001Y-79065251D01*
X218082175Y-79041359D01*
X218085685Y-79017698D01*
X218091497Y-78994494D01*
X218099555Y-78971972D01*
X218109783Y-78950348D01*
X218122080Y-78929831D01*
X218136330Y-78910618D01*
X218152394Y-78892894D01*
X218170118Y-78876830D01*
X218189331Y-78862580D01*
X218209848Y-78850283D01*
X218231472Y-78840055D01*
X218253994Y-78831997D01*
X218277198Y-78826185D01*
X218300859Y-78822675D01*
X218324751Y-78821501D01*
X218812251Y-78821501D01*
X218836143Y-78822675D01*
X218836143Y-78822675D01*
G37*
D11*
X218568501Y-79521501D03*
G04 #@! TD*
D10*
G04 #@! TO.C,R4*
G36*
X219581642Y-84137174D02*
X219605303Y-84140684D01*
X219628507Y-84146496D01*
X219651029Y-84154554D01*
X219672653Y-84164782D01*
X219693170Y-84177079D01*
X219712383Y-84191329D01*
X219730107Y-84207393D01*
X219746171Y-84225117D01*
X219760421Y-84244330D01*
X219772718Y-84264847D01*
X219782946Y-84286471D01*
X219791004Y-84308993D01*
X219796816Y-84332197D01*
X219800326Y-84355858D01*
X219801500Y-84379750D01*
X219801500Y-85292250D01*
X219800326Y-85316142D01*
X219796816Y-85339803D01*
X219791004Y-85363007D01*
X219782946Y-85385529D01*
X219772718Y-85407153D01*
X219760421Y-85427670D01*
X219746171Y-85446883D01*
X219730107Y-85464607D01*
X219712383Y-85480671D01*
X219693170Y-85494921D01*
X219672653Y-85507218D01*
X219651029Y-85517446D01*
X219628507Y-85525504D01*
X219605303Y-85531316D01*
X219581642Y-85534826D01*
X219557750Y-85536000D01*
X219070250Y-85536000D01*
X219046358Y-85534826D01*
X219022697Y-85531316D01*
X218999493Y-85525504D01*
X218976971Y-85517446D01*
X218955347Y-85507218D01*
X218934830Y-85494921D01*
X218915617Y-85480671D01*
X218897893Y-85464607D01*
X218881829Y-85446883D01*
X218867579Y-85427670D01*
X218855282Y-85407153D01*
X218845054Y-85385529D01*
X218836996Y-85363007D01*
X218831184Y-85339803D01*
X218827674Y-85316142D01*
X218826500Y-85292250D01*
X218826500Y-84379750D01*
X218827674Y-84355858D01*
X218831184Y-84332197D01*
X218836996Y-84308993D01*
X218845054Y-84286471D01*
X218855282Y-84264847D01*
X218867579Y-84244330D01*
X218881829Y-84225117D01*
X218897893Y-84207393D01*
X218915617Y-84191329D01*
X218934830Y-84177079D01*
X218955347Y-84164782D01*
X218976971Y-84154554D01*
X218999493Y-84146496D01*
X219022697Y-84140684D01*
X219046358Y-84137174D01*
X219070250Y-84136000D01*
X219557750Y-84136000D01*
X219581642Y-84137174D01*
X219581642Y-84137174D01*
G37*
D11*
X219314000Y-84836000D03*
D10*
G36*
X217706642Y-84137174D02*
X217730303Y-84140684D01*
X217753507Y-84146496D01*
X217776029Y-84154554D01*
X217797653Y-84164782D01*
X217818170Y-84177079D01*
X217837383Y-84191329D01*
X217855107Y-84207393D01*
X217871171Y-84225117D01*
X217885421Y-84244330D01*
X217897718Y-84264847D01*
X217907946Y-84286471D01*
X217916004Y-84308993D01*
X217921816Y-84332197D01*
X217925326Y-84355858D01*
X217926500Y-84379750D01*
X217926500Y-85292250D01*
X217925326Y-85316142D01*
X217921816Y-85339803D01*
X217916004Y-85363007D01*
X217907946Y-85385529D01*
X217897718Y-85407153D01*
X217885421Y-85427670D01*
X217871171Y-85446883D01*
X217855107Y-85464607D01*
X217837383Y-85480671D01*
X217818170Y-85494921D01*
X217797653Y-85507218D01*
X217776029Y-85517446D01*
X217753507Y-85525504D01*
X217730303Y-85531316D01*
X217706642Y-85534826D01*
X217682750Y-85536000D01*
X217195250Y-85536000D01*
X217171358Y-85534826D01*
X217147697Y-85531316D01*
X217124493Y-85525504D01*
X217101971Y-85517446D01*
X217080347Y-85507218D01*
X217059830Y-85494921D01*
X217040617Y-85480671D01*
X217022893Y-85464607D01*
X217006829Y-85446883D01*
X216992579Y-85427670D01*
X216980282Y-85407153D01*
X216970054Y-85385529D01*
X216961996Y-85363007D01*
X216956184Y-85339803D01*
X216952674Y-85316142D01*
X216951500Y-85292250D01*
X216951500Y-84379750D01*
X216952674Y-84355858D01*
X216956184Y-84332197D01*
X216961996Y-84308993D01*
X216970054Y-84286471D01*
X216980282Y-84264847D01*
X216992579Y-84244330D01*
X217006829Y-84225117D01*
X217022893Y-84207393D01*
X217040617Y-84191329D01*
X217059830Y-84177079D01*
X217080347Y-84164782D01*
X217101971Y-84154554D01*
X217124493Y-84146496D01*
X217147697Y-84140684D01*
X217171358Y-84137174D01*
X217195250Y-84136000D01*
X217682750Y-84136000D01*
X217706642Y-84137174D01*
X217706642Y-84137174D01*
G37*
D11*
X217439000Y-84836000D03*
G04 #@! TD*
D10*
G04 #@! TO.C,R5*
G36*
X221854643Y-86210175D02*
X221878304Y-86213685D01*
X221901508Y-86219497D01*
X221924030Y-86227555D01*
X221945654Y-86237783D01*
X221966171Y-86250080D01*
X221985384Y-86264330D01*
X222003108Y-86280394D01*
X222019172Y-86298118D01*
X222033422Y-86317331D01*
X222045719Y-86337848D01*
X222055947Y-86359472D01*
X222064005Y-86381994D01*
X222069817Y-86405198D01*
X222073327Y-86428859D01*
X222074501Y-86452751D01*
X222074501Y-87365251D01*
X222073327Y-87389143D01*
X222069817Y-87412804D01*
X222064005Y-87436008D01*
X222055947Y-87458530D01*
X222045719Y-87480154D01*
X222033422Y-87500671D01*
X222019172Y-87519884D01*
X222003108Y-87537608D01*
X221985384Y-87553672D01*
X221966171Y-87567922D01*
X221945654Y-87580219D01*
X221924030Y-87590447D01*
X221901508Y-87598505D01*
X221878304Y-87604317D01*
X221854643Y-87607827D01*
X221830751Y-87609001D01*
X221343251Y-87609001D01*
X221319359Y-87607827D01*
X221295698Y-87604317D01*
X221272494Y-87598505D01*
X221249972Y-87590447D01*
X221228348Y-87580219D01*
X221207831Y-87567922D01*
X221188618Y-87553672D01*
X221170894Y-87537608D01*
X221154830Y-87519884D01*
X221140580Y-87500671D01*
X221128283Y-87480154D01*
X221118055Y-87458530D01*
X221109997Y-87436008D01*
X221104185Y-87412804D01*
X221100675Y-87389143D01*
X221099501Y-87365251D01*
X221099501Y-86452751D01*
X221100675Y-86428859D01*
X221104185Y-86405198D01*
X221109997Y-86381994D01*
X221118055Y-86359472D01*
X221128283Y-86337848D01*
X221140580Y-86317331D01*
X221154830Y-86298118D01*
X221170894Y-86280394D01*
X221188618Y-86264330D01*
X221207831Y-86250080D01*
X221228348Y-86237783D01*
X221249972Y-86227555D01*
X221272494Y-86219497D01*
X221295698Y-86213685D01*
X221319359Y-86210175D01*
X221343251Y-86209001D01*
X221830751Y-86209001D01*
X221854643Y-86210175D01*
X221854643Y-86210175D01*
G37*
D11*
X221587001Y-86909001D03*
D10*
G36*
X223729643Y-86210175D02*
X223753304Y-86213685D01*
X223776508Y-86219497D01*
X223799030Y-86227555D01*
X223820654Y-86237783D01*
X223841171Y-86250080D01*
X223860384Y-86264330D01*
X223878108Y-86280394D01*
X223894172Y-86298118D01*
X223908422Y-86317331D01*
X223920719Y-86337848D01*
X223930947Y-86359472D01*
X223939005Y-86381994D01*
X223944817Y-86405198D01*
X223948327Y-86428859D01*
X223949501Y-86452751D01*
X223949501Y-87365251D01*
X223948327Y-87389143D01*
X223944817Y-87412804D01*
X223939005Y-87436008D01*
X223930947Y-87458530D01*
X223920719Y-87480154D01*
X223908422Y-87500671D01*
X223894172Y-87519884D01*
X223878108Y-87537608D01*
X223860384Y-87553672D01*
X223841171Y-87567922D01*
X223820654Y-87580219D01*
X223799030Y-87590447D01*
X223776508Y-87598505D01*
X223753304Y-87604317D01*
X223729643Y-87607827D01*
X223705751Y-87609001D01*
X223218251Y-87609001D01*
X223194359Y-87607827D01*
X223170698Y-87604317D01*
X223147494Y-87598505D01*
X223124972Y-87590447D01*
X223103348Y-87580219D01*
X223082831Y-87567922D01*
X223063618Y-87553672D01*
X223045894Y-87537608D01*
X223029830Y-87519884D01*
X223015580Y-87500671D01*
X223003283Y-87480154D01*
X222993055Y-87458530D01*
X222984997Y-87436008D01*
X222979185Y-87412804D01*
X222975675Y-87389143D01*
X222974501Y-87365251D01*
X222974501Y-86452751D01*
X222975675Y-86428859D01*
X222979185Y-86405198D01*
X222984997Y-86381994D01*
X222993055Y-86359472D01*
X223003283Y-86337848D01*
X223015580Y-86317331D01*
X223029830Y-86298118D01*
X223045894Y-86280394D01*
X223063618Y-86264330D01*
X223082831Y-86250080D01*
X223103348Y-86237783D01*
X223124972Y-86227555D01*
X223147494Y-86219497D01*
X223170698Y-86213685D01*
X223194359Y-86210175D01*
X223218251Y-86209001D01*
X223705751Y-86209001D01*
X223729643Y-86210175D01*
X223729643Y-86210175D01*
G37*
D11*
X223462001Y-86909001D03*
G04 #@! TD*
D10*
G04 #@! TO.C,R6*
G36*
X201343143Y-85767675D02*
X201366804Y-85771185D01*
X201390008Y-85776997D01*
X201412530Y-85785055D01*
X201434154Y-85795283D01*
X201454671Y-85807580D01*
X201473884Y-85821830D01*
X201491608Y-85837894D01*
X201507672Y-85855618D01*
X201521922Y-85874831D01*
X201534219Y-85895348D01*
X201544447Y-85916972D01*
X201552505Y-85939494D01*
X201558317Y-85962698D01*
X201561827Y-85986359D01*
X201563001Y-86010251D01*
X201563001Y-86922751D01*
X201561827Y-86946643D01*
X201558317Y-86970304D01*
X201552505Y-86993508D01*
X201544447Y-87016030D01*
X201534219Y-87037654D01*
X201521922Y-87058171D01*
X201507672Y-87077384D01*
X201491608Y-87095108D01*
X201473884Y-87111172D01*
X201454671Y-87125422D01*
X201434154Y-87137719D01*
X201412530Y-87147947D01*
X201390008Y-87156005D01*
X201366804Y-87161817D01*
X201343143Y-87165327D01*
X201319251Y-87166501D01*
X200831751Y-87166501D01*
X200807859Y-87165327D01*
X200784198Y-87161817D01*
X200760994Y-87156005D01*
X200738472Y-87147947D01*
X200716848Y-87137719D01*
X200696331Y-87125422D01*
X200677118Y-87111172D01*
X200659394Y-87095108D01*
X200643330Y-87077384D01*
X200629080Y-87058171D01*
X200616783Y-87037654D01*
X200606555Y-87016030D01*
X200598497Y-86993508D01*
X200592685Y-86970304D01*
X200589175Y-86946643D01*
X200588001Y-86922751D01*
X200588001Y-86010251D01*
X200589175Y-85986359D01*
X200592685Y-85962698D01*
X200598497Y-85939494D01*
X200606555Y-85916972D01*
X200616783Y-85895348D01*
X200629080Y-85874831D01*
X200643330Y-85855618D01*
X200659394Y-85837894D01*
X200677118Y-85821830D01*
X200696331Y-85807580D01*
X200716848Y-85795283D01*
X200738472Y-85785055D01*
X200760994Y-85776997D01*
X200784198Y-85771185D01*
X200807859Y-85767675D01*
X200831751Y-85766501D01*
X201319251Y-85766501D01*
X201343143Y-85767675D01*
X201343143Y-85767675D01*
G37*
D11*
X201075501Y-86466501D03*
D10*
G36*
X199468143Y-85767675D02*
X199491804Y-85771185D01*
X199515008Y-85776997D01*
X199537530Y-85785055D01*
X199559154Y-85795283D01*
X199579671Y-85807580D01*
X199598884Y-85821830D01*
X199616608Y-85837894D01*
X199632672Y-85855618D01*
X199646922Y-85874831D01*
X199659219Y-85895348D01*
X199669447Y-85916972D01*
X199677505Y-85939494D01*
X199683317Y-85962698D01*
X199686827Y-85986359D01*
X199688001Y-86010251D01*
X199688001Y-86922751D01*
X199686827Y-86946643D01*
X199683317Y-86970304D01*
X199677505Y-86993508D01*
X199669447Y-87016030D01*
X199659219Y-87037654D01*
X199646922Y-87058171D01*
X199632672Y-87077384D01*
X199616608Y-87095108D01*
X199598884Y-87111172D01*
X199579671Y-87125422D01*
X199559154Y-87137719D01*
X199537530Y-87147947D01*
X199515008Y-87156005D01*
X199491804Y-87161817D01*
X199468143Y-87165327D01*
X199444251Y-87166501D01*
X198956751Y-87166501D01*
X198932859Y-87165327D01*
X198909198Y-87161817D01*
X198885994Y-87156005D01*
X198863472Y-87147947D01*
X198841848Y-87137719D01*
X198821331Y-87125422D01*
X198802118Y-87111172D01*
X198784394Y-87095108D01*
X198768330Y-87077384D01*
X198754080Y-87058171D01*
X198741783Y-87037654D01*
X198731555Y-87016030D01*
X198723497Y-86993508D01*
X198717685Y-86970304D01*
X198714175Y-86946643D01*
X198713001Y-86922751D01*
X198713001Y-86010251D01*
X198714175Y-85986359D01*
X198717685Y-85962698D01*
X198723497Y-85939494D01*
X198731555Y-85916972D01*
X198741783Y-85895348D01*
X198754080Y-85874831D01*
X198768330Y-85855618D01*
X198784394Y-85837894D01*
X198802118Y-85821830D01*
X198821331Y-85807580D01*
X198841848Y-85795283D01*
X198863472Y-85785055D01*
X198885994Y-85776997D01*
X198909198Y-85771185D01*
X198932859Y-85767675D01*
X198956751Y-85766501D01*
X199444251Y-85766501D01*
X199468143Y-85767675D01*
X199468143Y-85767675D01*
G37*
D11*
X199200501Y-86466501D03*
G04 #@! TD*
D10*
G04 #@! TO.C,R7*
G36*
X214483142Y-64325174D02*
X214506803Y-64328684D01*
X214530007Y-64334496D01*
X214552529Y-64342554D01*
X214574153Y-64352782D01*
X214594670Y-64365079D01*
X214613883Y-64379329D01*
X214631607Y-64395393D01*
X214647671Y-64413117D01*
X214661921Y-64432330D01*
X214674218Y-64452847D01*
X214684446Y-64474471D01*
X214692504Y-64496993D01*
X214698316Y-64520197D01*
X214701826Y-64543858D01*
X214703000Y-64567750D01*
X214703000Y-65480250D01*
X214701826Y-65504142D01*
X214698316Y-65527803D01*
X214692504Y-65551007D01*
X214684446Y-65573529D01*
X214674218Y-65595153D01*
X214661921Y-65615670D01*
X214647671Y-65634883D01*
X214631607Y-65652607D01*
X214613883Y-65668671D01*
X214594670Y-65682921D01*
X214574153Y-65695218D01*
X214552529Y-65705446D01*
X214530007Y-65713504D01*
X214506803Y-65719316D01*
X214483142Y-65722826D01*
X214459250Y-65724000D01*
X213971750Y-65724000D01*
X213947858Y-65722826D01*
X213924197Y-65719316D01*
X213900993Y-65713504D01*
X213878471Y-65705446D01*
X213856847Y-65695218D01*
X213836330Y-65682921D01*
X213817117Y-65668671D01*
X213799393Y-65652607D01*
X213783329Y-65634883D01*
X213769079Y-65615670D01*
X213756782Y-65595153D01*
X213746554Y-65573529D01*
X213738496Y-65551007D01*
X213732684Y-65527803D01*
X213729174Y-65504142D01*
X213728000Y-65480250D01*
X213728000Y-64567750D01*
X213729174Y-64543858D01*
X213732684Y-64520197D01*
X213738496Y-64496993D01*
X213746554Y-64474471D01*
X213756782Y-64452847D01*
X213769079Y-64432330D01*
X213783329Y-64413117D01*
X213799393Y-64395393D01*
X213817117Y-64379329D01*
X213836330Y-64365079D01*
X213856847Y-64352782D01*
X213878471Y-64342554D01*
X213900993Y-64334496D01*
X213924197Y-64328684D01*
X213947858Y-64325174D01*
X213971750Y-64324000D01*
X214459250Y-64324000D01*
X214483142Y-64325174D01*
X214483142Y-64325174D01*
G37*
D11*
X214215500Y-65024000D03*
D10*
G36*
X216358142Y-64325174D02*
X216381803Y-64328684D01*
X216405007Y-64334496D01*
X216427529Y-64342554D01*
X216449153Y-64352782D01*
X216469670Y-64365079D01*
X216488883Y-64379329D01*
X216506607Y-64395393D01*
X216522671Y-64413117D01*
X216536921Y-64432330D01*
X216549218Y-64452847D01*
X216559446Y-64474471D01*
X216567504Y-64496993D01*
X216573316Y-64520197D01*
X216576826Y-64543858D01*
X216578000Y-64567750D01*
X216578000Y-65480250D01*
X216576826Y-65504142D01*
X216573316Y-65527803D01*
X216567504Y-65551007D01*
X216559446Y-65573529D01*
X216549218Y-65595153D01*
X216536921Y-65615670D01*
X216522671Y-65634883D01*
X216506607Y-65652607D01*
X216488883Y-65668671D01*
X216469670Y-65682921D01*
X216449153Y-65695218D01*
X216427529Y-65705446D01*
X216405007Y-65713504D01*
X216381803Y-65719316D01*
X216358142Y-65722826D01*
X216334250Y-65724000D01*
X215846750Y-65724000D01*
X215822858Y-65722826D01*
X215799197Y-65719316D01*
X215775993Y-65713504D01*
X215753471Y-65705446D01*
X215731847Y-65695218D01*
X215711330Y-65682921D01*
X215692117Y-65668671D01*
X215674393Y-65652607D01*
X215658329Y-65634883D01*
X215644079Y-65615670D01*
X215631782Y-65595153D01*
X215621554Y-65573529D01*
X215613496Y-65551007D01*
X215607684Y-65527803D01*
X215604174Y-65504142D01*
X215603000Y-65480250D01*
X215603000Y-64567750D01*
X215604174Y-64543858D01*
X215607684Y-64520197D01*
X215613496Y-64496993D01*
X215621554Y-64474471D01*
X215631782Y-64452847D01*
X215644079Y-64432330D01*
X215658329Y-64413117D01*
X215674393Y-64395393D01*
X215692117Y-64379329D01*
X215711330Y-64365079D01*
X215731847Y-64352782D01*
X215753471Y-64342554D01*
X215775993Y-64334496D01*
X215799197Y-64328684D01*
X215822858Y-64325174D01*
X215846750Y-64324000D01*
X216334250Y-64324000D01*
X216358142Y-64325174D01*
X216358142Y-64325174D01*
G37*
D11*
X216090500Y-65024000D03*
G04 #@! TD*
D10*
G04 #@! TO.C,R8*
G36*
X191821143Y-84683175D02*
X191844804Y-84686685D01*
X191868008Y-84692497D01*
X191890530Y-84700555D01*
X191912154Y-84710783D01*
X191932671Y-84723080D01*
X191951884Y-84737330D01*
X191969608Y-84753394D01*
X191985672Y-84771118D01*
X191999922Y-84790331D01*
X192012219Y-84810848D01*
X192022447Y-84832472D01*
X192030505Y-84854994D01*
X192036317Y-84878198D01*
X192039827Y-84901859D01*
X192041001Y-84925751D01*
X192041001Y-85838251D01*
X192039827Y-85862143D01*
X192036317Y-85885804D01*
X192030505Y-85909008D01*
X192022447Y-85931530D01*
X192012219Y-85953154D01*
X191999922Y-85973671D01*
X191985672Y-85992884D01*
X191969608Y-86010608D01*
X191951884Y-86026672D01*
X191932671Y-86040922D01*
X191912154Y-86053219D01*
X191890530Y-86063447D01*
X191868008Y-86071505D01*
X191844804Y-86077317D01*
X191821143Y-86080827D01*
X191797251Y-86082001D01*
X191309751Y-86082001D01*
X191285859Y-86080827D01*
X191262198Y-86077317D01*
X191238994Y-86071505D01*
X191216472Y-86063447D01*
X191194848Y-86053219D01*
X191174331Y-86040922D01*
X191155118Y-86026672D01*
X191137394Y-86010608D01*
X191121330Y-85992884D01*
X191107080Y-85973671D01*
X191094783Y-85953154D01*
X191084555Y-85931530D01*
X191076497Y-85909008D01*
X191070685Y-85885804D01*
X191067175Y-85862143D01*
X191066001Y-85838251D01*
X191066001Y-84925751D01*
X191067175Y-84901859D01*
X191070685Y-84878198D01*
X191076497Y-84854994D01*
X191084555Y-84832472D01*
X191094783Y-84810848D01*
X191107080Y-84790331D01*
X191121330Y-84771118D01*
X191137394Y-84753394D01*
X191155118Y-84737330D01*
X191174331Y-84723080D01*
X191194848Y-84710783D01*
X191216472Y-84700555D01*
X191238994Y-84692497D01*
X191262198Y-84686685D01*
X191285859Y-84683175D01*
X191309751Y-84682001D01*
X191797251Y-84682001D01*
X191821143Y-84683175D01*
X191821143Y-84683175D01*
G37*
D11*
X191553501Y-85382001D03*
D10*
G36*
X189946143Y-84683175D02*
X189969804Y-84686685D01*
X189993008Y-84692497D01*
X190015530Y-84700555D01*
X190037154Y-84710783D01*
X190057671Y-84723080D01*
X190076884Y-84737330D01*
X190094608Y-84753394D01*
X190110672Y-84771118D01*
X190124922Y-84790331D01*
X190137219Y-84810848D01*
X190147447Y-84832472D01*
X190155505Y-84854994D01*
X190161317Y-84878198D01*
X190164827Y-84901859D01*
X190166001Y-84925751D01*
X190166001Y-85838251D01*
X190164827Y-85862143D01*
X190161317Y-85885804D01*
X190155505Y-85909008D01*
X190147447Y-85931530D01*
X190137219Y-85953154D01*
X190124922Y-85973671D01*
X190110672Y-85992884D01*
X190094608Y-86010608D01*
X190076884Y-86026672D01*
X190057671Y-86040922D01*
X190037154Y-86053219D01*
X190015530Y-86063447D01*
X189993008Y-86071505D01*
X189969804Y-86077317D01*
X189946143Y-86080827D01*
X189922251Y-86082001D01*
X189434751Y-86082001D01*
X189410859Y-86080827D01*
X189387198Y-86077317D01*
X189363994Y-86071505D01*
X189341472Y-86063447D01*
X189319848Y-86053219D01*
X189299331Y-86040922D01*
X189280118Y-86026672D01*
X189262394Y-86010608D01*
X189246330Y-85992884D01*
X189232080Y-85973671D01*
X189219783Y-85953154D01*
X189209555Y-85931530D01*
X189201497Y-85909008D01*
X189195685Y-85885804D01*
X189192175Y-85862143D01*
X189191001Y-85838251D01*
X189191001Y-84925751D01*
X189192175Y-84901859D01*
X189195685Y-84878198D01*
X189201497Y-84854994D01*
X189209555Y-84832472D01*
X189219783Y-84810848D01*
X189232080Y-84790331D01*
X189246330Y-84771118D01*
X189262394Y-84753394D01*
X189280118Y-84737330D01*
X189299331Y-84723080D01*
X189319848Y-84710783D01*
X189341472Y-84700555D01*
X189363994Y-84692497D01*
X189387198Y-84686685D01*
X189410859Y-84683175D01*
X189434751Y-84682001D01*
X189922251Y-84682001D01*
X189946143Y-84683175D01*
X189946143Y-84683175D01*
G37*
D11*
X189678501Y-85382001D03*
G04 #@! TD*
D19*
G04 #@! TO.C,SW1*
X223293500Y-66632000D03*
X218793500Y-66632000D03*
X218793500Y-74592000D03*
X223293500Y-74592000D03*
G04 #@! TD*
G04 #@! TO.C,SW2*
X211038000Y-96245500D03*
X206538000Y-96245500D03*
X206538000Y-88285500D03*
X211038000Y-88285500D03*
G04 #@! TD*
D20*
G04 #@! TO.C,U1*
X183111500Y-75510500D03*
X183761500Y-75510500D03*
X184411500Y-75510500D03*
X185061500Y-75510500D03*
X185061500Y-73460500D03*
X184411500Y-73460500D03*
X183761500Y-73460500D03*
X183111500Y-73460500D03*
G04 #@! TD*
D21*
G04 #@! TO.C,U2*
X200803000Y-65602500D03*
D22*
X193303000Y-58102500D03*
X193303000Y-59372500D03*
X193303000Y-60642500D03*
X193303000Y-61912500D03*
X193303000Y-63182500D03*
X193303000Y-64452500D03*
X193303000Y-65722500D03*
X193303000Y-66992500D03*
X193303000Y-68262500D03*
X193303000Y-69532500D03*
X193303000Y-70802500D03*
X193303000Y-72072500D03*
X193303000Y-73342500D03*
X193303000Y-74612500D03*
D23*
X196088000Y-75612500D03*
X197358000Y-75612500D03*
X198628000Y-75612500D03*
X199898000Y-75612500D03*
X201168000Y-75612500D03*
X202438000Y-75612500D03*
X203708000Y-75612500D03*
X204978000Y-75612500D03*
X206248000Y-75612500D03*
X207518000Y-75612500D03*
D22*
X210303000Y-74612500D03*
X210303000Y-73342500D03*
X210303000Y-72072500D03*
X210303000Y-70802500D03*
X210303000Y-69532500D03*
X210303000Y-68262500D03*
X210303000Y-66992500D03*
X210303000Y-65722500D03*
X210303000Y-64452500D03*
X210303000Y-63182500D03*
X210303000Y-61912500D03*
X210303000Y-60642500D03*
X210303000Y-59372500D03*
X210303000Y-58102500D03*
G04 #@! TD*
D24*
G04 #@! TO.C,U3*
X179387500Y-86004000D03*
D25*
X179387500Y-92304000D03*
X181687500Y-92304000D03*
X177087500Y-92304000D03*
G04 #@! TD*
D10*
G04 #@! TO.C,U4*
G36*
X220278505Y-98013204D02*
X220302773Y-98016804D01*
X220326572Y-98022765D01*
X220349671Y-98031030D01*
X220371850Y-98041520D01*
X220392893Y-98054132D01*
X220412599Y-98068747D01*
X220430777Y-98085223D01*
X220447253Y-98103401D01*
X220461868Y-98123107D01*
X220474480Y-98144150D01*
X220484970Y-98166329D01*
X220493235Y-98189428D01*
X220499196Y-98213227D01*
X220502796Y-98237495D01*
X220504000Y-98261999D01*
X220504000Y-98812001D01*
X220502796Y-98836505D01*
X220499196Y-98860773D01*
X220493235Y-98884572D01*
X220484970Y-98907671D01*
X220474480Y-98929850D01*
X220461868Y-98950893D01*
X220447253Y-98970599D01*
X220430777Y-98988777D01*
X220412599Y-99005253D01*
X220392893Y-99019868D01*
X220371850Y-99032480D01*
X220349671Y-99042970D01*
X220326572Y-99051235D01*
X220302773Y-99057196D01*
X220278505Y-99060796D01*
X220254001Y-99062000D01*
X219703999Y-99062000D01*
X219679495Y-99060796D01*
X219655227Y-99057196D01*
X219631428Y-99051235D01*
X219608329Y-99042970D01*
X219586150Y-99032480D01*
X219565107Y-99019868D01*
X219545401Y-99005253D01*
X219527223Y-98988777D01*
X219510747Y-98970599D01*
X219496132Y-98950893D01*
X219483520Y-98929850D01*
X219473030Y-98907671D01*
X219464765Y-98884572D01*
X219458804Y-98860773D01*
X219455204Y-98836505D01*
X219454000Y-98812001D01*
X219454000Y-98261999D01*
X219455204Y-98237495D01*
X219458804Y-98213227D01*
X219464765Y-98189428D01*
X219473030Y-98166329D01*
X219483520Y-98144150D01*
X219496132Y-98123107D01*
X219510747Y-98103401D01*
X219527223Y-98085223D01*
X219545401Y-98068747D01*
X219565107Y-98054132D01*
X219586150Y-98041520D01*
X219608329Y-98031030D01*
X219631428Y-98022765D01*
X219655227Y-98016804D01*
X219679495Y-98013204D01*
X219703999Y-98012000D01*
X220254001Y-98012000D01*
X220278505Y-98013204D01*
X220278505Y-98013204D01*
G37*
D26*
X219979000Y-98537000D03*
D10*
G36*
X218978505Y-98013204D02*
X219002773Y-98016804D01*
X219026572Y-98022765D01*
X219049671Y-98031030D01*
X219071850Y-98041520D01*
X219092893Y-98054132D01*
X219112599Y-98068747D01*
X219130777Y-98085223D01*
X219147253Y-98103401D01*
X219161868Y-98123107D01*
X219174480Y-98144150D01*
X219184970Y-98166329D01*
X219193235Y-98189428D01*
X219199196Y-98213227D01*
X219202796Y-98237495D01*
X219204000Y-98261999D01*
X219204000Y-98812001D01*
X219202796Y-98836505D01*
X219199196Y-98860773D01*
X219193235Y-98884572D01*
X219184970Y-98907671D01*
X219174480Y-98929850D01*
X219161868Y-98950893D01*
X219147253Y-98970599D01*
X219130777Y-98988777D01*
X219112599Y-99005253D01*
X219092893Y-99019868D01*
X219071850Y-99032480D01*
X219049671Y-99042970D01*
X219026572Y-99051235D01*
X219002773Y-99057196D01*
X218978505Y-99060796D01*
X218954001Y-99062000D01*
X218403999Y-99062000D01*
X218379495Y-99060796D01*
X218355227Y-99057196D01*
X218331428Y-99051235D01*
X218308329Y-99042970D01*
X218286150Y-99032480D01*
X218265107Y-99019868D01*
X218245401Y-99005253D01*
X218227223Y-98988777D01*
X218210747Y-98970599D01*
X218196132Y-98950893D01*
X218183520Y-98929850D01*
X218173030Y-98907671D01*
X218164765Y-98884572D01*
X218158804Y-98860773D01*
X218155204Y-98836505D01*
X218154000Y-98812001D01*
X218154000Y-98261999D01*
X218155204Y-98237495D01*
X218158804Y-98213227D01*
X218164765Y-98189428D01*
X218173030Y-98166329D01*
X218183520Y-98144150D01*
X218196132Y-98123107D01*
X218210747Y-98103401D01*
X218227223Y-98085223D01*
X218245401Y-98068747D01*
X218265107Y-98054132D01*
X218286150Y-98041520D01*
X218308329Y-98031030D01*
X218331428Y-98022765D01*
X218355227Y-98016804D01*
X218379495Y-98013204D01*
X218403999Y-98012000D01*
X218954001Y-98012000D01*
X218978505Y-98013204D01*
X218978505Y-98013204D01*
G37*
D26*
X218679000Y-98537000D03*
D10*
G36*
X220278505Y-99313204D02*
X220302773Y-99316804D01*
X220326572Y-99322765D01*
X220349671Y-99331030D01*
X220371850Y-99341520D01*
X220392893Y-99354132D01*
X220412599Y-99368747D01*
X220430777Y-99385223D01*
X220447253Y-99403401D01*
X220461868Y-99423107D01*
X220474480Y-99444150D01*
X220484970Y-99466329D01*
X220493235Y-99489428D01*
X220499196Y-99513227D01*
X220502796Y-99537495D01*
X220504000Y-99561999D01*
X220504000Y-100112001D01*
X220502796Y-100136505D01*
X220499196Y-100160773D01*
X220493235Y-100184572D01*
X220484970Y-100207671D01*
X220474480Y-100229850D01*
X220461868Y-100250893D01*
X220447253Y-100270599D01*
X220430777Y-100288777D01*
X220412599Y-100305253D01*
X220392893Y-100319868D01*
X220371850Y-100332480D01*
X220349671Y-100342970D01*
X220326572Y-100351235D01*
X220302773Y-100357196D01*
X220278505Y-100360796D01*
X220254001Y-100362000D01*
X219703999Y-100362000D01*
X219679495Y-100360796D01*
X219655227Y-100357196D01*
X219631428Y-100351235D01*
X219608329Y-100342970D01*
X219586150Y-100332480D01*
X219565107Y-100319868D01*
X219545401Y-100305253D01*
X219527223Y-100288777D01*
X219510747Y-100270599D01*
X219496132Y-100250893D01*
X219483520Y-100229850D01*
X219473030Y-100207671D01*
X219464765Y-100184572D01*
X219458804Y-100160773D01*
X219455204Y-100136505D01*
X219454000Y-100112001D01*
X219454000Y-99561999D01*
X219455204Y-99537495D01*
X219458804Y-99513227D01*
X219464765Y-99489428D01*
X219473030Y-99466329D01*
X219483520Y-99444150D01*
X219496132Y-99423107D01*
X219510747Y-99403401D01*
X219527223Y-99385223D01*
X219545401Y-99368747D01*
X219565107Y-99354132D01*
X219586150Y-99341520D01*
X219608329Y-99331030D01*
X219631428Y-99322765D01*
X219655227Y-99316804D01*
X219679495Y-99313204D01*
X219703999Y-99312000D01*
X220254001Y-99312000D01*
X220278505Y-99313204D01*
X220278505Y-99313204D01*
G37*
D26*
X219979000Y-99837000D03*
D10*
G36*
X218978505Y-99313204D02*
X219002773Y-99316804D01*
X219026572Y-99322765D01*
X219049671Y-99331030D01*
X219071850Y-99341520D01*
X219092893Y-99354132D01*
X219112599Y-99368747D01*
X219130777Y-99385223D01*
X219147253Y-99403401D01*
X219161868Y-99423107D01*
X219174480Y-99444150D01*
X219184970Y-99466329D01*
X219193235Y-99489428D01*
X219199196Y-99513227D01*
X219202796Y-99537495D01*
X219204000Y-99561999D01*
X219204000Y-100112001D01*
X219202796Y-100136505D01*
X219199196Y-100160773D01*
X219193235Y-100184572D01*
X219184970Y-100207671D01*
X219174480Y-100229850D01*
X219161868Y-100250893D01*
X219147253Y-100270599D01*
X219130777Y-100288777D01*
X219112599Y-100305253D01*
X219092893Y-100319868D01*
X219071850Y-100332480D01*
X219049671Y-100342970D01*
X219026572Y-100351235D01*
X219002773Y-100357196D01*
X218978505Y-100360796D01*
X218954001Y-100362000D01*
X218403999Y-100362000D01*
X218379495Y-100360796D01*
X218355227Y-100357196D01*
X218331428Y-100351235D01*
X218308329Y-100342970D01*
X218286150Y-100332480D01*
X218265107Y-100319868D01*
X218245401Y-100305253D01*
X218227223Y-100288777D01*
X218210747Y-100270599D01*
X218196132Y-100250893D01*
X218183520Y-100229850D01*
X218173030Y-100207671D01*
X218164765Y-100184572D01*
X218158804Y-100160773D01*
X218155204Y-100136505D01*
X218154000Y-100112001D01*
X218154000Y-99561999D01*
X218155204Y-99537495D01*
X218158804Y-99513227D01*
X218164765Y-99489428D01*
X218173030Y-99466329D01*
X218183520Y-99444150D01*
X218196132Y-99423107D01*
X218210747Y-99403401D01*
X218227223Y-99385223D01*
X218245401Y-99368747D01*
X218265107Y-99354132D01*
X218286150Y-99341520D01*
X218308329Y-99331030D01*
X218331428Y-99322765D01*
X218355227Y-99316804D01*
X218379495Y-99313204D01*
X218403999Y-99312000D01*
X218954001Y-99312000D01*
X218978505Y-99313204D01*
X218978505Y-99313204D01*
G37*
D26*
X218679000Y-99837000D03*
D10*
G36*
X220647626Y-96837301D02*
X220653693Y-96838201D01*
X220659643Y-96839691D01*
X220665418Y-96841758D01*
X220670962Y-96844380D01*
X220676223Y-96847533D01*
X220681150Y-96851187D01*
X220685694Y-96855306D01*
X220689813Y-96859850D01*
X220693467Y-96864777D01*
X220696620Y-96870038D01*
X220699242Y-96875582D01*
X220701309Y-96881357D01*
X220702799Y-96887307D01*
X220703699Y-96893374D01*
X220704000Y-96899500D01*
X220704000Y-97599500D01*
X220703699Y-97605626D01*
X220702799Y-97611693D01*
X220701309Y-97617643D01*
X220699242Y-97623418D01*
X220696620Y-97628962D01*
X220693467Y-97634223D01*
X220689813Y-97639150D01*
X220685694Y-97643694D01*
X220681150Y-97647813D01*
X220676223Y-97651467D01*
X220670962Y-97654620D01*
X220665418Y-97657242D01*
X220659643Y-97659309D01*
X220653693Y-97660799D01*
X220647626Y-97661699D01*
X220641500Y-97662000D01*
X220516500Y-97662000D01*
X220510374Y-97661699D01*
X220504307Y-97660799D01*
X220498357Y-97659309D01*
X220492582Y-97657242D01*
X220487038Y-97654620D01*
X220481777Y-97651467D01*
X220476850Y-97647813D01*
X220472306Y-97643694D01*
X220468187Y-97639150D01*
X220464533Y-97634223D01*
X220461380Y-97628962D01*
X220458758Y-97623418D01*
X220456691Y-97617643D01*
X220455201Y-97611693D01*
X220454301Y-97605626D01*
X220454000Y-97599500D01*
X220454000Y-96899500D01*
X220454301Y-96893374D01*
X220455201Y-96887307D01*
X220456691Y-96881357D01*
X220458758Y-96875582D01*
X220461380Y-96870038D01*
X220464533Y-96864777D01*
X220468187Y-96859850D01*
X220472306Y-96855306D01*
X220476850Y-96851187D01*
X220481777Y-96847533D01*
X220487038Y-96844380D01*
X220492582Y-96841758D01*
X220498357Y-96839691D01*
X220504307Y-96838201D01*
X220510374Y-96837301D01*
X220516500Y-96837000D01*
X220641500Y-96837000D01*
X220647626Y-96837301D01*
X220647626Y-96837301D01*
G37*
D27*
X220579000Y-97249500D03*
D10*
G36*
X220147626Y-96837301D02*
X220153693Y-96838201D01*
X220159643Y-96839691D01*
X220165418Y-96841758D01*
X220170962Y-96844380D01*
X220176223Y-96847533D01*
X220181150Y-96851187D01*
X220185694Y-96855306D01*
X220189813Y-96859850D01*
X220193467Y-96864777D01*
X220196620Y-96870038D01*
X220199242Y-96875582D01*
X220201309Y-96881357D01*
X220202799Y-96887307D01*
X220203699Y-96893374D01*
X220204000Y-96899500D01*
X220204000Y-97599500D01*
X220203699Y-97605626D01*
X220202799Y-97611693D01*
X220201309Y-97617643D01*
X220199242Y-97623418D01*
X220196620Y-97628962D01*
X220193467Y-97634223D01*
X220189813Y-97639150D01*
X220185694Y-97643694D01*
X220181150Y-97647813D01*
X220176223Y-97651467D01*
X220170962Y-97654620D01*
X220165418Y-97657242D01*
X220159643Y-97659309D01*
X220153693Y-97660799D01*
X220147626Y-97661699D01*
X220141500Y-97662000D01*
X220016500Y-97662000D01*
X220010374Y-97661699D01*
X220004307Y-97660799D01*
X219998357Y-97659309D01*
X219992582Y-97657242D01*
X219987038Y-97654620D01*
X219981777Y-97651467D01*
X219976850Y-97647813D01*
X219972306Y-97643694D01*
X219968187Y-97639150D01*
X219964533Y-97634223D01*
X219961380Y-97628962D01*
X219958758Y-97623418D01*
X219956691Y-97617643D01*
X219955201Y-97611693D01*
X219954301Y-97605626D01*
X219954000Y-97599500D01*
X219954000Y-96899500D01*
X219954301Y-96893374D01*
X219955201Y-96887307D01*
X219956691Y-96881357D01*
X219958758Y-96875582D01*
X219961380Y-96870038D01*
X219964533Y-96864777D01*
X219968187Y-96859850D01*
X219972306Y-96855306D01*
X219976850Y-96851187D01*
X219981777Y-96847533D01*
X219987038Y-96844380D01*
X219992582Y-96841758D01*
X219998357Y-96839691D01*
X220004307Y-96838201D01*
X220010374Y-96837301D01*
X220016500Y-96837000D01*
X220141500Y-96837000D01*
X220147626Y-96837301D01*
X220147626Y-96837301D01*
G37*
D27*
X220079000Y-97249500D03*
D10*
G36*
X219647626Y-96837301D02*
X219653693Y-96838201D01*
X219659643Y-96839691D01*
X219665418Y-96841758D01*
X219670962Y-96844380D01*
X219676223Y-96847533D01*
X219681150Y-96851187D01*
X219685694Y-96855306D01*
X219689813Y-96859850D01*
X219693467Y-96864777D01*
X219696620Y-96870038D01*
X219699242Y-96875582D01*
X219701309Y-96881357D01*
X219702799Y-96887307D01*
X219703699Y-96893374D01*
X219704000Y-96899500D01*
X219704000Y-97599500D01*
X219703699Y-97605626D01*
X219702799Y-97611693D01*
X219701309Y-97617643D01*
X219699242Y-97623418D01*
X219696620Y-97628962D01*
X219693467Y-97634223D01*
X219689813Y-97639150D01*
X219685694Y-97643694D01*
X219681150Y-97647813D01*
X219676223Y-97651467D01*
X219670962Y-97654620D01*
X219665418Y-97657242D01*
X219659643Y-97659309D01*
X219653693Y-97660799D01*
X219647626Y-97661699D01*
X219641500Y-97662000D01*
X219516500Y-97662000D01*
X219510374Y-97661699D01*
X219504307Y-97660799D01*
X219498357Y-97659309D01*
X219492582Y-97657242D01*
X219487038Y-97654620D01*
X219481777Y-97651467D01*
X219476850Y-97647813D01*
X219472306Y-97643694D01*
X219468187Y-97639150D01*
X219464533Y-97634223D01*
X219461380Y-97628962D01*
X219458758Y-97623418D01*
X219456691Y-97617643D01*
X219455201Y-97611693D01*
X219454301Y-97605626D01*
X219454000Y-97599500D01*
X219454000Y-96899500D01*
X219454301Y-96893374D01*
X219455201Y-96887307D01*
X219456691Y-96881357D01*
X219458758Y-96875582D01*
X219461380Y-96870038D01*
X219464533Y-96864777D01*
X219468187Y-96859850D01*
X219472306Y-96855306D01*
X219476850Y-96851187D01*
X219481777Y-96847533D01*
X219487038Y-96844380D01*
X219492582Y-96841758D01*
X219498357Y-96839691D01*
X219504307Y-96838201D01*
X219510374Y-96837301D01*
X219516500Y-96837000D01*
X219641500Y-96837000D01*
X219647626Y-96837301D01*
X219647626Y-96837301D01*
G37*
D27*
X219579000Y-97249500D03*
D10*
G36*
X219147626Y-96837301D02*
X219153693Y-96838201D01*
X219159643Y-96839691D01*
X219165418Y-96841758D01*
X219170962Y-96844380D01*
X219176223Y-96847533D01*
X219181150Y-96851187D01*
X219185694Y-96855306D01*
X219189813Y-96859850D01*
X219193467Y-96864777D01*
X219196620Y-96870038D01*
X219199242Y-96875582D01*
X219201309Y-96881357D01*
X219202799Y-96887307D01*
X219203699Y-96893374D01*
X219204000Y-96899500D01*
X219204000Y-97599500D01*
X219203699Y-97605626D01*
X219202799Y-97611693D01*
X219201309Y-97617643D01*
X219199242Y-97623418D01*
X219196620Y-97628962D01*
X219193467Y-97634223D01*
X219189813Y-97639150D01*
X219185694Y-97643694D01*
X219181150Y-97647813D01*
X219176223Y-97651467D01*
X219170962Y-97654620D01*
X219165418Y-97657242D01*
X219159643Y-97659309D01*
X219153693Y-97660799D01*
X219147626Y-97661699D01*
X219141500Y-97662000D01*
X219016500Y-97662000D01*
X219010374Y-97661699D01*
X219004307Y-97660799D01*
X218998357Y-97659309D01*
X218992582Y-97657242D01*
X218987038Y-97654620D01*
X218981777Y-97651467D01*
X218976850Y-97647813D01*
X218972306Y-97643694D01*
X218968187Y-97639150D01*
X218964533Y-97634223D01*
X218961380Y-97628962D01*
X218958758Y-97623418D01*
X218956691Y-97617643D01*
X218955201Y-97611693D01*
X218954301Y-97605626D01*
X218954000Y-97599500D01*
X218954000Y-96899500D01*
X218954301Y-96893374D01*
X218955201Y-96887307D01*
X218956691Y-96881357D01*
X218958758Y-96875582D01*
X218961380Y-96870038D01*
X218964533Y-96864777D01*
X218968187Y-96859850D01*
X218972306Y-96855306D01*
X218976850Y-96851187D01*
X218981777Y-96847533D01*
X218987038Y-96844380D01*
X218992582Y-96841758D01*
X218998357Y-96839691D01*
X219004307Y-96838201D01*
X219010374Y-96837301D01*
X219016500Y-96837000D01*
X219141500Y-96837000D01*
X219147626Y-96837301D01*
X219147626Y-96837301D01*
G37*
D27*
X219079000Y-97249500D03*
D10*
G36*
X218647626Y-96837301D02*
X218653693Y-96838201D01*
X218659643Y-96839691D01*
X218665418Y-96841758D01*
X218670962Y-96844380D01*
X218676223Y-96847533D01*
X218681150Y-96851187D01*
X218685694Y-96855306D01*
X218689813Y-96859850D01*
X218693467Y-96864777D01*
X218696620Y-96870038D01*
X218699242Y-96875582D01*
X218701309Y-96881357D01*
X218702799Y-96887307D01*
X218703699Y-96893374D01*
X218704000Y-96899500D01*
X218704000Y-97599500D01*
X218703699Y-97605626D01*
X218702799Y-97611693D01*
X218701309Y-97617643D01*
X218699242Y-97623418D01*
X218696620Y-97628962D01*
X218693467Y-97634223D01*
X218689813Y-97639150D01*
X218685694Y-97643694D01*
X218681150Y-97647813D01*
X218676223Y-97651467D01*
X218670962Y-97654620D01*
X218665418Y-97657242D01*
X218659643Y-97659309D01*
X218653693Y-97660799D01*
X218647626Y-97661699D01*
X218641500Y-97662000D01*
X218516500Y-97662000D01*
X218510374Y-97661699D01*
X218504307Y-97660799D01*
X218498357Y-97659309D01*
X218492582Y-97657242D01*
X218487038Y-97654620D01*
X218481777Y-97651467D01*
X218476850Y-97647813D01*
X218472306Y-97643694D01*
X218468187Y-97639150D01*
X218464533Y-97634223D01*
X218461380Y-97628962D01*
X218458758Y-97623418D01*
X218456691Y-97617643D01*
X218455201Y-97611693D01*
X218454301Y-97605626D01*
X218454000Y-97599500D01*
X218454000Y-96899500D01*
X218454301Y-96893374D01*
X218455201Y-96887307D01*
X218456691Y-96881357D01*
X218458758Y-96875582D01*
X218461380Y-96870038D01*
X218464533Y-96864777D01*
X218468187Y-96859850D01*
X218472306Y-96855306D01*
X218476850Y-96851187D01*
X218481777Y-96847533D01*
X218487038Y-96844380D01*
X218492582Y-96841758D01*
X218498357Y-96839691D01*
X218504307Y-96838201D01*
X218510374Y-96837301D01*
X218516500Y-96837000D01*
X218641500Y-96837000D01*
X218647626Y-96837301D01*
X218647626Y-96837301D01*
G37*
D27*
X218579000Y-97249500D03*
D10*
G36*
X218147626Y-96837301D02*
X218153693Y-96838201D01*
X218159643Y-96839691D01*
X218165418Y-96841758D01*
X218170962Y-96844380D01*
X218176223Y-96847533D01*
X218181150Y-96851187D01*
X218185694Y-96855306D01*
X218189813Y-96859850D01*
X218193467Y-96864777D01*
X218196620Y-96870038D01*
X218199242Y-96875582D01*
X218201309Y-96881357D01*
X218202799Y-96887307D01*
X218203699Y-96893374D01*
X218204000Y-96899500D01*
X218204000Y-97599500D01*
X218203699Y-97605626D01*
X218202799Y-97611693D01*
X218201309Y-97617643D01*
X218199242Y-97623418D01*
X218196620Y-97628962D01*
X218193467Y-97634223D01*
X218189813Y-97639150D01*
X218185694Y-97643694D01*
X218181150Y-97647813D01*
X218176223Y-97651467D01*
X218170962Y-97654620D01*
X218165418Y-97657242D01*
X218159643Y-97659309D01*
X218153693Y-97660799D01*
X218147626Y-97661699D01*
X218141500Y-97662000D01*
X218016500Y-97662000D01*
X218010374Y-97661699D01*
X218004307Y-97660799D01*
X217998357Y-97659309D01*
X217992582Y-97657242D01*
X217987038Y-97654620D01*
X217981777Y-97651467D01*
X217976850Y-97647813D01*
X217972306Y-97643694D01*
X217968187Y-97639150D01*
X217964533Y-97634223D01*
X217961380Y-97628962D01*
X217958758Y-97623418D01*
X217956691Y-97617643D01*
X217955201Y-97611693D01*
X217954301Y-97605626D01*
X217954000Y-97599500D01*
X217954000Y-96899500D01*
X217954301Y-96893374D01*
X217955201Y-96887307D01*
X217956691Y-96881357D01*
X217958758Y-96875582D01*
X217961380Y-96870038D01*
X217964533Y-96864777D01*
X217968187Y-96859850D01*
X217972306Y-96855306D01*
X217976850Y-96851187D01*
X217981777Y-96847533D01*
X217987038Y-96844380D01*
X217992582Y-96841758D01*
X217998357Y-96839691D01*
X218004307Y-96838201D01*
X218010374Y-96837301D01*
X218016500Y-96837000D01*
X218141500Y-96837000D01*
X218147626Y-96837301D01*
X218147626Y-96837301D01*
G37*
D27*
X218079000Y-97249500D03*
D10*
G36*
X217747626Y-97812301D02*
X217753693Y-97813201D01*
X217759643Y-97814691D01*
X217765418Y-97816758D01*
X217770962Y-97819380D01*
X217776223Y-97822533D01*
X217781150Y-97826187D01*
X217785694Y-97830306D01*
X217789813Y-97834850D01*
X217793467Y-97839777D01*
X217796620Y-97845038D01*
X217799242Y-97850582D01*
X217801309Y-97856357D01*
X217802799Y-97862307D01*
X217803699Y-97868374D01*
X217804000Y-97874500D01*
X217804000Y-97999500D01*
X217803699Y-98005626D01*
X217802799Y-98011693D01*
X217801309Y-98017643D01*
X217799242Y-98023418D01*
X217796620Y-98028962D01*
X217793467Y-98034223D01*
X217789813Y-98039150D01*
X217785694Y-98043694D01*
X217781150Y-98047813D01*
X217776223Y-98051467D01*
X217770962Y-98054620D01*
X217765418Y-98057242D01*
X217759643Y-98059309D01*
X217753693Y-98060799D01*
X217747626Y-98061699D01*
X217741500Y-98062000D01*
X217041500Y-98062000D01*
X217035374Y-98061699D01*
X217029307Y-98060799D01*
X217023357Y-98059309D01*
X217017582Y-98057242D01*
X217012038Y-98054620D01*
X217006777Y-98051467D01*
X217001850Y-98047813D01*
X216997306Y-98043694D01*
X216993187Y-98039150D01*
X216989533Y-98034223D01*
X216986380Y-98028962D01*
X216983758Y-98023418D01*
X216981691Y-98017643D01*
X216980201Y-98011693D01*
X216979301Y-98005626D01*
X216979000Y-97999500D01*
X216979000Y-97874500D01*
X216979301Y-97868374D01*
X216980201Y-97862307D01*
X216981691Y-97856357D01*
X216983758Y-97850582D01*
X216986380Y-97845038D01*
X216989533Y-97839777D01*
X216993187Y-97834850D01*
X216997306Y-97830306D01*
X217001850Y-97826187D01*
X217006777Y-97822533D01*
X217012038Y-97819380D01*
X217017582Y-97816758D01*
X217023357Y-97814691D01*
X217029307Y-97813201D01*
X217035374Y-97812301D01*
X217041500Y-97812000D01*
X217741500Y-97812000D01*
X217747626Y-97812301D01*
X217747626Y-97812301D01*
G37*
D27*
X217391500Y-97937000D03*
D10*
G36*
X217747626Y-98312301D02*
X217753693Y-98313201D01*
X217759643Y-98314691D01*
X217765418Y-98316758D01*
X217770962Y-98319380D01*
X217776223Y-98322533D01*
X217781150Y-98326187D01*
X217785694Y-98330306D01*
X217789813Y-98334850D01*
X217793467Y-98339777D01*
X217796620Y-98345038D01*
X217799242Y-98350582D01*
X217801309Y-98356357D01*
X217802799Y-98362307D01*
X217803699Y-98368374D01*
X217804000Y-98374500D01*
X217804000Y-98499500D01*
X217803699Y-98505626D01*
X217802799Y-98511693D01*
X217801309Y-98517643D01*
X217799242Y-98523418D01*
X217796620Y-98528962D01*
X217793467Y-98534223D01*
X217789813Y-98539150D01*
X217785694Y-98543694D01*
X217781150Y-98547813D01*
X217776223Y-98551467D01*
X217770962Y-98554620D01*
X217765418Y-98557242D01*
X217759643Y-98559309D01*
X217753693Y-98560799D01*
X217747626Y-98561699D01*
X217741500Y-98562000D01*
X217041500Y-98562000D01*
X217035374Y-98561699D01*
X217029307Y-98560799D01*
X217023357Y-98559309D01*
X217017582Y-98557242D01*
X217012038Y-98554620D01*
X217006777Y-98551467D01*
X217001850Y-98547813D01*
X216997306Y-98543694D01*
X216993187Y-98539150D01*
X216989533Y-98534223D01*
X216986380Y-98528962D01*
X216983758Y-98523418D01*
X216981691Y-98517643D01*
X216980201Y-98511693D01*
X216979301Y-98505626D01*
X216979000Y-98499500D01*
X216979000Y-98374500D01*
X216979301Y-98368374D01*
X216980201Y-98362307D01*
X216981691Y-98356357D01*
X216983758Y-98350582D01*
X216986380Y-98345038D01*
X216989533Y-98339777D01*
X216993187Y-98334850D01*
X216997306Y-98330306D01*
X217001850Y-98326187D01*
X217006777Y-98322533D01*
X217012038Y-98319380D01*
X217017582Y-98316758D01*
X217023357Y-98314691D01*
X217029307Y-98313201D01*
X217035374Y-98312301D01*
X217041500Y-98312000D01*
X217741500Y-98312000D01*
X217747626Y-98312301D01*
X217747626Y-98312301D01*
G37*
D27*
X217391500Y-98437000D03*
D10*
G36*
X217747626Y-98812301D02*
X217753693Y-98813201D01*
X217759643Y-98814691D01*
X217765418Y-98816758D01*
X217770962Y-98819380D01*
X217776223Y-98822533D01*
X217781150Y-98826187D01*
X217785694Y-98830306D01*
X217789813Y-98834850D01*
X217793467Y-98839777D01*
X217796620Y-98845038D01*
X217799242Y-98850582D01*
X217801309Y-98856357D01*
X217802799Y-98862307D01*
X217803699Y-98868374D01*
X217804000Y-98874500D01*
X217804000Y-98999500D01*
X217803699Y-99005626D01*
X217802799Y-99011693D01*
X217801309Y-99017643D01*
X217799242Y-99023418D01*
X217796620Y-99028962D01*
X217793467Y-99034223D01*
X217789813Y-99039150D01*
X217785694Y-99043694D01*
X217781150Y-99047813D01*
X217776223Y-99051467D01*
X217770962Y-99054620D01*
X217765418Y-99057242D01*
X217759643Y-99059309D01*
X217753693Y-99060799D01*
X217747626Y-99061699D01*
X217741500Y-99062000D01*
X217041500Y-99062000D01*
X217035374Y-99061699D01*
X217029307Y-99060799D01*
X217023357Y-99059309D01*
X217017582Y-99057242D01*
X217012038Y-99054620D01*
X217006777Y-99051467D01*
X217001850Y-99047813D01*
X216997306Y-99043694D01*
X216993187Y-99039150D01*
X216989533Y-99034223D01*
X216986380Y-99028962D01*
X216983758Y-99023418D01*
X216981691Y-99017643D01*
X216980201Y-99011693D01*
X216979301Y-99005626D01*
X216979000Y-98999500D01*
X216979000Y-98874500D01*
X216979301Y-98868374D01*
X216980201Y-98862307D01*
X216981691Y-98856357D01*
X216983758Y-98850582D01*
X216986380Y-98845038D01*
X216989533Y-98839777D01*
X216993187Y-98834850D01*
X216997306Y-98830306D01*
X217001850Y-98826187D01*
X217006777Y-98822533D01*
X217012038Y-98819380D01*
X217017582Y-98816758D01*
X217023357Y-98814691D01*
X217029307Y-98813201D01*
X217035374Y-98812301D01*
X217041500Y-98812000D01*
X217741500Y-98812000D01*
X217747626Y-98812301D01*
X217747626Y-98812301D01*
G37*
D27*
X217391500Y-98937000D03*
D10*
G36*
X217747626Y-99312301D02*
X217753693Y-99313201D01*
X217759643Y-99314691D01*
X217765418Y-99316758D01*
X217770962Y-99319380D01*
X217776223Y-99322533D01*
X217781150Y-99326187D01*
X217785694Y-99330306D01*
X217789813Y-99334850D01*
X217793467Y-99339777D01*
X217796620Y-99345038D01*
X217799242Y-99350582D01*
X217801309Y-99356357D01*
X217802799Y-99362307D01*
X217803699Y-99368374D01*
X217804000Y-99374500D01*
X217804000Y-99499500D01*
X217803699Y-99505626D01*
X217802799Y-99511693D01*
X217801309Y-99517643D01*
X217799242Y-99523418D01*
X217796620Y-99528962D01*
X217793467Y-99534223D01*
X217789813Y-99539150D01*
X217785694Y-99543694D01*
X217781150Y-99547813D01*
X217776223Y-99551467D01*
X217770962Y-99554620D01*
X217765418Y-99557242D01*
X217759643Y-99559309D01*
X217753693Y-99560799D01*
X217747626Y-99561699D01*
X217741500Y-99562000D01*
X217041500Y-99562000D01*
X217035374Y-99561699D01*
X217029307Y-99560799D01*
X217023357Y-99559309D01*
X217017582Y-99557242D01*
X217012038Y-99554620D01*
X217006777Y-99551467D01*
X217001850Y-99547813D01*
X216997306Y-99543694D01*
X216993187Y-99539150D01*
X216989533Y-99534223D01*
X216986380Y-99528962D01*
X216983758Y-99523418D01*
X216981691Y-99517643D01*
X216980201Y-99511693D01*
X216979301Y-99505626D01*
X216979000Y-99499500D01*
X216979000Y-99374500D01*
X216979301Y-99368374D01*
X216980201Y-99362307D01*
X216981691Y-99356357D01*
X216983758Y-99350582D01*
X216986380Y-99345038D01*
X216989533Y-99339777D01*
X216993187Y-99334850D01*
X216997306Y-99330306D01*
X217001850Y-99326187D01*
X217006777Y-99322533D01*
X217012038Y-99319380D01*
X217017582Y-99316758D01*
X217023357Y-99314691D01*
X217029307Y-99313201D01*
X217035374Y-99312301D01*
X217041500Y-99312000D01*
X217741500Y-99312000D01*
X217747626Y-99312301D01*
X217747626Y-99312301D01*
G37*
D27*
X217391500Y-99437000D03*
D10*
G36*
X217747626Y-99812301D02*
X217753693Y-99813201D01*
X217759643Y-99814691D01*
X217765418Y-99816758D01*
X217770962Y-99819380D01*
X217776223Y-99822533D01*
X217781150Y-99826187D01*
X217785694Y-99830306D01*
X217789813Y-99834850D01*
X217793467Y-99839777D01*
X217796620Y-99845038D01*
X217799242Y-99850582D01*
X217801309Y-99856357D01*
X217802799Y-99862307D01*
X217803699Y-99868374D01*
X217804000Y-99874500D01*
X217804000Y-99999500D01*
X217803699Y-100005626D01*
X217802799Y-100011693D01*
X217801309Y-100017643D01*
X217799242Y-100023418D01*
X217796620Y-100028962D01*
X217793467Y-100034223D01*
X217789813Y-100039150D01*
X217785694Y-100043694D01*
X217781150Y-100047813D01*
X217776223Y-100051467D01*
X217770962Y-100054620D01*
X217765418Y-100057242D01*
X217759643Y-100059309D01*
X217753693Y-100060799D01*
X217747626Y-100061699D01*
X217741500Y-100062000D01*
X217041500Y-100062000D01*
X217035374Y-100061699D01*
X217029307Y-100060799D01*
X217023357Y-100059309D01*
X217017582Y-100057242D01*
X217012038Y-100054620D01*
X217006777Y-100051467D01*
X217001850Y-100047813D01*
X216997306Y-100043694D01*
X216993187Y-100039150D01*
X216989533Y-100034223D01*
X216986380Y-100028962D01*
X216983758Y-100023418D01*
X216981691Y-100017643D01*
X216980201Y-100011693D01*
X216979301Y-100005626D01*
X216979000Y-99999500D01*
X216979000Y-99874500D01*
X216979301Y-99868374D01*
X216980201Y-99862307D01*
X216981691Y-99856357D01*
X216983758Y-99850582D01*
X216986380Y-99845038D01*
X216989533Y-99839777D01*
X216993187Y-99834850D01*
X216997306Y-99830306D01*
X217001850Y-99826187D01*
X217006777Y-99822533D01*
X217012038Y-99819380D01*
X217017582Y-99816758D01*
X217023357Y-99814691D01*
X217029307Y-99813201D01*
X217035374Y-99812301D01*
X217041500Y-99812000D01*
X217741500Y-99812000D01*
X217747626Y-99812301D01*
X217747626Y-99812301D01*
G37*
D27*
X217391500Y-99937000D03*
D10*
G36*
X217747626Y-100312301D02*
X217753693Y-100313201D01*
X217759643Y-100314691D01*
X217765418Y-100316758D01*
X217770962Y-100319380D01*
X217776223Y-100322533D01*
X217781150Y-100326187D01*
X217785694Y-100330306D01*
X217789813Y-100334850D01*
X217793467Y-100339777D01*
X217796620Y-100345038D01*
X217799242Y-100350582D01*
X217801309Y-100356357D01*
X217802799Y-100362307D01*
X217803699Y-100368374D01*
X217804000Y-100374500D01*
X217804000Y-100499500D01*
X217803699Y-100505626D01*
X217802799Y-100511693D01*
X217801309Y-100517643D01*
X217799242Y-100523418D01*
X217796620Y-100528962D01*
X217793467Y-100534223D01*
X217789813Y-100539150D01*
X217785694Y-100543694D01*
X217781150Y-100547813D01*
X217776223Y-100551467D01*
X217770962Y-100554620D01*
X217765418Y-100557242D01*
X217759643Y-100559309D01*
X217753693Y-100560799D01*
X217747626Y-100561699D01*
X217741500Y-100562000D01*
X217041500Y-100562000D01*
X217035374Y-100561699D01*
X217029307Y-100560799D01*
X217023357Y-100559309D01*
X217017582Y-100557242D01*
X217012038Y-100554620D01*
X217006777Y-100551467D01*
X217001850Y-100547813D01*
X216997306Y-100543694D01*
X216993187Y-100539150D01*
X216989533Y-100534223D01*
X216986380Y-100528962D01*
X216983758Y-100523418D01*
X216981691Y-100517643D01*
X216980201Y-100511693D01*
X216979301Y-100505626D01*
X216979000Y-100499500D01*
X216979000Y-100374500D01*
X216979301Y-100368374D01*
X216980201Y-100362307D01*
X216981691Y-100356357D01*
X216983758Y-100350582D01*
X216986380Y-100345038D01*
X216989533Y-100339777D01*
X216993187Y-100334850D01*
X216997306Y-100330306D01*
X217001850Y-100326187D01*
X217006777Y-100322533D01*
X217012038Y-100319380D01*
X217017582Y-100316758D01*
X217023357Y-100314691D01*
X217029307Y-100313201D01*
X217035374Y-100312301D01*
X217041500Y-100312000D01*
X217741500Y-100312000D01*
X217747626Y-100312301D01*
X217747626Y-100312301D01*
G37*
D27*
X217391500Y-100437000D03*
D10*
G36*
X218147626Y-100712301D02*
X218153693Y-100713201D01*
X218159643Y-100714691D01*
X218165418Y-100716758D01*
X218170962Y-100719380D01*
X218176223Y-100722533D01*
X218181150Y-100726187D01*
X218185694Y-100730306D01*
X218189813Y-100734850D01*
X218193467Y-100739777D01*
X218196620Y-100745038D01*
X218199242Y-100750582D01*
X218201309Y-100756357D01*
X218202799Y-100762307D01*
X218203699Y-100768374D01*
X218204000Y-100774500D01*
X218204000Y-101474500D01*
X218203699Y-101480626D01*
X218202799Y-101486693D01*
X218201309Y-101492643D01*
X218199242Y-101498418D01*
X218196620Y-101503962D01*
X218193467Y-101509223D01*
X218189813Y-101514150D01*
X218185694Y-101518694D01*
X218181150Y-101522813D01*
X218176223Y-101526467D01*
X218170962Y-101529620D01*
X218165418Y-101532242D01*
X218159643Y-101534309D01*
X218153693Y-101535799D01*
X218147626Y-101536699D01*
X218141500Y-101537000D01*
X218016500Y-101537000D01*
X218010374Y-101536699D01*
X218004307Y-101535799D01*
X217998357Y-101534309D01*
X217992582Y-101532242D01*
X217987038Y-101529620D01*
X217981777Y-101526467D01*
X217976850Y-101522813D01*
X217972306Y-101518694D01*
X217968187Y-101514150D01*
X217964533Y-101509223D01*
X217961380Y-101503962D01*
X217958758Y-101498418D01*
X217956691Y-101492643D01*
X217955201Y-101486693D01*
X217954301Y-101480626D01*
X217954000Y-101474500D01*
X217954000Y-100774500D01*
X217954301Y-100768374D01*
X217955201Y-100762307D01*
X217956691Y-100756357D01*
X217958758Y-100750582D01*
X217961380Y-100745038D01*
X217964533Y-100739777D01*
X217968187Y-100734850D01*
X217972306Y-100730306D01*
X217976850Y-100726187D01*
X217981777Y-100722533D01*
X217987038Y-100719380D01*
X217992582Y-100716758D01*
X217998357Y-100714691D01*
X218004307Y-100713201D01*
X218010374Y-100712301D01*
X218016500Y-100712000D01*
X218141500Y-100712000D01*
X218147626Y-100712301D01*
X218147626Y-100712301D01*
G37*
D27*
X218079000Y-101124500D03*
D10*
G36*
X218647626Y-100712301D02*
X218653693Y-100713201D01*
X218659643Y-100714691D01*
X218665418Y-100716758D01*
X218670962Y-100719380D01*
X218676223Y-100722533D01*
X218681150Y-100726187D01*
X218685694Y-100730306D01*
X218689813Y-100734850D01*
X218693467Y-100739777D01*
X218696620Y-100745038D01*
X218699242Y-100750582D01*
X218701309Y-100756357D01*
X218702799Y-100762307D01*
X218703699Y-100768374D01*
X218704000Y-100774500D01*
X218704000Y-101474500D01*
X218703699Y-101480626D01*
X218702799Y-101486693D01*
X218701309Y-101492643D01*
X218699242Y-101498418D01*
X218696620Y-101503962D01*
X218693467Y-101509223D01*
X218689813Y-101514150D01*
X218685694Y-101518694D01*
X218681150Y-101522813D01*
X218676223Y-101526467D01*
X218670962Y-101529620D01*
X218665418Y-101532242D01*
X218659643Y-101534309D01*
X218653693Y-101535799D01*
X218647626Y-101536699D01*
X218641500Y-101537000D01*
X218516500Y-101537000D01*
X218510374Y-101536699D01*
X218504307Y-101535799D01*
X218498357Y-101534309D01*
X218492582Y-101532242D01*
X218487038Y-101529620D01*
X218481777Y-101526467D01*
X218476850Y-101522813D01*
X218472306Y-101518694D01*
X218468187Y-101514150D01*
X218464533Y-101509223D01*
X218461380Y-101503962D01*
X218458758Y-101498418D01*
X218456691Y-101492643D01*
X218455201Y-101486693D01*
X218454301Y-101480626D01*
X218454000Y-101474500D01*
X218454000Y-100774500D01*
X218454301Y-100768374D01*
X218455201Y-100762307D01*
X218456691Y-100756357D01*
X218458758Y-100750582D01*
X218461380Y-100745038D01*
X218464533Y-100739777D01*
X218468187Y-100734850D01*
X218472306Y-100730306D01*
X218476850Y-100726187D01*
X218481777Y-100722533D01*
X218487038Y-100719380D01*
X218492582Y-100716758D01*
X218498357Y-100714691D01*
X218504307Y-100713201D01*
X218510374Y-100712301D01*
X218516500Y-100712000D01*
X218641500Y-100712000D01*
X218647626Y-100712301D01*
X218647626Y-100712301D01*
G37*
D27*
X218579000Y-101124500D03*
D10*
G36*
X219147626Y-100712301D02*
X219153693Y-100713201D01*
X219159643Y-100714691D01*
X219165418Y-100716758D01*
X219170962Y-100719380D01*
X219176223Y-100722533D01*
X219181150Y-100726187D01*
X219185694Y-100730306D01*
X219189813Y-100734850D01*
X219193467Y-100739777D01*
X219196620Y-100745038D01*
X219199242Y-100750582D01*
X219201309Y-100756357D01*
X219202799Y-100762307D01*
X219203699Y-100768374D01*
X219204000Y-100774500D01*
X219204000Y-101474500D01*
X219203699Y-101480626D01*
X219202799Y-101486693D01*
X219201309Y-101492643D01*
X219199242Y-101498418D01*
X219196620Y-101503962D01*
X219193467Y-101509223D01*
X219189813Y-101514150D01*
X219185694Y-101518694D01*
X219181150Y-101522813D01*
X219176223Y-101526467D01*
X219170962Y-101529620D01*
X219165418Y-101532242D01*
X219159643Y-101534309D01*
X219153693Y-101535799D01*
X219147626Y-101536699D01*
X219141500Y-101537000D01*
X219016500Y-101537000D01*
X219010374Y-101536699D01*
X219004307Y-101535799D01*
X218998357Y-101534309D01*
X218992582Y-101532242D01*
X218987038Y-101529620D01*
X218981777Y-101526467D01*
X218976850Y-101522813D01*
X218972306Y-101518694D01*
X218968187Y-101514150D01*
X218964533Y-101509223D01*
X218961380Y-101503962D01*
X218958758Y-101498418D01*
X218956691Y-101492643D01*
X218955201Y-101486693D01*
X218954301Y-101480626D01*
X218954000Y-101474500D01*
X218954000Y-100774500D01*
X218954301Y-100768374D01*
X218955201Y-100762307D01*
X218956691Y-100756357D01*
X218958758Y-100750582D01*
X218961380Y-100745038D01*
X218964533Y-100739777D01*
X218968187Y-100734850D01*
X218972306Y-100730306D01*
X218976850Y-100726187D01*
X218981777Y-100722533D01*
X218987038Y-100719380D01*
X218992582Y-100716758D01*
X218998357Y-100714691D01*
X219004307Y-100713201D01*
X219010374Y-100712301D01*
X219016500Y-100712000D01*
X219141500Y-100712000D01*
X219147626Y-100712301D01*
X219147626Y-100712301D01*
G37*
D27*
X219079000Y-101124500D03*
D10*
G36*
X219647626Y-100712301D02*
X219653693Y-100713201D01*
X219659643Y-100714691D01*
X219665418Y-100716758D01*
X219670962Y-100719380D01*
X219676223Y-100722533D01*
X219681150Y-100726187D01*
X219685694Y-100730306D01*
X219689813Y-100734850D01*
X219693467Y-100739777D01*
X219696620Y-100745038D01*
X219699242Y-100750582D01*
X219701309Y-100756357D01*
X219702799Y-100762307D01*
X219703699Y-100768374D01*
X219704000Y-100774500D01*
X219704000Y-101474500D01*
X219703699Y-101480626D01*
X219702799Y-101486693D01*
X219701309Y-101492643D01*
X219699242Y-101498418D01*
X219696620Y-101503962D01*
X219693467Y-101509223D01*
X219689813Y-101514150D01*
X219685694Y-101518694D01*
X219681150Y-101522813D01*
X219676223Y-101526467D01*
X219670962Y-101529620D01*
X219665418Y-101532242D01*
X219659643Y-101534309D01*
X219653693Y-101535799D01*
X219647626Y-101536699D01*
X219641500Y-101537000D01*
X219516500Y-101537000D01*
X219510374Y-101536699D01*
X219504307Y-101535799D01*
X219498357Y-101534309D01*
X219492582Y-101532242D01*
X219487038Y-101529620D01*
X219481777Y-101526467D01*
X219476850Y-101522813D01*
X219472306Y-101518694D01*
X219468187Y-101514150D01*
X219464533Y-101509223D01*
X219461380Y-101503962D01*
X219458758Y-101498418D01*
X219456691Y-101492643D01*
X219455201Y-101486693D01*
X219454301Y-101480626D01*
X219454000Y-101474500D01*
X219454000Y-100774500D01*
X219454301Y-100768374D01*
X219455201Y-100762307D01*
X219456691Y-100756357D01*
X219458758Y-100750582D01*
X219461380Y-100745038D01*
X219464533Y-100739777D01*
X219468187Y-100734850D01*
X219472306Y-100730306D01*
X219476850Y-100726187D01*
X219481777Y-100722533D01*
X219487038Y-100719380D01*
X219492582Y-100716758D01*
X219498357Y-100714691D01*
X219504307Y-100713201D01*
X219510374Y-100712301D01*
X219516500Y-100712000D01*
X219641500Y-100712000D01*
X219647626Y-100712301D01*
X219647626Y-100712301D01*
G37*
D27*
X219579000Y-101124500D03*
D10*
G36*
X220147626Y-100712301D02*
X220153693Y-100713201D01*
X220159643Y-100714691D01*
X220165418Y-100716758D01*
X220170962Y-100719380D01*
X220176223Y-100722533D01*
X220181150Y-100726187D01*
X220185694Y-100730306D01*
X220189813Y-100734850D01*
X220193467Y-100739777D01*
X220196620Y-100745038D01*
X220199242Y-100750582D01*
X220201309Y-100756357D01*
X220202799Y-100762307D01*
X220203699Y-100768374D01*
X220204000Y-100774500D01*
X220204000Y-101474500D01*
X220203699Y-101480626D01*
X220202799Y-101486693D01*
X220201309Y-101492643D01*
X220199242Y-101498418D01*
X220196620Y-101503962D01*
X220193467Y-101509223D01*
X220189813Y-101514150D01*
X220185694Y-101518694D01*
X220181150Y-101522813D01*
X220176223Y-101526467D01*
X220170962Y-101529620D01*
X220165418Y-101532242D01*
X220159643Y-101534309D01*
X220153693Y-101535799D01*
X220147626Y-101536699D01*
X220141500Y-101537000D01*
X220016500Y-101537000D01*
X220010374Y-101536699D01*
X220004307Y-101535799D01*
X219998357Y-101534309D01*
X219992582Y-101532242D01*
X219987038Y-101529620D01*
X219981777Y-101526467D01*
X219976850Y-101522813D01*
X219972306Y-101518694D01*
X219968187Y-101514150D01*
X219964533Y-101509223D01*
X219961380Y-101503962D01*
X219958758Y-101498418D01*
X219956691Y-101492643D01*
X219955201Y-101486693D01*
X219954301Y-101480626D01*
X219954000Y-101474500D01*
X219954000Y-100774500D01*
X219954301Y-100768374D01*
X219955201Y-100762307D01*
X219956691Y-100756357D01*
X219958758Y-100750582D01*
X219961380Y-100745038D01*
X219964533Y-100739777D01*
X219968187Y-100734850D01*
X219972306Y-100730306D01*
X219976850Y-100726187D01*
X219981777Y-100722533D01*
X219987038Y-100719380D01*
X219992582Y-100716758D01*
X219998357Y-100714691D01*
X220004307Y-100713201D01*
X220010374Y-100712301D01*
X220016500Y-100712000D01*
X220141500Y-100712000D01*
X220147626Y-100712301D01*
X220147626Y-100712301D01*
G37*
D27*
X220079000Y-101124500D03*
D10*
G36*
X220647626Y-100712301D02*
X220653693Y-100713201D01*
X220659643Y-100714691D01*
X220665418Y-100716758D01*
X220670962Y-100719380D01*
X220676223Y-100722533D01*
X220681150Y-100726187D01*
X220685694Y-100730306D01*
X220689813Y-100734850D01*
X220693467Y-100739777D01*
X220696620Y-100745038D01*
X220699242Y-100750582D01*
X220701309Y-100756357D01*
X220702799Y-100762307D01*
X220703699Y-100768374D01*
X220704000Y-100774500D01*
X220704000Y-101474500D01*
X220703699Y-101480626D01*
X220702799Y-101486693D01*
X220701309Y-101492643D01*
X220699242Y-101498418D01*
X220696620Y-101503962D01*
X220693467Y-101509223D01*
X220689813Y-101514150D01*
X220685694Y-101518694D01*
X220681150Y-101522813D01*
X220676223Y-101526467D01*
X220670962Y-101529620D01*
X220665418Y-101532242D01*
X220659643Y-101534309D01*
X220653693Y-101535799D01*
X220647626Y-101536699D01*
X220641500Y-101537000D01*
X220516500Y-101537000D01*
X220510374Y-101536699D01*
X220504307Y-101535799D01*
X220498357Y-101534309D01*
X220492582Y-101532242D01*
X220487038Y-101529620D01*
X220481777Y-101526467D01*
X220476850Y-101522813D01*
X220472306Y-101518694D01*
X220468187Y-101514150D01*
X220464533Y-101509223D01*
X220461380Y-101503962D01*
X220458758Y-101498418D01*
X220456691Y-101492643D01*
X220455201Y-101486693D01*
X220454301Y-101480626D01*
X220454000Y-101474500D01*
X220454000Y-100774500D01*
X220454301Y-100768374D01*
X220455201Y-100762307D01*
X220456691Y-100756357D01*
X220458758Y-100750582D01*
X220461380Y-100745038D01*
X220464533Y-100739777D01*
X220468187Y-100734850D01*
X220472306Y-100730306D01*
X220476850Y-100726187D01*
X220481777Y-100722533D01*
X220487038Y-100719380D01*
X220492582Y-100716758D01*
X220498357Y-100714691D01*
X220504307Y-100713201D01*
X220510374Y-100712301D01*
X220516500Y-100712000D01*
X220641500Y-100712000D01*
X220647626Y-100712301D01*
X220647626Y-100712301D01*
G37*
D27*
X220579000Y-101124500D03*
D10*
G36*
X221622626Y-100312301D02*
X221628693Y-100313201D01*
X221634643Y-100314691D01*
X221640418Y-100316758D01*
X221645962Y-100319380D01*
X221651223Y-100322533D01*
X221656150Y-100326187D01*
X221660694Y-100330306D01*
X221664813Y-100334850D01*
X221668467Y-100339777D01*
X221671620Y-100345038D01*
X221674242Y-100350582D01*
X221676309Y-100356357D01*
X221677799Y-100362307D01*
X221678699Y-100368374D01*
X221679000Y-100374500D01*
X221679000Y-100499500D01*
X221678699Y-100505626D01*
X221677799Y-100511693D01*
X221676309Y-100517643D01*
X221674242Y-100523418D01*
X221671620Y-100528962D01*
X221668467Y-100534223D01*
X221664813Y-100539150D01*
X221660694Y-100543694D01*
X221656150Y-100547813D01*
X221651223Y-100551467D01*
X221645962Y-100554620D01*
X221640418Y-100557242D01*
X221634643Y-100559309D01*
X221628693Y-100560799D01*
X221622626Y-100561699D01*
X221616500Y-100562000D01*
X220916500Y-100562000D01*
X220910374Y-100561699D01*
X220904307Y-100560799D01*
X220898357Y-100559309D01*
X220892582Y-100557242D01*
X220887038Y-100554620D01*
X220881777Y-100551467D01*
X220876850Y-100547813D01*
X220872306Y-100543694D01*
X220868187Y-100539150D01*
X220864533Y-100534223D01*
X220861380Y-100528962D01*
X220858758Y-100523418D01*
X220856691Y-100517643D01*
X220855201Y-100511693D01*
X220854301Y-100505626D01*
X220854000Y-100499500D01*
X220854000Y-100374500D01*
X220854301Y-100368374D01*
X220855201Y-100362307D01*
X220856691Y-100356357D01*
X220858758Y-100350582D01*
X220861380Y-100345038D01*
X220864533Y-100339777D01*
X220868187Y-100334850D01*
X220872306Y-100330306D01*
X220876850Y-100326187D01*
X220881777Y-100322533D01*
X220887038Y-100319380D01*
X220892582Y-100316758D01*
X220898357Y-100314691D01*
X220904307Y-100313201D01*
X220910374Y-100312301D01*
X220916500Y-100312000D01*
X221616500Y-100312000D01*
X221622626Y-100312301D01*
X221622626Y-100312301D01*
G37*
D27*
X221266500Y-100437000D03*
D10*
G36*
X221622626Y-99812301D02*
X221628693Y-99813201D01*
X221634643Y-99814691D01*
X221640418Y-99816758D01*
X221645962Y-99819380D01*
X221651223Y-99822533D01*
X221656150Y-99826187D01*
X221660694Y-99830306D01*
X221664813Y-99834850D01*
X221668467Y-99839777D01*
X221671620Y-99845038D01*
X221674242Y-99850582D01*
X221676309Y-99856357D01*
X221677799Y-99862307D01*
X221678699Y-99868374D01*
X221679000Y-99874500D01*
X221679000Y-99999500D01*
X221678699Y-100005626D01*
X221677799Y-100011693D01*
X221676309Y-100017643D01*
X221674242Y-100023418D01*
X221671620Y-100028962D01*
X221668467Y-100034223D01*
X221664813Y-100039150D01*
X221660694Y-100043694D01*
X221656150Y-100047813D01*
X221651223Y-100051467D01*
X221645962Y-100054620D01*
X221640418Y-100057242D01*
X221634643Y-100059309D01*
X221628693Y-100060799D01*
X221622626Y-100061699D01*
X221616500Y-100062000D01*
X220916500Y-100062000D01*
X220910374Y-100061699D01*
X220904307Y-100060799D01*
X220898357Y-100059309D01*
X220892582Y-100057242D01*
X220887038Y-100054620D01*
X220881777Y-100051467D01*
X220876850Y-100047813D01*
X220872306Y-100043694D01*
X220868187Y-100039150D01*
X220864533Y-100034223D01*
X220861380Y-100028962D01*
X220858758Y-100023418D01*
X220856691Y-100017643D01*
X220855201Y-100011693D01*
X220854301Y-100005626D01*
X220854000Y-99999500D01*
X220854000Y-99874500D01*
X220854301Y-99868374D01*
X220855201Y-99862307D01*
X220856691Y-99856357D01*
X220858758Y-99850582D01*
X220861380Y-99845038D01*
X220864533Y-99839777D01*
X220868187Y-99834850D01*
X220872306Y-99830306D01*
X220876850Y-99826187D01*
X220881777Y-99822533D01*
X220887038Y-99819380D01*
X220892582Y-99816758D01*
X220898357Y-99814691D01*
X220904307Y-99813201D01*
X220910374Y-99812301D01*
X220916500Y-99812000D01*
X221616500Y-99812000D01*
X221622626Y-99812301D01*
X221622626Y-99812301D01*
G37*
D27*
X221266500Y-99937000D03*
D10*
G36*
X221622626Y-99312301D02*
X221628693Y-99313201D01*
X221634643Y-99314691D01*
X221640418Y-99316758D01*
X221645962Y-99319380D01*
X221651223Y-99322533D01*
X221656150Y-99326187D01*
X221660694Y-99330306D01*
X221664813Y-99334850D01*
X221668467Y-99339777D01*
X221671620Y-99345038D01*
X221674242Y-99350582D01*
X221676309Y-99356357D01*
X221677799Y-99362307D01*
X221678699Y-99368374D01*
X221679000Y-99374500D01*
X221679000Y-99499500D01*
X221678699Y-99505626D01*
X221677799Y-99511693D01*
X221676309Y-99517643D01*
X221674242Y-99523418D01*
X221671620Y-99528962D01*
X221668467Y-99534223D01*
X221664813Y-99539150D01*
X221660694Y-99543694D01*
X221656150Y-99547813D01*
X221651223Y-99551467D01*
X221645962Y-99554620D01*
X221640418Y-99557242D01*
X221634643Y-99559309D01*
X221628693Y-99560799D01*
X221622626Y-99561699D01*
X221616500Y-99562000D01*
X220916500Y-99562000D01*
X220910374Y-99561699D01*
X220904307Y-99560799D01*
X220898357Y-99559309D01*
X220892582Y-99557242D01*
X220887038Y-99554620D01*
X220881777Y-99551467D01*
X220876850Y-99547813D01*
X220872306Y-99543694D01*
X220868187Y-99539150D01*
X220864533Y-99534223D01*
X220861380Y-99528962D01*
X220858758Y-99523418D01*
X220856691Y-99517643D01*
X220855201Y-99511693D01*
X220854301Y-99505626D01*
X220854000Y-99499500D01*
X220854000Y-99374500D01*
X220854301Y-99368374D01*
X220855201Y-99362307D01*
X220856691Y-99356357D01*
X220858758Y-99350582D01*
X220861380Y-99345038D01*
X220864533Y-99339777D01*
X220868187Y-99334850D01*
X220872306Y-99330306D01*
X220876850Y-99326187D01*
X220881777Y-99322533D01*
X220887038Y-99319380D01*
X220892582Y-99316758D01*
X220898357Y-99314691D01*
X220904307Y-99313201D01*
X220910374Y-99312301D01*
X220916500Y-99312000D01*
X221616500Y-99312000D01*
X221622626Y-99312301D01*
X221622626Y-99312301D01*
G37*
D27*
X221266500Y-99437000D03*
D10*
G36*
X221622626Y-98812301D02*
X221628693Y-98813201D01*
X221634643Y-98814691D01*
X221640418Y-98816758D01*
X221645962Y-98819380D01*
X221651223Y-98822533D01*
X221656150Y-98826187D01*
X221660694Y-98830306D01*
X221664813Y-98834850D01*
X221668467Y-98839777D01*
X221671620Y-98845038D01*
X221674242Y-98850582D01*
X221676309Y-98856357D01*
X221677799Y-98862307D01*
X221678699Y-98868374D01*
X221679000Y-98874500D01*
X221679000Y-98999500D01*
X221678699Y-99005626D01*
X221677799Y-99011693D01*
X221676309Y-99017643D01*
X221674242Y-99023418D01*
X221671620Y-99028962D01*
X221668467Y-99034223D01*
X221664813Y-99039150D01*
X221660694Y-99043694D01*
X221656150Y-99047813D01*
X221651223Y-99051467D01*
X221645962Y-99054620D01*
X221640418Y-99057242D01*
X221634643Y-99059309D01*
X221628693Y-99060799D01*
X221622626Y-99061699D01*
X221616500Y-99062000D01*
X220916500Y-99062000D01*
X220910374Y-99061699D01*
X220904307Y-99060799D01*
X220898357Y-99059309D01*
X220892582Y-99057242D01*
X220887038Y-99054620D01*
X220881777Y-99051467D01*
X220876850Y-99047813D01*
X220872306Y-99043694D01*
X220868187Y-99039150D01*
X220864533Y-99034223D01*
X220861380Y-99028962D01*
X220858758Y-99023418D01*
X220856691Y-99017643D01*
X220855201Y-99011693D01*
X220854301Y-99005626D01*
X220854000Y-98999500D01*
X220854000Y-98874500D01*
X220854301Y-98868374D01*
X220855201Y-98862307D01*
X220856691Y-98856357D01*
X220858758Y-98850582D01*
X220861380Y-98845038D01*
X220864533Y-98839777D01*
X220868187Y-98834850D01*
X220872306Y-98830306D01*
X220876850Y-98826187D01*
X220881777Y-98822533D01*
X220887038Y-98819380D01*
X220892582Y-98816758D01*
X220898357Y-98814691D01*
X220904307Y-98813201D01*
X220910374Y-98812301D01*
X220916500Y-98812000D01*
X221616500Y-98812000D01*
X221622626Y-98812301D01*
X221622626Y-98812301D01*
G37*
D27*
X221266500Y-98937000D03*
D10*
G36*
X221622626Y-98312301D02*
X221628693Y-98313201D01*
X221634643Y-98314691D01*
X221640418Y-98316758D01*
X221645962Y-98319380D01*
X221651223Y-98322533D01*
X221656150Y-98326187D01*
X221660694Y-98330306D01*
X221664813Y-98334850D01*
X221668467Y-98339777D01*
X221671620Y-98345038D01*
X221674242Y-98350582D01*
X221676309Y-98356357D01*
X221677799Y-98362307D01*
X221678699Y-98368374D01*
X221679000Y-98374500D01*
X221679000Y-98499500D01*
X221678699Y-98505626D01*
X221677799Y-98511693D01*
X221676309Y-98517643D01*
X221674242Y-98523418D01*
X221671620Y-98528962D01*
X221668467Y-98534223D01*
X221664813Y-98539150D01*
X221660694Y-98543694D01*
X221656150Y-98547813D01*
X221651223Y-98551467D01*
X221645962Y-98554620D01*
X221640418Y-98557242D01*
X221634643Y-98559309D01*
X221628693Y-98560799D01*
X221622626Y-98561699D01*
X221616500Y-98562000D01*
X220916500Y-98562000D01*
X220910374Y-98561699D01*
X220904307Y-98560799D01*
X220898357Y-98559309D01*
X220892582Y-98557242D01*
X220887038Y-98554620D01*
X220881777Y-98551467D01*
X220876850Y-98547813D01*
X220872306Y-98543694D01*
X220868187Y-98539150D01*
X220864533Y-98534223D01*
X220861380Y-98528962D01*
X220858758Y-98523418D01*
X220856691Y-98517643D01*
X220855201Y-98511693D01*
X220854301Y-98505626D01*
X220854000Y-98499500D01*
X220854000Y-98374500D01*
X220854301Y-98368374D01*
X220855201Y-98362307D01*
X220856691Y-98356357D01*
X220858758Y-98350582D01*
X220861380Y-98345038D01*
X220864533Y-98339777D01*
X220868187Y-98334850D01*
X220872306Y-98330306D01*
X220876850Y-98326187D01*
X220881777Y-98322533D01*
X220887038Y-98319380D01*
X220892582Y-98316758D01*
X220898357Y-98314691D01*
X220904307Y-98313201D01*
X220910374Y-98312301D01*
X220916500Y-98312000D01*
X221616500Y-98312000D01*
X221622626Y-98312301D01*
X221622626Y-98312301D01*
G37*
D27*
X221266500Y-98437000D03*
D10*
G36*
X221622626Y-97812301D02*
X221628693Y-97813201D01*
X221634643Y-97814691D01*
X221640418Y-97816758D01*
X221645962Y-97819380D01*
X221651223Y-97822533D01*
X221656150Y-97826187D01*
X221660694Y-97830306D01*
X221664813Y-97834850D01*
X221668467Y-97839777D01*
X221671620Y-97845038D01*
X221674242Y-97850582D01*
X221676309Y-97856357D01*
X221677799Y-97862307D01*
X221678699Y-97868374D01*
X221679000Y-97874500D01*
X221679000Y-97999500D01*
X221678699Y-98005626D01*
X221677799Y-98011693D01*
X221676309Y-98017643D01*
X221674242Y-98023418D01*
X221671620Y-98028962D01*
X221668467Y-98034223D01*
X221664813Y-98039150D01*
X221660694Y-98043694D01*
X221656150Y-98047813D01*
X221651223Y-98051467D01*
X221645962Y-98054620D01*
X221640418Y-98057242D01*
X221634643Y-98059309D01*
X221628693Y-98060799D01*
X221622626Y-98061699D01*
X221616500Y-98062000D01*
X220916500Y-98062000D01*
X220910374Y-98061699D01*
X220904307Y-98060799D01*
X220898357Y-98059309D01*
X220892582Y-98057242D01*
X220887038Y-98054620D01*
X220881777Y-98051467D01*
X220876850Y-98047813D01*
X220872306Y-98043694D01*
X220868187Y-98039150D01*
X220864533Y-98034223D01*
X220861380Y-98028962D01*
X220858758Y-98023418D01*
X220856691Y-98017643D01*
X220855201Y-98011693D01*
X220854301Y-98005626D01*
X220854000Y-97999500D01*
X220854000Y-97874500D01*
X220854301Y-97868374D01*
X220855201Y-97862307D01*
X220856691Y-97856357D01*
X220858758Y-97850582D01*
X220861380Y-97845038D01*
X220864533Y-97839777D01*
X220868187Y-97834850D01*
X220872306Y-97830306D01*
X220876850Y-97826187D01*
X220881777Y-97822533D01*
X220887038Y-97819380D01*
X220892582Y-97816758D01*
X220898357Y-97814691D01*
X220904307Y-97813201D01*
X220910374Y-97812301D01*
X220916500Y-97812000D01*
X221616500Y-97812000D01*
X221622626Y-97812301D01*
X221622626Y-97812301D01*
G37*
D27*
X221266500Y-97937000D03*
G04 #@! TD*
D28*
G04 #@! TO.C,U5*
X180518000Y-61595000D03*
X181318000Y-61595000D03*
X182118000Y-61595000D03*
X182918000Y-61595000D03*
X183718000Y-61595000D03*
X184518000Y-61595000D03*
D29*
X184618000Y-62733100D03*
D28*
X184518000Y-63871200D03*
X183718000Y-63871200D03*
X182918000Y-63871200D03*
X182118000Y-63871200D03*
X181318000Y-63871200D03*
X180518000Y-63863580D03*
D29*
X180418000Y-62733100D03*
G04 #@! TD*
M02*
