G04 #@! TF.GenerationSoftware,KiCad,Pcbnew,(5.0.1-3-g963ef8bb5)*
G04 #@! TF.CreationDate,2019-10-19T22:42:43+03:00*
G04 #@! TF.ProjectId,kangal-bcu,6B616E67616C2D6263752E6B69636164,rev?*
G04 #@! TF.SameCoordinates,Original*
G04 #@! TF.FileFunction,Soldermask,Top*
G04 #@! TF.FilePolarity,Negative*
%FSLAX46Y46*%
G04 Gerber Fmt 4.6, Leading zero omitted, Abs format (unit mm)*
G04 Created by KiCad (PCBNEW (5.0.1-3-g963ef8bb5)) date 2019 October 19, Saturday 22:42:43*
%MOMM*%
%LPD*%
G01*
G04 APERTURE LIST*
%ADD10C,0.100000*%
G04 APERTURE END LIST*
D10*
G36*
X221538000Y-115906500D02*
X220006000Y-115906500D01*
X220006000Y-113304500D01*
X221538000Y-113304500D01*
X221538000Y-115906500D01*
X221538000Y-115906500D01*
G37*
G36*
X219618000Y-115906500D02*
X218086000Y-115906500D01*
X218086000Y-113304500D01*
X219618000Y-113304500D01*
X219618000Y-115906500D01*
X219618000Y-115906500D01*
G37*
G36*
X189820000Y-115309500D02*
X188718000Y-115309500D01*
X188718000Y-112707500D01*
X189820000Y-112707500D01*
X189820000Y-115309500D01*
X189820000Y-115309500D01*
G37*
G36*
X187280000Y-115309500D02*
X186178000Y-115309500D01*
X186178000Y-112707500D01*
X187280000Y-112707500D01*
X187280000Y-115309500D01*
X187280000Y-115309500D01*
G37*
G36*
X184740000Y-115309500D02*
X183638000Y-115309500D01*
X183638000Y-112707500D01*
X184740000Y-112707500D01*
X184740000Y-115309500D01*
X184740000Y-115309500D01*
G37*
G36*
X182200000Y-115309500D02*
X181098000Y-115309500D01*
X181098000Y-112707500D01*
X182200000Y-112707500D01*
X182200000Y-115309500D01*
X182200000Y-115309500D01*
G37*
G36*
X179660000Y-115309500D02*
X178558000Y-115309500D01*
X178558000Y-112707500D01*
X179660000Y-112707500D01*
X179660000Y-115309500D01*
X179660000Y-115309500D01*
G37*
G36*
X177120000Y-115309500D02*
X176018000Y-115309500D01*
X176018000Y-112707500D01*
X177120000Y-112707500D01*
X177120000Y-115309500D01*
X177120000Y-115309500D01*
G37*
G36*
X217509817Y-110543196D02*
X217529334Y-110549117D01*
X217553367Y-110553898D01*
X217565620Y-110554500D01*
X218063761Y-110554500D01*
X218068554Y-110558434D01*
X218090165Y-110569985D01*
X218113614Y-110577098D01*
X218138000Y-110579500D01*
X221363000Y-110579500D01*
X221363000Y-112331500D01*
X218261000Y-112331500D01*
X218261000Y-112281500D01*
X218258598Y-112257114D01*
X218251485Y-112233665D01*
X218239934Y-112212054D01*
X218224388Y-112193112D01*
X218205446Y-112177566D01*
X218183835Y-112166015D01*
X218160386Y-112158902D01*
X218136000Y-112156500D01*
X217950500Y-112156500D01*
X217926114Y-112158902D01*
X217902665Y-112166015D01*
X217881054Y-112177566D01*
X217862112Y-112193112D01*
X217846566Y-112212054D01*
X217835015Y-112233665D01*
X217827902Y-112257114D01*
X217825500Y-112281500D01*
X217825500Y-113118726D01*
X217817515Y-113133665D01*
X217810402Y-113157114D01*
X217808000Y-113181500D01*
X217808000Y-114560170D01*
X217805726Y-114569248D01*
X217797495Y-114652820D01*
X217782936Y-114700814D01*
X217755980Y-114789676D01*
X217688568Y-114915796D01*
X217597843Y-115026343D01*
X217487296Y-115117068D01*
X217361177Y-115184479D01*
X217361174Y-115184480D01*
X217361172Y-115184481D01*
X217224321Y-115225995D01*
X217082000Y-115240012D01*
X216939680Y-115225995D01*
X216802829Y-115184481D01*
X216802827Y-115184480D01*
X216802824Y-115184479D01*
X216676705Y-115117068D01*
X216566160Y-115026345D01*
X216475430Y-114915792D01*
X216408021Y-114789677D01*
X216408019Y-114789672D01*
X216366505Y-114652821D01*
X216358274Y-114569248D01*
X216356000Y-114557814D01*
X216356000Y-113181500D01*
X216353598Y-113157114D01*
X216346485Y-113133665D01*
X216334934Y-113112054D01*
X216319388Y-113093112D01*
X216300446Y-113077566D01*
X216278835Y-113066015D01*
X216255386Y-113058902D01*
X216231000Y-113056500D01*
X215898500Y-113056500D01*
X215898500Y-112182920D01*
X215901485Y-112177335D01*
X215908598Y-112153886D01*
X215911000Y-112129500D01*
X215911000Y-110554500D01*
X217218379Y-110554500D01*
X217242765Y-110552098D01*
X217254665Y-110549117D01*
X217274182Y-110543196D01*
X217392000Y-110531593D01*
X217509817Y-110543196D01*
X217509817Y-110543196D01*
G37*
G36*
X222255407Y-110533898D02*
X222267659Y-110534500D01*
X223763000Y-110534500D01*
X223763000Y-112129500D01*
X223765402Y-112153886D01*
X223772515Y-112177335D01*
X223775500Y-112182920D01*
X223775500Y-113056500D01*
X223413000Y-113056500D01*
X223388614Y-113058902D01*
X223365165Y-113066015D01*
X223343554Y-113077566D01*
X223324612Y-113093112D01*
X223309066Y-113112054D01*
X223297515Y-113133665D01*
X223290402Y-113157114D01*
X223288000Y-113181500D01*
X223288000Y-114509849D01*
X223286190Y-114512054D01*
X223274639Y-114533665D01*
X223265726Y-114569248D01*
X223257495Y-114652820D01*
X223242936Y-114700814D01*
X223215980Y-114789676D01*
X223148568Y-114915796D01*
X223057843Y-115026343D01*
X222947296Y-115117068D01*
X222821177Y-115184479D01*
X222821174Y-115184480D01*
X222821172Y-115184481D01*
X222684321Y-115225995D01*
X222542000Y-115240012D01*
X222399680Y-115225995D01*
X222262829Y-115184481D01*
X222262827Y-115184480D01*
X222262824Y-115184479D01*
X222136705Y-115117068D01*
X222026160Y-115026345D01*
X221935430Y-114915792D01*
X221868021Y-114789677D01*
X221868019Y-114789672D01*
X221826505Y-114652821D01*
X221816000Y-114546159D01*
X221816000Y-114124842D01*
X221826505Y-114018180D01*
X221830617Y-114004624D01*
X221835398Y-113980592D01*
X221836000Y-113968339D01*
X221836000Y-112261500D01*
X221833598Y-112237114D01*
X221826485Y-112213665D01*
X221814934Y-112192054D01*
X221799388Y-112173112D01*
X221780446Y-112157566D01*
X221758835Y-112146015D01*
X221735386Y-112138902D01*
X221711000Y-112136500D01*
X221661000Y-112136500D01*
X221661000Y-111742086D01*
X221658598Y-111717700D01*
X221655617Y-111705800D01*
X221639696Y-111653318D01*
X221631000Y-111565019D01*
X221631000Y-111105982D01*
X221639696Y-111017683D01*
X221655617Y-110965201D01*
X221660398Y-110941168D01*
X221661000Y-110928915D01*
X221661000Y-110534500D01*
X222196341Y-110534500D01*
X222208593Y-110533898D01*
X222232000Y-110531593D01*
X222255407Y-110533898D01*
X222255407Y-110533898D01*
G37*
G36*
X207199739Y-108761967D02*
X207513782Y-108824434D01*
X208105426Y-109069501D01*
X208628410Y-109418948D01*
X208637895Y-109425286D01*
X209090714Y-109878105D01*
X209090716Y-109878108D01*
X209446499Y-110410574D01*
X209691566Y-111002218D01*
X209712207Y-111105986D01*
X209816500Y-111630303D01*
X209816500Y-112270697D01*
X209754033Y-112584739D01*
X209691566Y-112898782D01*
X209446499Y-113490426D01*
X209173164Y-113899500D01*
X209090714Y-114022895D01*
X208637895Y-114475714D01*
X208637892Y-114475716D01*
X208105426Y-114831499D01*
X207513782Y-115076566D01*
X207199739Y-115139033D01*
X206885697Y-115201500D01*
X206245303Y-115201500D01*
X205931261Y-115139033D01*
X205617218Y-115076566D01*
X205025574Y-114831499D01*
X204493108Y-114475716D01*
X204493105Y-114475714D01*
X204040286Y-114022895D01*
X203957836Y-113899500D01*
X203684501Y-113490426D01*
X203439434Y-112898782D01*
X203376967Y-112584739D01*
X203314500Y-112270697D01*
X203314500Y-111630303D01*
X203418793Y-111105986D01*
X203439434Y-111002218D01*
X203684501Y-110410574D01*
X204040284Y-109878108D01*
X204040286Y-109878105D01*
X204493105Y-109425286D01*
X204502590Y-109418948D01*
X205025574Y-109069501D01*
X205617218Y-108824434D01*
X205931261Y-108761967D01*
X206245303Y-108699500D01*
X206885697Y-108699500D01*
X207199739Y-108761967D01*
X207199739Y-108761967D01*
G37*
G36*
X196685467Y-107851566D02*
X196724138Y-107863297D01*
X196759780Y-107882349D01*
X196791018Y-107907984D01*
X196816653Y-107939222D01*
X196835705Y-107974864D01*
X196847436Y-108013535D01*
X196852001Y-108059889D01*
X196852001Y-109136113D01*
X196847436Y-109182467D01*
X196835705Y-109221138D01*
X196816653Y-109256780D01*
X196791018Y-109288018D01*
X196759780Y-109313653D01*
X196724138Y-109332705D01*
X196685467Y-109344436D01*
X196639113Y-109349001D01*
X195987889Y-109349001D01*
X195941535Y-109344436D01*
X195902864Y-109332705D01*
X195867222Y-109313653D01*
X195835984Y-109288018D01*
X195810349Y-109256780D01*
X195791297Y-109221138D01*
X195779566Y-109182467D01*
X195775001Y-109136113D01*
X195775001Y-108059889D01*
X195779566Y-108013535D01*
X195791297Y-107974864D01*
X195810349Y-107939222D01*
X195835984Y-107907984D01*
X195867222Y-107882349D01*
X195902864Y-107863297D01*
X195941535Y-107851566D01*
X195987889Y-107847001D01*
X196639113Y-107847001D01*
X196685467Y-107851566D01*
X196685467Y-107851566D01*
G37*
G36*
X198560467Y-107851566D02*
X198599138Y-107863297D01*
X198634780Y-107882349D01*
X198666018Y-107907984D01*
X198691653Y-107939222D01*
X198710705Y-107974864D01*
X198722436Y-108013535D01*
X198727001Y-108059889D01*
X198727001Y-109136113D01*
X198722436Y-109182467D01*
X198710705Y-109221138D01*
X198691653Y-109256780D01*
X198666018Y-109288018D01*
X198634780Y-109313653D01*
X198599138Y-109332705D01*
X198560467Y-109344436D01*
X198514113Y-109349001D01*
X197862889Y-109349001D01*
X197816535Y-109344436D01*
X197777864Y-109332705D01*
X197742222Y-109313653D01*
X197710984Y-109288018D01*
X197685349Y-109256780D01*
X197666297Y-109221138D01*
X197654566Y-109182467D01*
X197650001Y-109136113D01*
X197650001Y-108059889D01*
X197654566Y-108013535D01*
X197666297Y-107974864D01*
X197685349Y-107939222D01*
X197710984Y-107907984D01*
X197742222Y-107882349D01*
X197777864Y-107863297D01*
X197816535Y-107851566D01*
X197862889Y-107847001D01*
X198514113Y-107847001D01*
X198560467Y-107851566D01*
X198560467Y-107851566D01*
G37*
G36*
X200095467Y-107851566D02*
X200134138Y-107863297D01*
X200169780Y-107882349D01*
X200201018Y-107907984D01*
X200226653Y-107939222D01*
X200245705Y-107974864D01*
X200257436Y-108013535D01*
X200262001Y-108059889D01*
X200262001Y-109136113D01*
X200257436Y-109182467D01*
X200245705Y-109221138D01*
X200226653Y-109256780D01*
X200201018Y-109288018D01*
X200169780Y-109313653D01*
X200134138Y-109332705D01*
X200095467Y-109344436D01*
X200049113Y-109349001D01*
X199397889Y-109349001D01*
X199351535Y-109344436D01*
X199312864Y-109332705D01*
X199277222Y-109313653D01*
X199245984Y-109288018D01*
X199220349Y-109256780D01*
X199201297Y-109221138D01*
X199189566Y-109182467D01*
X199185001Y-109136113D01*
X199185001Y-108059889D01*
X199189566Y-108013535D01*
X199201297Y-107974864D01*
X199220349Y-107939222D01*
X199245984Y-107907984D01*
X199277222Y-107882349D01*
X199312864Y-107863297D01*
X199351535Y-107851566D01*
X199397889Y-107847001D01*
X200049113Y-107847001D01*
X200095467Y-107851566D01*
X200095467Y-107851566D01*
G37*
G36*
X201970467Y-107851566D02*
X202009138Y-107863297D01*
X202044780Y-107882349D01*
X202076018Y-107907984D01*
X202101653Y-107939222D01*
X202120705Y-107974864D01*
X202132436Y-108013535D01*
X202137001Y-108059889D01*
X202137001Y-109136113D01*
X202132436Y-109182467D01*
X202120705Y-109221138D01*
X202101653Y-109256780D01*
X202076018Y-109288018D01*
X202044780Y-109313653D01*
X202009138Y-109332705D01*
X201970467Y-109344436D01*
X201924113Y-109349001D01*
X201272889Y-109349001D01*
X201226535Y-109344436D01*
X201187864Y-109332705D01*
X201152222Y-109313653D01*
X201120984Y-109288018D01*
X201095349Y-109256780D01*
X201076297Y-109221138D01*
X201064566Y-109182467D01*
X201060001Y-109136113D01*
X201060001Y-108059889D01*
X201064566Y-108013535D01*
X201076297Y-107974864D01*
X201095349Y-107939222D01*
X201120984Y-107907984D01*
X201152222Y-107882349D01*
X201187864Y-107863297D01*
X201226535Y-107851566D01*
X201272889Y-107847001D01*
X201924113Y-107847001D01*
X201970467Y-107851566D01*
X201970467Y-107851566D01*
G37*
G36*
X209111466Y-104917565D02*
X209150137Y-104929296D01*
X209185779Y-104948348D01*
X209217017Y-104973983D01*
X209242652Y-105005221D01*
X209261704Y-105040863D01*
X209273435Y-105079534D01*
X209278000Y-105125888D01*
X209278000Y-106202112D01*
X209273435Y-106248466D01*
X209261704Y-106287137D01*
X209242652Y-106322779D01*
X209217017Y-106354017D01*
X209185779Y-106379652D01*
X209150137Y-106398704D01*
X209111466Y-106410435D01*
X209065112Y-106415000D01*
X208413888Y-106415000D01*
X208367534Y-106410435D01*
X208328863Y-106398704D01*
X208293221Y-106379652D01*
X208261983Y-106354017D01*
X208236348Y-106322779D01*
X208217296Y-106287137D01*
X208205565Y-106248466D01*
X208201000Y-106202112D01*
X208201000Y-105125888D01*
X208205565Y-105079534D01*
X208217296Y-105040863D01*
X208236348Y-105005221D01*
X208261983Y-104973983D01*
X208293221Y-104948348D01*
X208328863Y-104929296D01*
X208367534Y-104917565D01*
X208413888Y-104913000D01*
X209065112Y-104913000D01*
X209111466Y-104917565D01*
X209111466Y-104917565D01*
G37*
G36*
X210986466Y-104917565D02*
X211025137Y-104929296D01*
X211060779Y-104948348D01*
X211092017Y-104973983D01*
X211117652Y-105005221D01*
X211136704Y-105040863D01*
X211148435Y-105079534D01*
X211153000Y-105125888D01*
X211153000Y-106202112D01*
X211148435Y-106248466D01*
X211136704Y-106287137D01*
X211117652Y-106322779D01*
X211092017Y-106354017D01*
X211060779Y-106379652D01*
X211025137Y-106398704D01*
X210986466Y-106410435D01*
X210940112Y-106415000D01*
X210288888Y-106415000D01*
X210242534Y-106410435D01*
X210203863Y-106398704D01*
X210168221Y-106379652D01*
X210136983Y-106354017D01*
X210111348Y-106322779D01*
X210092296Y-106287137D01*
X210080565Y-106248466D01*
X210076000Y-106202112D01*
X210076000Y-105125888D01*
X210080565Y-105079534D01*
X210092296Y-105040863D01*
X210111348Y-105005221D01*
X210136983Y-104973983D01*
X210168221Y-104948348D01*
X210203863Y-104929296D01*
X210242534Y-104917565D01*
X210288888Y-104913000D01*
X210940112Y-104913000D01*
X210986466Y-104917565D01*
X210986466Y-104917565D01*
G37*
G36*
X196634467Y-103025566D02*
X196673138Y-103037297D01*
X196708780Y-103056349D01*
X196740018Y-103081984D01*
X196765653Y-103113222D01*
X196784705Y-103148864D01*
X196796436Y-103187535D01*
X196801001Y-103233889D01*
X196801001Y-104310113D01*
X196796436Y-104356467D01*
X196784705Y-104395138D01*
X196765653Y-104430780D01*
X196740018Y-104462018D01*
X196708780Y-104487653D01*
X196673138Y-104506705D01*
X196634467Y-104518436D01*
X196588113Y-104523001D01*
X195936889Y-104523001D01*
X195890535Y-104518436D01*
X195851864Y-104506705D01*
X195816222Y-104487653D01*
X195784984Y-104462018D01*
X195759349Y-104430780D01*
X195740297Y-104395138D01*
X195728566Y-104356467D01*
X195724001Y-104310113D01*
X195724001Y-103233889D01*
X195728566Y-103187535D01*
X195740297Y-103148864D01*
X195759349Y-103113222D01*
X195784984Y-103081984D01*
X195816222Y-103056349D01*
X195851864Y-103037297D01*
X195890535Y-103025566D01*
X195936889Y-103021001D01*
X196588113Y-103021001D01*
X196634467Y-103025566D01*
X196634467Y-103025566D01*
G37*
G36*
X198509467Y-103025566D02*
X198548138Y-103037297D01*
X198583780Y-103056349D01*
X198615018Y-103081984D01*
X198640653Y-103113222D01*
X198659705Y-103148864D01*
X198671436Y-103187535D01*
X198676001Y-103233889D01*
X198676001Y-104310113D01*
X198671436Y-104356467D01*
X198659705Y-104395138D01*
X198640653Y-104430780D01*
X198615018Y-104462018D01*
X198583780Y-104487653D01*
X198548138Y-104506705D01*
X198509467Y-104518436D01*
X198463113Y-104523001D01*
X197811889Y-104523001D01*
X197765535Y-104518436D01*
X197726864Y-104506705D01*
X197691222Y-104487653D01*
X197659984Y-104462018D01*
X197634349Y-104430780D01*
X197615297Y-104395138D01*
X197603566Y-104356467D01*
X197599001Y-104310113D01*
X197599001Y-103233889D01*
X197603566Y-103187535D01*
X197615297Y-103148864D01*
X197634349Y-103113222D01*
X197659984Y-103081984D01*
X197691222Y-103056349D01*
X197726864Y-103037297D01*
X197765535Y-103025566D01*
X197811889Y-103021001D01*
X198463113Y-103021001D01*
X198509467Y-103025566D01*
X198509467Y-103025566D01*
G37*
G36*
X200044467Y-103025566D02*
X200083138Y-103037297D01*
X200118780Y-103056349D01*
X200150018Y-103081984D01*
X200175653Y-103113222D01*
X200194705Y-103148864D01*
X200206436Y-103187535D01*
X200211001Y-103233889D01*
X200211001Y-104310113D01*
X200206436Y-104356467D01*
X200194705Y-104395138D01*
X200175653Y-104430780D01*
X200150018Y-104462018D01*
X200118780Y-104487653D01*
X200083138Y-104506705D01*
X200044467Y-104518436D01*
X199998113Y-104523001D01*
X199346889Y-104523001D01*
X199300535Y-104518436D01*
X199261864Y-104506705D01*
X199226222Y-104487653D01*
X199194984Y-104462018D01*
X199169349Y-104430780D01*
X199150297Y-104395138D01*
X199138566Y-104356467D01*
X199134001Y-104310113D01*
X199134001Y-103233889D01*
X199138566Y-103187535D01*
X199150297Y-103148864D01*
X199169349Y-103113222D01*
X199194984Y-103081984D01*
X199226222Y-103056349D01*
X199261864Y-103037297D01*
X199300535Y-103025566D01*
X199346889Y-103021001D01*
X199998113Y-103021001D01*
X200044467Y-103025566D01*
X200044467Y-103025566D01*
G37*
G36*
X201919467Y-103025566D02*
X201958138Y-103037297D01*
X201993780Y-103056349D01*
X202025018Y-103081984D01*
X202050653Y-103113222D01*
X202069705Y-103148864D01*
X202081436Y-103187535D01*
X202086001Y-103233889D01*
X202086001Y-104310113D01*
X202081436Y-104356467D01*
X202069705Y-104395138D01*
X202050653Y-104430780D01*
X202025018Y-104462018D01*
X201993780Y-104487653D01*
X201958138Y-104506705D01*
X201919467Y-104518436D01*
X201873113Y-104523001D01*
X201221889Y-104523001D01*
X201175535Y-104518436D01*
X201136864Y-104506705D01*
X201101222Y-104487653D01*
X201069984Y-104462018D01*
X201044349Y-104430780D01*
X201025297Y-104395138D01*
X201013566Y-104356467D01*
X201009001Y-104310113D01*
X201009001Y-103233889D01*
X201013566Y-103187535D01*
X201025297Y-103148864D01*
X201044349Y-103113222D01*
X201069984Y-103081984D01*
X201101222Y-103056349D01*
X201136864Y-103037297D01*
X201175535Y-103025566D01*
X201221889Y-103021001D01*
X201873113Y-103021001D01*
X201919467Y-103025566D01*
X201919467Y-103025566D01*
G37*
G36*
X218234357Y-96787083D02*
X218239028Y-96788500D01*
X218243330Y-96790800D01*
X218249705Y-96796031D01*
X218270080Y-96809644D01*
X218292719Y-96819020D01*
X218316753Y-96823800D01*
X218341257Y-96823799D01*
X218365291Y-96819017D01*
X218387929Y-96809639D01*
X218408295Y-96796031D01*
X218414670Y-96790800D01*
X218418972Y-96788500D01*
X218423643Y-96787083D01*
X218434641Y-96786000D01*
X218723359Y-96786000D01*
X218734357Y-96787083D01*
X218739028Y-96788500D01*
X218743330Y-96790800D01*
X218749705Y-96796031D01*
X218770080Y-96809644D01*
X218792719Y-96819020D01*
X218816753Y-96823800D01*
X218841257Y-96823799D01*
X218865291Y-96819017D01*
X218887929Y-96809639D01*
X218908295Y-96796031D01*
X218914670Y-96790800D01*
X218918972Y-96788500D01*
X218923643Y-96787083D01*
X218934641Y-96786000D01*
X219223359Y-96786000D01*
X219234357Y-96787083D01*
X219239028Y-96788500D01*
X219243330Y-96790800D01*
X219249705Y-96796031D01*
X219270080Y-96809644D01*
X219292719Y-96819020D01*
X219316753Y-96823800D01*
X219341257Y-96823799D01*
X219365291Y-96819017D01*
X219387929Y-96809639D01*
X219408295Y-96796031D01*
X219414670Y-96790800D01*
X219418972Y-96788500D01*
X219423643Y-96787083D01*
X219434641Y-96786000D01*
X219723359Y-96786000D01*
X219734357Y-96787083D01*
X219739028Y-96788500D01*
X219743330Y-96790800D01*
X219749705Y-96796031D01*
X219770080Y-96809644D01*
X219792719Y-96819020D01*
X219816753Y-96823800D01*
X219841257Y-96823799D01*
X219865291Y-96819017D01*
X219887929Y-96809639D01*
X219908295Y-96796031D01*
X219914670Y-96790800D01*
X219918972Y-96788500D01*
X219923643Y-96787083D01*
X219934641Y-96786000D01*
X220223359Y-96786000D01*
X220234357Y-96787083D01*
X220239028Y-96788500D01*
X220243330Y-96790800D01*
X220249705Y-96796031D01*
X220270080Y-96809644D01*
X220292719Y-96819020D01*
X220316753Y-96823800D01*
X220341257Y-96823799D01*
X220365291Y-96819017D01*
X220387929Y-96809639D01*
X220408295Y-96796031D01*
X220414670Y-96790800D01*
X220418972Y-96788500D01*
X220423643Y-96787083D01*
X220434641Y-96786000D01*
X220723359Y-96786000D01*
X220734357Y-96787083D01*
X220739028Y-96788500D01*
X220743330Y-96790800D01*
X220747104Y-96793896D01*
X220750200Y-96797670D01*
X220752500Y-96801972D01*
X220753917Y-96806643D01*
X220755000Y-96817641D01*
X220755000Y-97636000D01*
X220757402Y-97660386D01*
X220764515Y-97683835D01*
X220776066Y-97705446D01*
X220791612Y-97724388D01*
X220810554Y-97739934D01*
X220832165Y-97751485D01*
X220855614Y-97758598D01*
X220880000Y-97761000D01*
X221698359Y-97761000D01*
X221709357Y-97762083D01*
X221714028Y-97763500D01*
X221718330Y-97765800D01*
X221722104Y-97768896D01*
X221725200Y-97772670D01*
X221727500Y-97776972D01*
X221728917Y-97781643D01*
X221730000Y-97792641D01*
X221730000Y-98081359D01*
X221728917Y-98092357D01*
X221727500Y-98097028D01*
X221725200Y-98101330D01*
X221719969Y-98107705D01*
X221706356Y-98128080D01*
X221696980Y-98150719D01*
X221692200Y-98174753D01*
X221692201Y-98199257D01*
X221696983Y-98223291D01*
X221706361Y-98245929D01*
X221719969Y-98266295D01*
X221725200Y-98272670D01*
X221727500Y-98276972D01*
X221728917Y-98281643D01*
X221730000Y-98292641D01*
X221730000Y-98581359D01*
X221728917Y-98592357D01*
X221727500Y-98597028D01*
X221725200Y-98601330D01*
X221719969Y-98607705D01*
X221706356Y-98628080D01*
X221696980Y-98650719D01*
X221692200Y-98674753D01*
X221692201Y-98699257D01*
X221696983Y-98723291D01*
X221706361Y-98745929D01*
X221719969Y-98766295D01*
X221725200Y-98772670D01*
X221727500Y-98776972D01*
X221728917Y-98781643D01*
X221730000Y-98792641D01*
X221730000Y-99081359D01*
X221728917Y-99092357D01*
X221727500Y-99097028D01*
X221725200Y-99101330D01*
X221719969Y-99107705D01*
X221706356Y-99128080D01*
X221696980Y-99150719D01*
X221692200Y-99174753D01*
X221692201Y-99199257D01*
X221696983Y-99223291D01*
X221706361Y-99245929D01*
X221719969Y-99266295D01*
X221725200Y-99272670D01*
X221727500Y-99276972D01*
X221728917Y-99281643D01*
X221730000Y-99292641D01*
X221730000Y-99581359D01*
X221728917Y-99592357D01*
X221727500Y-99597028D01*
X221725200Y-99601330D01*
X221719969Y-99607705D01*
X221706356Y-99628080D01*
X221696980Y-99650719D01*
X221692200Y-99674753D01*
X221692201Y-99699257D01*
X221696983Y-99723291D01*
X221706361Y-99745929D01*
X221719969Y-99766295D01*
X221725200Y-99772670D01*
X221727500Y-99776972D01*
X221728917Y-99781643D01*
X221730000Y-99792641D01*
X221730000Y-100081359D01*
X221728917Y-100092357D01*
X221727500Y-100097028D01*
X221725200Y-100101330D01*
X221719969Y-100107705D01*
X221706356Y-100128080D01*
X221696980Y-100150719D01*
X221692200Y-100174753D01*
X221692201Y-100199257D01*
X221696983Y-100223291D01*
X221706361Y-100245929D01*
X221719969Y-100266295D01*
X221725200Y-100272670D01*
X221727500Y-100276972D01*
X221728917Y-100281643D01*
X221730000Y-100292641D01*
X221730000Y-100581359D01*
X221728917Y-100592357D01*
X221727500Y-100597028D01*
X221725200Y-100601330D01*
X221722104Y-100605104D01*
X221718330Y-100608200D01*
X221714028Y-100610500D01*
X221709357Y-100611917D01*
X221698359Y-100613000D01*
X220880000Y-100613000D01*
X220855614Y-100615402D01*
X220832165Y-100622515D01*
X220810554Y-100634066D01*
X220791612Y-100649612D01*
X220776066Y-100668554D01*
X220764515Y-100690165D01*
X220757402Y-100713614D01*
X220755000Y-100738000D01*
X220755000Y-101556359D01*
X220753917Y-101567357D01*
X220752500Y-101572028D01*
X220750200Y-101576330D01*
X220747104Y-101580104D01*
X220743330Y-101583200D01*
X220739028Y-101585500D01*
X220734357Y-101586917D01*
X220723359Y-101588000D01*
X220434641Y-101588000D01*
X220423643Y-101586917D01*
X220418972Y-101585500D01*
X220414670Y-101583200D01*
X220408295Y-101577969D01*
X220387920Y-101564356D01*
X220365281Y-101554980D01*
X220341247Y-101550200D01*
X220316743Y-101550201D01*
X220292709Y-101554983D01*
X220270071Y-101564361D01*
X220249705Y-101577969D01*
X220243330Y-101583200D01*
X220239028Y-101585500D01*
X220234357Y-101586917D01*
X220223359Y-101588000D01*
X219934641Y-101588000D01*
X219923643Y-101586917D01*
X219918972Y-101585500D01*
X219914670Y-101583200D01*
X219908295Y-101577969D01*
X219887920Y-101564356D01*
X219865281Y-101554980D01*
X219841247Y-101550200D01*
X219816743Y-101550201D01*
X219792709Y-101554983D01*
X219770071Y-101564361D01*
X219749705Y-101577969D01*
X219743330Y-101583200D01*
X219739028Y-101585500D01*
X219734357Y-101586917D01*
X219723359Y-101588000D01*
X219434641Y-101588000D01*
X219423643Y-101586917D01*
X219418972Y-101585500D01*
X219414670Y-101583200D01*
X219408295Y-101577969D01*
X219387920Y-101564356D01*
X219365281Y-101554980D01*
X219341247Y-101550200D01*
X219316743Y-101550201D01*
X219292709Y-101554983D01*
X219270071Y-101564361D01*
X219249705Y-101577969D01*
X219243330Y-101583200D01*
X219239028Y-101585500D01*
X219234357Y-101586917D01*
X219223359Y-101588000D01*
X218934641Y-101588000D01*
X218923643Y-101586917D01*
X218918972Y-101585500D01*
X218914670Y-101583200D01*
X218908295Y-101577969D01*
X218887920Y-101564356D01*
X218865281Y-101554980D01*
X218841247Y-101550200D01*
X218816743Y-101550201D01*
X218792709Y-101554983D01*
X218770071Y-101564361D01*
X218749705Y-101577969D01*
X218743330Y-101583200D01*
X218739028Y-101585500D01*
X218734357Y-101586917D01*
X218723359Y-101588000D01*
X218434641Y-101588000D01*
X218423643Y-101586917D01*
X218418972Y-101585500D01*
X218414670Y-101583200D01*
X218408295Y-101577969D01*
X218387920Y-101564356D01*
X218365281Y-101554980D01*
X218341247Y-101550200D01*
X218316743Y-101550201D01*
X218292709Y-101554983D01*
X218270071Y-101564361D01*
X218249705Y-101577969D01*
X218243330Y-101583200D01*
X218239028Y-101585500D01*
X218234357Y-101586917D01*
X218223359Y-101588000D01*
X217934641Y-101588000D01*
X217923643Y-101586917D01*
X217918972Y-101585500D01*
X217914670Y-101583200D01*
X217910896Y-101580104D01*
X217907800Y-101576330D01*
X217905500Y-101572028D01*
X217904083Y-101567357D01*
X217903000Y-101556359D01*
X217903000Y-100738000D01*
X217900598Y-100713614D01*
X217893485Y-100690165D01*
X217881934Y-100668554D01*
X217866388Y-100649612D01*
X217847446Y-100634066D01*
X217825835Y-100622515D01*
X217802386Y-100615402D01*
X217778000Y-100613000D01*
X216959641Y-100613000D01*
X216948643Y-100611917D01*
X216943972Y-100610500D01*
X216939670Y-100608200D01*
X216935896Y-100605104D01*
X216932800Y-100601330D01*
X216930500Y-100597028D01*
X216929083Y-100592357D01*
X216928000Y-100581359D01*
X216928000Y-100292641D01*
X216929083Y-100281643D01*
X216930500Y-100276972D01*
X216932800Y-100272670D01*
X216938031Y-100266295D01*
X216951644Y-100245920D01*
X216961020Y-100223281D01*
X216965800Y-100199247D01*
X216965799Y-100174743D01*
X216961017Y-100150709D01*
X216951639Y-100128071D01*
X216938031Y-100107705D01*
X216932800Y-100101330D01*
X216930500Y-100097028D01*
X216929083Y-100092357D01*
X216928000Y-100081359D01*
X216928000Y-99792641D01*
X216929083Y-99781643D01*
X216930500Y-99776972D01*
X216932800Y-99772670D01*
X216938031Y-99766295D01*
X216951644Y-99745920D01*
X216961020Y-99723281D01*
X216965800Y-99699247D01*
X216965799Y-99674743D01*
X216961017Y-99650709D01*
X216951639Y-99628071D01*
X216938031Y-99607705D01*
X216932800Y-99601330D01*
X216930500Y-99597028D01*
X216929083Y-99592357D01*
X216928000Y-99581359D01*
X216928000Y-99292641D01*
X216929083Y-99281643D01*
X216930500Y-99276972D01*
X216932800Y-99272670D01*
X216938031Y-99266295D01*
X216951644Y-99245920D01*
X216961020Y-99223281D01*
X216965800Y-99199247D01*
X216965799Y-99174743D01*
X216961017Y-99150709D01*
X216951639Y-99128071D01*
X216938031Y-99107705D01*
X216932800Y-99101330D01*
X216930500Y-99097028D01*
X216929083Y-99092357D01*
X216928000Y-99081359D01*
X216928000Y-98792641D01*
X216929083Y-98781643D01*
X216930500Y-98776972D01*
X216932800Y-98772670D01*
X216938031Y-98766295D01*
X216951644Y-98745920D01*
X216961020Y-98723281D01*
X216965800Y-98699247D01*
X216965799Y-98674743D01*
X216961017Y-98650709D01*
X216951639Y-98628071D01*
X216938031Y-98607705D01*
X216932800Y-98601330D01*
X216930500Y-98597028D01*
X216929083Y-98592357D01*
X216928000Y-98581359D01*
X216928000Y-98292641D01*
X216929083Y-98281643D01*
X216930500Y-98276972D01*
X216932800Y-98272670D01*
X216938031Y-98266295D01*
X216951644Y-98245920D01*
X216961020Y-98223281D01*
X216965800Y-98199247D01*
X216965799Y-98174743D01*
X216961017Y-98150709D01*
X216951639Y-98128071D01*
X216938031Y-98107705D01*
X216932800Y-98101330D01*
X216930500Y-98097028D01*
X216929083Y-98092357D01*
X216928000Y-98081359D01*
X216928000Y-97792641D01*
X216929083Y-97781643D01*
X216930500Y-97776972D01*
X216932800Y-97772670D01*
X216935896Y-97768896D01*
X216939670Y-97765800D01*
X216943972Y-97763500D01*
X216948643Y-97762083D01*
X216959641Y-97761000D01*
X217778000Y-97761000D01*
X217802386Y-97758598D01*
X217825835Y-97751485D01*
X217847446Y-97739934D01*
X217866388Y-97724388D01*
X217881934Y-97705446D01*
X217893485Y-97683835D01*
X217900598Y-97660386D01*
X217903000Y-97636000D01*
X217903000Y-96817641D01*
X217904083Y-96806643D01*
X217905500Y-96801972D01*
X217907800Y-96797670D01*
X217910896Y-96793896D01*
X217914670Y-96790800D01*
X217918972Y-96788500D01*
X217923643Y-96787083D01*
X217934641Y-96786000D01*
X218223359Y-96786000D01*
X218234357Y-96787083D01*
X218234357Y-96787083D01*
G37*
G36*
X198996965Y-98509564D02*
X199035636Y-98521295D01*
X199071278Y-98540347D01*
X199102516Y-98565982D01*
X199128151Y-98597220D01*
X199147203Y-98632862D01*
X199158934Y-98671533D01*
X199163499Y-98717887D01*
X199163499Y-99794111D01*
X199158934Y-99840465D01*
X199147203Y-99879136D01*
X199128151Y-99914778D01*
X199102516Y-99946016D01*
X199071278Y-99971651D01*
X199035636Y-99990703D01*
X198996965Y-100002434D01*
X198950611Y-100006999D01*
X198299387Y-100006999D01*
X198253033Y-100002434D01*
X198214362Y-99990703D01*
X198178720Y-99971651D01*
X198147482Y-99946016D01*
X198121847Y-99914778D01*
X198102795Y-99879136D01*
X198091064Y-99840465D01*
X198086499Y-99794111D01*
X198086499Y-98717887D01*
X198091064Y-98671533D01*
X198102795Y-98632862D01*
X198121847Y-98597220D01*
X198147482Y-98565982D01*
X198178720Y-98540347D01*
X198214362Y-98521295D01*
X198253033Y-98509564D01*
X198299387Y-98504999D01*
X198950611Y-98504999D01*
X198996965Y-98509564D01*
X198996965Y-98509564D01*
G37*
G36*
X197121965Y-98509564D02*
X197160636Y-98521295D01*
X197196278Y-98540347D01*
X197227516Y-98565982D01*
X197253151Y-98597220D01*
X197272203Y-98632862D01*
X197283934Y-98671533D01*
X197288499Y-98717887D01*
X197288499Y-99794111D01*
X197283934Y-99840465D01*
X197272203Y-99879136D01*
X197253151Y-99914778D01*
X197227516Y-99946016D01*
X197196278Y-99971651D01*
X197160636Y-99990703D01*
X197121965Y-100002434D01*
X197075611Y-100006999D01*
X196424387Y-100006999D01*
X196378033Y-100002434D01*
X196339362Y-99990703D01*
X196303720Y-99971651D01*
X196272482Y-99946016D01*
X196246847Y-99914778D01*
X196227795Y-99879136D01*
X196216064Y-99840465D01*
X196211499Y-99794111D01*
X196211499Y-98717887D01*
X196216064Y-98671533D01*
X196227795Y-98632862D01*
X196246847Y-98597220D01*
X196272482Y-98565982D01*
X196303720Y-98540347D01*
X196339362Y-98521295D01*
X196378033Y-98509564D01*
X196424387Y-98504999D01*
X197075611Y-98504999D01*
X197121965Y-98509564D01*
X197121965Y-98509564D01*
G37*
G36*
X184740000Y-99509500D02*
X183638000Y-99509500D01*
X183638000Y-96907500D01*
X184740000Y-96907500D01*
X184740000Y-99509500D01*
X184740000Y-99509500D01*
G37*
G36*
X189820000Y-99509500D02*
X188718000Y-99509500D01*
X188718000Y-96907500D01*
X189820000Y-96907500D01*
X189820000Y-99509500D01*
X189820000Y-99509500D01*
G37*
G36*
X177120000Y-99509500D02*
X176018000Y-99509500D01*
X176018000Y-96907500D01*
X177120000Y-96907500D01*
X177120000Y-99509500D01*
X177120000Y-99509500D01*
G37*
G36*
X187280000Y-99509500D02*
X186178000Y-99509500D01*
X186178000Y-96907500D01*
X187280000Y-96907500D01*
X187280000Y-99509500D01*
X187280000Y-99509500D01*
G37*
G36*
X182200000Y-99509500D02*
X181098000Y-99509500D01*
X181098000Y-96907500D01*
X182200000Y-96907500D01*
X182200000Y-99509500D01*
X182200000Y-99509500D01*
G37*
G36*
X179660000Y-99509500D02*
X178558000Y-99509500D01*
X178558000Y-96907500D01*
X179660000Y-96907500D01*
X179660000Y-99509500D01*
X179660000Y-99509500D01*
G37*
G36*
X207239000Y-97071500D02*
X205837000Y-97071500D01*
X205837000Y-95419500D01*
X207239000Y-95419500D01*
X207239000Y-97071500D01*
X207239000Y-97071500D01*
G37*
G36*
X211739000Y-97071500D02*
X210337000Y-97071500D01*
X210337000Y-95419500D01*
X211739000Y-95419500D01*
X211739000Y-97071500D01*
X211739000Y-97071500D01*
G37*
G36*
X202452967Y-93818066D02*
X202491638Y-93829797D01*
X202527280Y-93848849D01*
X202558518Y-93874484D01*
X202584153Y-93905722D01*
X202603205Y-93941364D01*
X202614936Y-93980035D01*
X202619501Y-94026389D01*
X202619501Y-95102613D01*
X202614936Y-95148967D01*
X202603205Y-95187638D01*
X202584153Y-95223280D01*
X202558518Y-95254518D01*
X202527280Y-95280153D01*
X202491638Y-95299205D01*
X202452967Y-95310936D01*
X202406613Y-95315501D01*
X201755389Y-95315501D01*
X201709035Y-95310936D01*
X201670364Y-95299205D01*
X201634722Y-95280153D01*
X201603484Y-95254518D01*
X201577849Y-95223280D01*
X201558797Y-95187638D01*
X201547066Y-95148967D01*
X201542501Y-95102613D01*
X201542501Y-94026389D01*
X201547066Y-93980035D01*
X201558797Y-93941364D01*
X201577849Y-93905722D01*
X201603484Y-93874484D01*
X201634722Y-93848849D01*
X201670364Y-93829797D01*
X201709035Y-93818066D01*
X201755389Y-93813501D01*
X202406613Y-93813501D01*
X202452967Y-93818066D01*
X202452967Y-93818066D01*
G37*
G36*
X200577967Y-93818066D02*
X200616638Y-93829797D01*
X200652280Y-93848849D01*
X200683518Y-93874484D01*
X200709153Y-93905722D01*
X200728205Y-93941364D01*
X200739936Y-93980035D01*
X200744501Y-94026389D01*
X200744501Y-95102613D01*
X200739936Y-95148967D01*
X200728205Y-95187638D01*
X200709153Y-95223280D01*
X200683518Y-95254518D01*
X200652280Y-95280153D01*
X200616638Y-95299205D01*
X200577967Y-95310936D01*
X200531613Y-95315501D01*
X199880389Y-95315501D01*
X199834035Y-95310936D01*
X199795364Y-95299205D01*
X199759722Y-95280153D01*
X199728484Y-95254518D01*
X199702849Y-95223280D01*
X199683797Y-95187638D01*
X199672066Y-95148967D01*
X199667501Y-95102613D01*
X199667501Y-94026389D01*
X199672066Y-93980035D01*
X199683797Y-93941364D01*
X199702849Y-93905722D01*
X199728484Y-93874484D01*
X199759722Y-93848849D01*
X199795364Y-93829797D01*
X199834035Y-93818066D01*
X199880389Y-93813501D01*
X200531613Y-93813501D01*
X200577967Y-93818066D01*
X200577967Y-93818066D01*
G37*
G36*
X199042967Y-93818066D02*
X199081638Y-93829797D01*
X199117280Y-93848849D01*
X199148518Y-93874484D01*
X199174153Y-93905722D01*
X199193205Y-93941364D01*
X199204936Y-93980035D01*
X199209501Y-94026389D01*
X199209501Y-95102613D01*
X199204936Y-95148967D01*
X199193205Y-95187638D01*
X199174153Y-95223280D01*
X199148518Y-95254518D01*
X199117280Y-95280153D01*
X199081638Y-95299205D01*
X199042967Y-95310936D01*
X198996613Y-95315501D01*
X198345389Y-95315501D01*
X198299035Y-95310936D01*
X198260364Y-95299205D01*
X198224722Y-95280153D01*
X198193484Y-95254518D01*
X198167849Y-95223280D01*
X198148797Y-95187638D01*
X198137066Y-95148967D01*
X198132501Y-95102613D01*
X198132501Y-94026389D01*
X198137066Y-93980035D01*
X198148797Y-93941364D01*
X198167849Y-93905722D01*
X198193484Y-93874484D01*
X198224722Y-93848849D01*
X198260364Y-93829797D01*
X198299035Y-93818066D01*
X198345389Y-93813501D01*
X198996613Y-93813501D01*
X199042967Y-93818066D01*
X199042967Y-93818066D01*
G37*
G36*
X197167967Y-93818066D02*
X197206638Y-93829797D01*
X197242280Y-93848849D01*
X197273518Y-93874484D01*
X197299153Y-93905722D01*
X197318205Y-93941364D01*
X197329936Y-93980035D01*
X197334501Y-94026389D01*
X197334501Y-95102613D01*
X197329936Y-95148967D01*
X197318205Y-95187638D01*
X197299153Y-95223280D01*
X197273518Y-95254518D01*
X197242280Y-95280153D01*
X197206638Y-95299205D01*
X197167967Y-95310936D01*
X197121613Y-95315501D01*
X196470389Y-95315501D01*
X196424035Y-95310936D01*
X196385364Y-95299205D01*
X196349722Y-95280153D01*
X196318484Y-95254518D01*
X196292849Y-95223280D01*
X196273797Y-95187638D01*
X196262066Y-95148967D01*
X196257501Y-95102613D01*
X196257501Y-94026389D01*
X196262066Y-93980035D01*
X196273797Y-93941364D01*
X196292849Y-93905722D01*
X196318484Y-93874484D01*
X196349722Y-93848849D01*
X196385364Y-93829797D01*
X196424035Y-93818066D01*
X196470389Y-93813501D01*
X197121613Y-93813501D01*
X197167967Y-93818066D01*
X197167967Y-93818066D01*
G37*
G36*
X177888500Y-93355000D02*
X176286500Y-93355000D01*
X176286500Y-91253000D01*
X177888500Y-91253000D01*
X177888500Y-93355000D01*
X177888500Y-93355000D01*
G37*
G36*
X182488500Y-93355000D02*
X180886500Y-93355000D01*
X180886500Y-91253000D01*
X182488500Y-91253000D01*
X182488500Y-93355000D01*
X182488500Y-93355000D01*
G37*
G36*
X180188500Y-93355000D02*
X178586500Y-93355000D01*
X178586500Y-91253000D01*
X180188500Y-91253000D01*
X180188500Y-93355000D01*
X180188500Y-93355000D01*
G37*
G36*
X222063500Y-93258500D02*
X221161500Y-93258500D01*
X221161500Y-92256500D01*
X222063500Y-92256500D01*
X222063500Y-93258500D01*
X222063500Y-93258500D01*
G37*
G36*
X220163500Y-93258500D02*
X219261500Y-93258500D01*
X219261500Y-92256500D01*
X220163500Y-92256500D01*
X220163500Y-93258500D01*
X220163500Y-93258500D01*
G37*
G36*
X221113500Y-91258500D02*
X220211500Y-91258500D01*
X220211500Y-90256500D01*
X221113500Y-90256500D01*
X221113500Y-91258500D01*
X221113500Y-91258500D01*
G37*
G36*
X201447467Y-87670066D02*
X201486138Y-87681797D01*
X201521780Y-87700849D01*
X201553018Y-87726484D01*
X201578653Y-87757722D01*
X201597705Y-87793364D01*
X201609436Y-87832035D01*
X201614001Y-87878389D01*
X201614001Y-88954613D01*
X201609436Y-89000967D01*
X201597705Y-89039638D01*
X201578653Y-89075280D01*
X201553018Y-89106518D01*
X201521780Y-89132153D01*
X201486138Y-89151205D01*
X201447467Y-89162936D01*
X201401113Y-89167501D01*
X200749889Y-89167501D01*
X200703535Y-89162936D01*
X200664864Y-89151205D01*
X200629222Y-89132153D01*
X200597984Y-89106518D01*
X200572349Y-89075280D01*
X200553297Y-89039638D01*
X200541566Y-89000967D01*
X200537001Y-88954613D01*
X200537001Y-87878389D01*
X200541566Y-87832035D01*
X200553297Y-87793364D01*
X200572349Y-87757722D01*
X200597984Y-87726484D01*
X200629222Y-87700849D01*
X200664864Y-87681797D01*
X200703535Y-87670066D01*
X200749889Y-87665501D01*
X201401113Y-87665501D01*
X201447467Y-87670066D01*
X201447467Y-87670066D01*
G37*
G36*
X199572467Y-87670066D02*
X199611138Y-87681797D01*
X199646780Y-87700849D01*
X199678018Y-87726484D01*
X199703653Y-87757722D01*
X199722705Y-87793364D01*
X199734436Y-87832035D01*
X199739001Y-87878389D01*
X199739001Y-88954613D01*
X199734436Y-89000967D01*
X199722705Y-89039638D01*
X199703653Y-89075280D01*
X199678018Y-89106518D01*
X199646780Y-89132153D01*
X199611138Y-89151205D01*
X199572467Y-89162936D01*
X199526113Y-89167501D01*
X198874889Y-89167501D01*
X198828535Y-89162936D01*
X198789864Y-89151205D01*
X198754222Y-89132153D01*
X198722984Y-89106518D01*
X198697349Y-89075280D01*
X198678297Y-89039638D01*
X198666566Y-89000967D01*
X198662001Y-88954613D01*
X198662001Y-87878389D01*
X198666566Y-87832035D01*
X198678297Y-87793364D01*
X198697349Y-87757722D01*
X198722984Y-87726484D01*
X198754222Y-87700849D01*
X198789864Y-87681797D01*
X198828535Y-87670066D01*
X198874889Y-87665501D01*
X199526113Y-87665501D01*
X199572467Y-87670066D01*
X199572467Y-87670066D01*
G37*
G36*
X207239000Y-89111500D02*
X205837000Y-89111500D01*
X205837000Y-87459500D01*
X207239000Y-87459500D01*
X207239000Y-89111500D01*
X207239000Y-89111500D01*
G37*
G36*
X211739000Y-89111500D02*
X210337000Y-89111500D01*
X210337000Y-87459500D01*
X211739000Y-87459500D01*
X211739000Y-89111500D01*
X211739000Y-89111500D01*
G37*
G36*
X223833967Y-86162566D02*
X223872638Y-86174297D01*
X223908280Y-86193349D01*
X223939518Y-86218984D01*
X223965153Y-86250222D01*
X223984205Y-86285864D01*
X223995936Y-86324535D01*
X224000501Y-86370889D01*
X224000501Y-87447113D01*
X223995936Y-87493467D01*
X223984205Y-87532138D01*
X223965153Y-87567780D01*
X223939518Y-87599018D01*
X223908280Y-87624653D01*
X223872638Y-87643705D01*
X223833967Y-87655436D01*
X223787613Y-87660001D01*
X223136389Y-87660001D01*
X223090035Y-87655436D01*
X223051364Y-87643705D01*
X223015722Y-87624653D01*
X222984484Y-87599018D01*
X222958849Y-87567780D01*
X222939797Y-87532138D01*
X222928066Y-87493467D01*
X222923501Y-87447113D01*
X222923501Y-86370889D01*
X222928066Y-86324535D01*
X222939797Y-86285864D01*
X222958849Y-86250222D01*
X222984484Y-86218984D01*
X223015722Y-86193349D01*
X223051364Y-86174297D01*
X223090035Y-86162566D01*
X223136389Y-86158001D01*
X223787613Y-86158001D01*
X223833967Y-86162566D01*
X223833967Y-86162566D01*
G37*
G36*
X221958967Y-86162566D02*
X221997638Y-86174297D01*
X222033280Y-86193349D01*
X222064518Y-86218984D01*
X222090153Y-86250222D01*
X222109205Y-86285864D01*
X222120936Y-86324535D01*
X222125501Y-86370889D01*
X222125501Y-87447113D01*
X222120936Y-87493467D01*
X222109205Y-87532138D01*
X222090153Y-87567780D01*
X222064518Y-87599018D01*
X222033280Y-87624653D01*
X221997638Y-87643705D01*
X221958967Y-87655436D01*
X221912613Y-87660001D01*
X221261389Y-87660001D01*
X221215035Y-87655436D01*
X221176364Y-87643705D01*
X221140722Y-87624653D01*
X221109484Y-87599018D01*
X221083849Y-87567780D01*
X221064797Y-87532138D01*
X221053066Y-87493467D01*
X221048501Y-87447113D01*
X221048501Y-86370889D01*
X221053066Y-86324535D01*
X221064797Y-86285864D01*
X221083849Y-86250222D01*
X221109484Y-86218984D01*
X221140722Y-86193349D01*
X221176364Y-86174297D01*
X221215035Y-86162566D01*
X221261389Y-86158001D01*
X221912613Y-86158001D01*
X221958967Y-86162566D01*
X221958967Y-86162566D01*
G37*
G36*
X201447467Y-85720066D02*
X201486138Y-85731797D01*
X201521780Y-85750849D01*
X201553018Y-85776484D01*
X201578653Y-85807722D01*
X201597705Y-85843364D01*
X201609436Y-85882035D01*
X201614001Y-85928389D01*
X201614001Y-87004613D01*
X201609436Y-87050967D01*
X201597705Y-87089638D01*
X201578653Y-87125280D01*
X201553018Y-87156518D01*
X201521780Y-87182153D01*
X201486138Y-87201205D01*
X201447467Y-87212936D01*
X201401113Y-87217501D01*
X200749889Y-87217501D01*
X200703535Y-87212936D01*
X200664864Y-87201205D01*
X200629222Y-87182153D01*
X200597984Y-87156518D01*
X200572349Y-87125280D01*
X200553297Y-87089638D01*
X200541566Y-87050967D01*
X200537001Y-87004613D01*
X200537001Y-85928389D01*
X200541566Y-85882035D01*
X200553297Y-85843364D01*
X200572349Y-85807722D01*
X200597984Y-85776484D01*
X200629222Y-85750849D01*
X200664864Y-85731797D01*
X200703535Y-85720066D01*
X200749889Y-85715501D01*
X201401113Y-85715501D01*
X201447467Y-85720066D01*
X201447467Y-85720066D01*
G37*
G36*
X199572467Y-85720066D02*
X199611138Y-85731797D01*
X199646780Y-85750849D01*
X199678018Y-85776484D01*
X199703653Y-85807722D01*
X199722705Y-85843364D01*
X199734436Y-85882035D01*
X199739001Y-85928389D01*
X199739001Y-87004613D01*
X199734436Y-87050967D01*
X199722705Y-87089638D01*
X199703653Y-87125280D01*
X199678018Y-87156518D01*
X199646780Y-87182153D01*
X199611138Y-87201205D01*
X199572467Y-87212936D01*
X199526113Y-87217501D01*
X198874889Y-87217501D01*
X198828535Y-87212936D01*
X198789864Y-87201205D01*
X198754222Y-87182153D01*
X198722984Y-87156518D01*
X198697349Y-87125280D01*
X198678297Y-87089638D01*
X198666566Y-87050967D01*
X198662001Y-87004613D01*
X198662001Y-85928389D01*
X198666566Y-85882035D01*
X198678297Y-85843364D01*
X198697349Y-85807722D01*
X198722984Y-85776484D01*
X198754222Y-85750849D01*
X198789864Y-85731797D01*
X198828535Y-85720066D01*
X198874889Y-85715501D01*
X199526113Y-85715501D01*
X199572467Y-85720066D01*
X199572467Y-85720066D01*
G37*
G36*
X181338500Y-87055000D02*
X177436500Y-87055000D01*
X177436500Y-84953000D01*
X181338500Y-84953000D01*
X181338500Y-87055000D01*
X181338500Y-87055000D01*
G37*
G36*
X191925467Y-84635566D02*
X191964138Y-84647297D01*
X191999780Y-84666349D01*
X192031018Y-84691984D01*
X192056653Y-84723222D01*
X192075705Y-84758864D01*
X192087436Y-84797535D01*
X192092001Y-84843889D01*
X192092001Y-85920113D01*
X192087436Y-85966467D01*
X192075705Y-86005138D01*
X192056653Y-86040780D01*
X192031018Y-86072018D01*
X191999780Y-86097653D01*
X191964138Y-86116705D01*
X191925467Y-86128436D01*
X191879113Y-86133001D01*
X191227889Y-86133001D01*
X191181535Y-86128436D01*
X191142864Y-86116705D01*
X191107222Y-86097653D01*
X191075984Y-86072018D01*
X191050349Y-86040780D01*
X191031297Y-86005138D01*
X191019566Y-85966467D01*
X191015001Y-85920113D01*
X191015001Y-84843889D01*
X191019566Y-84797535D01*
X191031297Y-84758864D01*
X191050349Y-84723222D01*
X191075984Y-84691984D01*
X191107222Y-84666349D01*
X191142864Y-84647297D01*
X191181535Y-84635566D01*
X191227889Y-84631001D01*
X191879113Y-84631001D01*
X191925467Y-84635566D01*
X191925467Y-84635566D01*
G37*
G36*
X190050467Y-84635566D02*
X190089138Y-84647297D01*
X190124780Y-84666349D01*
X190156018Y-84691984D01*
X190181653Y-84723222D01*
X190200705Y-84758864D01*
X190212436Y-84797535D01*
X190217001Y-84843889D01*
X190217001Y-85920113D01*
X190212436Y-85966467D01*
X190200705Y-86005138D01*
X190181653Y-86040780D01*
X190156018Y-86072018D01*
X190124780Y-86097653D01*
X190089138Y-86116705D01*
X190050467Y-86128436D01*
X190004113Y-86133001D01*
X189352889Y-86133001D01*
X189306535Y-86128436D01*
X189267864Y-86116705D01*
X189232222Y-86097653D01*
X189200984Y-86072018D01*
X189175349Y-86040780D01*
X189156297Y-86005138D01*
X189144566Y-85966467D01*
X189140001Y-85920113D01*
X189140001Y-84843889D01*
X189144566Y-84797535D01*
X189156297Y-84758864D01*
X189175349Y-84723222D01*
X189200984Y-84691984D01*
X189232222Y-84666349D01*
X189267864Y-84647297D01*
X189306535Y-84635566D01*
X189352889Y-84631001D01*
X190004113Y-84631001D01*
X190050467Y-84635566D01*
X190050467Y-84635566D01*
G37*
G36*
X222768967Y-84212566D02*
X222807638Y-84224297D01*
X222843280Y-84243349D01*
X222874518Y-84268984D01*
X222900153Y-84300222D01*
X222919205Y-84335864D01*
X222930936Y-84374535D01*
X222935501Y-84420889D01*
X222935501Y-85497113D01*
X222930936Y-85543467D01*
X222919205Y-85582138D01*
X222900153Y-85617780D01*
X222874518Y-85649018D01*
X222843280Y-85674653D01*
X222807638Y-85693705D01*
X222768967Y-85705436D01*
X222722613Y-85710001D01*
X222071389Y-85710001D01*
X222025035Y-85705436D01*
X221986364Y-85693705D01*
X221950722Y-85674653D01*
X221919484Y-85649018D01*
X221893849Y-85617780D01*
X221874797Y-85582138D01*
X221863066Y-85543467D01*
X221858501Y-85497113D01*
X221858501Y-84420889D01*
X221863066Y-84374535D01*
X221874797Y-84335864D01*
X221893849Y-84300222D01*
X221919484Y-84268984D01*
X221950722Y-84243349D01*
X221986364Y-84224297D01*
X222025035Y-84212566D01*
X222071389Y-84208001D01*
X222722613Y-84208001D01*
X222768967Y-84212566D01*
X222768967Y-84212566D01*
G37*
G36*
X224643967Y-84212566D02*
X224682638Y-84224297D01*
X224718280Y-84243349D01*
X224749518Y-84268984D01*
X224775153Y-84300222D01*
X224794205Y-84335864D01*
X224805936Y-84374535D01*
X224810501Y-84420889D01*
X224810501Y-85497113D01*
X224805936Y-85543467D01*
X224794205Y-85582138D01*
X224775153Y-85617780D01*
X224749518Y-85649018D01*
X224718280Y-85674653D01*
X224682638Y-85693705D01*
X224643967Y-85705436D01*
X224597613Y-85710001D01*
X223946389Y-85710001D01*
X223900035Y-85705436D01*
X223861364Y-85693705D01*
X223825722Y-85674653D01*
X223794484Y-85649018D01*
X223768849Y-85617780D01*
X223749797Y-85582138D01*
X223738066Y-85543467D01*
X223733501Y-85497113D01*
X223733501Y-84420889D01*
X223738066Y-84374535D01*
X223749797Y-84335864D01*
X223768849Y-84300222D01*
X223794484Y-84268984D01*
X223825722Y-84243349D01*
X223861364Y-84224297D01*
X223900035Y-84212566D01*
X223946389Y-84208001D01*
X224597613Y-84208001D01*
X224643967Y-84212566D01*
X224643967Y-84212566D01*
G37*
G36*
X219685966Y-84089565D02*
X219724637Y-84101296D01*
X219760279Y-84120348D01*
X219791517Y-84145983D01*
X219817152Y-84177221D01*
X219836204Y-84212863D01*
X219847935Y-84251534D01*
X219852500Y-84297888D01*
X219852500Y-85374112D01*
X219847935Y-85420466D01*
X219836204Y-85459137D01*
X219817152Y-85494779D01*
X219791517Y-85526017D01*
X219760279Y-85551652D01*
X219724637Y-85570704D01*
X219685966Y-85582435D01*
X219639612Y-85587000D01*
X218988388Y-85587000D01*
X218942034Y-85582435D01*
X218903363Y-85570704D01*
X218867721Y-85551652D01*
X218836483Y-85526017D01*
X218810848Y-85494779D01*
X218791796Y-85459137D01*
X218780065Y-85420466D01*
X218775500Y-85374112D01*
X218775500Y-84297888D01*
X218780065Y-84251534D01*
X218791796Y-84212863D01*
X218810848Y-84177221D01*
X218836483Y-84145983D01*
X218867721Y-84120348D01*
X218903363Y-84101296D01*
X218942034Y-84089565D01*
X218988388Y-84085000D01*
X219639612Y-84085000D01*
X219685966Y-84089565D01*
X219685966Y-84089565D01*
G37*
G36*
X217810966Y-84089565D02*
X217849637Y-84101296D01*
X217885279Y-84120348D01*
X217916517Y-84145983D01*
X217942152Y-84177221D01*
X217961204Y-84212863D01*
X217972935Y-84251534D01*
X217977500Y-84297888D01*
X217977500Y-85374112D01*
X217972935Y-85420466D01*
X217961204Y-85459137D01*
X217942152Y-85494779D01*
X217916517Y-85526017D01*
X217885279Y-85551652D01*
X217849637Y-85570704D01*
X217810966Y-85582435D01*
X217764612Y-85587000D01*
X217113388Y-85587000D01*
X217067034Y-85582435D01*
X217028363Y-85570704D01*
X216992721Y-85551652D01*
X216961483Y-85526017D01*
X216935848Y-85494779D01*
X216916796Y-85459137D01*
X216905065Y-85420466D01*
X216900500Y-85374112D01*
X216900500Y-84297888D01*
X216905065Y-84251534D01*
X216916796Y-84212863D01*
X216935848Y-84177221D01*
X216961483Y-84145983D01*
X216992721Y-84120348D01*
X217028363Y-84101296D01*
X217067034Y-84089565D01*
X217113388Y-84085000D01*
X217764612Y-84085000D01*
X217810966Y-84089565D01*
X217810966Y-84089565D01*
G37*
G36*
X212099000Y-85321000D02*
X211197000Y-85321000D01*
X211197000Y-84319000D01*
X212099000Y-84319000D01*
X212099000Y-85321000D01*
X212099000Y-85321000D01*
G37*
G36*
X213999000Y-85321000D02*
X213097000Y-85321000D01*
X213097000Y-84319000D01*
X213999000Y-84319000D01*
X213999000Y-85321000D01*
X213999000Y-85321000D01*
G37*
G36*
X186251466Y-82629065D02*
X186290137Y-82640796D01*
X186325779Y-82659848D01*
X186357017Y-82685483D01*
X186382652Y-82716721D01*
X186401704Y-82752363D01*
X186413435Y-82791034D01*
X186418000Y-82837388D01*
X186418000Y-83913612D01*
X186413435Y-83959966D01*
X186401704Y-83998637D01*
X186382652Y-84034279D01*
X186357017Y-84065517D01*
X186325779Y-84091152D01*
X186290137Y-84110204D01*
X186251466Y-84121935D01*
X186205112Y-84126500D01*
X185553888Y-84126500D01*
X185507534Y-84121935D01*
X185468863Y-84110204D01*
X185433221Y-84091152D01*
X185401983Y-84065517D01*
X185376348Y-84034279D01*
X185357296Y-83998637D01*
X185345565Y-83959966D01*
X185341000Y-83913612D01*
X185341000Y-82837388D01*
X185345565Y-82791034D01*
X185357296Y-82752363D01*
X185376348Y-82716721D01*
X185401983Y-82685483D01*
X185433221Y-82659848D01*
X185468863Y-82640796D01*
X185507534Y-82629065D01*
X185553888Y-82624500D01*
X186205112Y-82624500D01*
X186251466Y-82629065D01*
X186251466Y-82629065D01*
G37*
G36*
X188126466Y-82629065D02*
X188165137Y-82640796D01*
X188200779Y-82659848D01*
X188232017Y-82685483D01*
X188257652Y-82716721D01*
X188276704Y-82752363D01*
X188288435Y-82791034D01*
X188293000Y-82837388D01*
X188293000Y-83913612D01*
X188288435Y-83959966D01*
X188276704Y-83998637D01*
X188257652Y-84034279D01*
X188232017Y-84065517D01*
X188200779Y-84091152D01*
X188165137Y-84110204D01*
X188126466Y-84121935D01*
X188080112Y-84126500D01*
X187428888Y-84126500D01*
X187382534Y-84121935D01*
X187343863Y-84110204D01*
X187308221Y-84091152D01*
X187276983Y-84065517D01*
X187251348Y-84034279D01*
X187232296Y-83998637D01*
X187220565Y-83959966D01*
X187216000Y-83913612D01*
X187216000Y-82837388D01*
X187220565Y-82791034D01*
X187232296Y-82752363D01*
X187251348Y-82716721D01*
X187276983Y-82685483D01*
X187308221Y-82659848D01*
X187343863Y-82640796D01*
X187382534Y-82629065D01*
X187428888Y-82624500D01*
X188080112Y-82624500D01*
X188126466Y-82629065D01*
X188126466Y-82629065D01*
G37*
G36*
X213049000Y-83321000D02*
X212147000Y-83321000D01*
X212147000Y-82319000D01*
X213049000Y-82319000D01*
X213049000Y-83321000D01*
X213049000Y-83321000D01*
G37*
G36*
X200087967Y-81705066D02*
X200126638Y-81716797D01*
X200162280Y-81735849D01*
X200193518Y-81761484D01*
X200219153Y-81792722D01*
X200238205Y-81828364D01*
X200249936Y-81867035D01*
X200254501Y-81913389D01*
X200254501Y-82989613D01*
X200249936Y-83035967D01*
X200238205Y-83074638D01*
X200219153Y-83110280D01*
X200193518Y-83141518D01*
X200162280Y-83167153D01*
X200126638Y-83186205D01*
X200087967Y-83197936D01*
X200041613Y-83202501D01*
X199390389Y-83202501D01*
X199344035Y-83197936D01*
X199305364Y-83186205D01*
X199269722Y-83167153D01*
X199238484Y-83141518D01*
X199212849Y-83110280D01*
X199193797Y-83074638D01*
X199182066Y-83035967D01*
X199177501Y-82989613D01*
X199177501Y-81913389D01*
X199182066Y-81867035D01*
X199193797Y-81828364D01*
X199212849Y-81792722D01*
X199238484Y-81761484D01*
X199269722Y-81735849D01*
X199305364Y-81716797D01*
X199344035Y-81705066D01*
X199390389Y-81700501D01*
X200041613Y-81700501D01*
X200087967Y-81705066D01*
X200087967Y-81705066D01*
G37*
G36*
X203497967Y-81705066D02*
X203536638Y-81716797D01*
X203572280Y-81735849D01*
X203603518Y-81761484D01*
X203629153Y-81792722D01*
X203648205Y-81828364D01*
X203659936Y-81867035D01*
X203664501Y-81913389D01*
X203664501Y-82989613D01*
X203659936Y-83035967D01*
X203648205Y-83074638D01*
X203629153Y-83110280D01*
X203603518Y-83141518D01*
X203572280Y-83167153D01*
X203536638Y-83186205D01*
X203497967Y-83197936D01*
X203451613Y-83202501D01*
X202800389Y-83202501D01*
X202754035Y-83197936D01*
X202715364Y-83186205D01*
X202679722Y-83167153D01*
X202648484Y-83141518D01*
X202622849Y-83110280D01*
X202603797Y-83074638D01*
X202592066Y-83035967D01*
X202587501Y-82989613D01*
X202587501Y-81913389D01*
X202592066Y-81867035D01*
X202603797Y-81828364D01*
X202622849Y-81792722D01*
X202648484Y-81761484D01*
X202679722Y-81735849D01*
X202715364Y-81716797D01*
X202754035Y-81705066D01*
X202800389Y-81700501D01*
X203451613Y-81700501D01*
X203497967Y-81705066D01*
X203497967Y-81705066D01*
G37*
G36*
X205372967Y-81705066D02*
X205411638Y-81716797D01*
X205447280Y-81735849D01*
X205478518Y-81761484D01*
X205504153Y-81792722D01*
X205523205Y-81828364D01*
X205534936Y-81867035D01*
X205539501Y-81913389D01*
X205539501Y-82989613D01*
X205534936Y-83035967D01*
X205523205Y-83074638D01*
X205504153Y-83110280D01*
X205478518Y-83141518D01*
X205447280Y-83167153D01*
X205411638Y-83186205D01*
X205372967Y-83197936D01*
X205326613Y-83202501D01*
X204675389Y-83202501D01*
X204629035Y-83197936D01*
X204590364Y-83186205D01*
X204554722Y-83167153D01*
X204523484Y-83141518D01*
X204497849Y-83110280D01*
X204478797Y-83074638D01*
X204467066Y-83035967D01*
X204462501Y-82989613D01*
X204462501Y-81913389D01*
X204467066Y-81867035D01*
X204478797Y-81828364D01*
X204497849Y-81792722D01*
X204523484Y-81761484D01*
X204554722Y-81735849D01*
X204590364Y-81716797D01*
X204629035Y-81705066D01*
X204675389Y-81700501D01*
X205326613Y-81700501D01*
X205372967Y-81705066D01*
X205372967Y-81705066D01*
G37*
G36*
X201962967Y-81705066D02*
X202001638Y-81716797D01*
X202037280Y-81735849D01*
X202068518Y-81761484D01*
X202094153Y-81792722D01*
X202113205Y-81828364D01*
X202124936Y-81867035D01*
X202129501Y-81913389D01*
X202129501Y-82989613D01*
X202124936Y-83035967D01*
X202113205Y-83074638D01*
X202094153Y-83110280D01*
X202068518Y-83141518D01*
X202037280Y-83167153D01*
X202001638Y-83186205D01*
X201962967Y-83197936D01*
X201916613Y-83202501D01*
X201265389Y-83202501D01*
X201219035Y-83197936D01*
X201180364Y-83186205D01*
X201144722Y-83167153D01*
X201113484Y-83141518D01*
X201087849Y-83110280D01*
X201068797Y-83074638D01*
X201057066Y-83035967D01*
X201052501Y-82989613D01*
X201052501Y-81913389D01*
X201057066Y-81867035D01*
X201068797Y-81828364D01*
X201087849Y-81792722D01*
X201113484Y-81761484D01*
X201144722Y-81735849D01*
X201180364Y-81716797D01*
X201219035Y-81705066D01*
X201265389Y-81700501D01*
X201916613Y-81700501D01*
X201962967Y-81705066D01*
X201962967Y-81705066D01*
G37*
G36*
X178948966Y-79200065D02*
X178987637Y-79211796D01*
X179023279Y-79230848D01*
X179054517Y-79256483D01*
X179080152Y-79287721D01*
X179099204Y-79323363D01*
X179110935Y-79362034D01*
X179115500Y-79408388D01*
X179115500Y-80484612D01*
X179110935Y-80530966D01*
X179099204Y-80569637D01*
X179080152Y-80605279D01*
X179054517Y-80636517D01*
X179023279Y-80662152D01*
X178987637Y-80681204D01*
X178948966Y-80692935D01*
X178902612Y-80697500D01*
X178251388Y-80697500D01*
X178205034Y-80692935D01*
X178166363Y-80681204D01*
X178130721Y-80662152D01*
X178099483Y-80636517D01*
X178073848Y-80605279D01*
X178054796Y-80569637D01*
X178043065Y-80530966D01*
X178038500Y-80484612D01*
X178038500Y-79408388D01*
X178043065Y-79362034D01*
X178054796Y-79323363D01*
X178073848Y-79287721D01*
X178099483Y-79256483D01*
X178130721Y-79230848D01*
X178166363Y-79211796D01*
X178205034Y-79200065D01*
X178251388Y-79195500D01*
X178902612Y-79195500D01*
X178948966Y-79200065D01*
X178948966Y-79200065D01*
G37*
G36*
X180823966Y-79200065D02*
X180862637Y-79211796D01*
X180898279Y-79230848D01*
X180929517Y-79256483D01*
X180955152Y-79287721D01*
X180974204Y-79323363D01*
X180985935Y-79362034D01*
X180990500Y-79408388D01*
X180990500Y-80484612D01*
X180985935Y-80530966D01*
X180974204Y-80569637D01*
X180955152Y-80605279D01*
X180929517Y-80636517D01*
X180898279Y-80662152D01*
X180862637Y-80681204D01*
X180823966Y-80692935D01*
X180777612Y-80697500D01*
X180126388Y-80697500D01*
X180080034Y-80692935D01*
X180041363Y-80681204D01*
X180005721Y-80662152D01*
X179974483Y-80636517D01*
X179948848Y-80605279D01*
X179929796Y-80569637D01*
X179918065Y-80530966D01*
X179913500Y-80484612D01*
X179913500Y-79408388D01*
X179918065Y-79362034D01*
X179929796Y-79323363D01*
X179948848Y-79287721D01*
X179974483Y-79256483D01*
X180005721Y-79230848D01*
X180041363Y-79211796D01*
X180080034Y-79200065D01*
X180126388Y-79195500D01*
X180777612Y-79195500D01*
X180823966Y-79200065D01*
X180823966Y-79200065D01*
G37*
G36*
X186378466Y-79200065D02*
X186417137Y-79211796D01*
X186452779Y-79230848D01*
X186484017Y-79256483D01*
X186509652Y-79287721D01*
X186528704Y-79323363D01*
X186540435Y-79362034D01*
X186545000Y-79408388D01*
X186545000Y-80484612D01*
X186540435Y-80530966D01*
X186528704Y-80569637D01*
X186509652Y-80605279D01*
X186484017Y-80636517D01*
X186452779Y-80662152D01*
X186417137Y-80681204D01*
X186378466Y-80692935D01*
X186332112Y-80697500D01*
X185680888Y-80697500D01*
X185634534Y-80692935D01*
X185595863Y-80681204D01*
X185560221Y-80662152D01*
X185528983Y-80636517D01*
X185503348Y-80605279D01*
X185484296Y-80569637D01*
X185472565Y-80530966D01*
X185468000Y-80484612D01*
X185468000Y-79408388D01*
X185472565Y-79362034D01*
X185484296Y-79323363D01*
X185503348Y-79287721D01*
X185528983Y-79256483D01*
X185560221Y-79230848D01*
X185595863Y-79211796D01*
X185634534Y-79200065D01*
X185680888Y-79195500D01*
X186332112Y-79195500D01*
X186378466Y-79200065D01*
X186378466Y-79200065D01*
G37*
G36*
X188253466Y-79200065D02*
X188292137Y-79211796D01*
X188327779Y-79230848D01*
X188359017Y-79256483D01*
X188384652Y-79287721D01*
X188403704Y-79323363D01*
X188415435Y-79362034D01*
X188420000Y-79408388D01*
X188420000Y-80484612D01*
X188415435Y-80530966D01*
X188403704Y-80569637D01*
X188384652Y-80605279D01*
X188359017Y-80636517D01*
X188327779Y-80662152D01*
X188292137Y-80681204D01*
X188253466Y-80692935D01*
X188207112Y-80697500D01*
X187555888Y-80697500D01*
X187509534Y-80692935D01*
X187470863Y-80681204D01*
X187435221Y-80662152D01*
X187403983Y-80636517D01*
X187378348Y-80605279D01*
X187359296Y-80569637D01*
X187347565Y-80530966D01*
X187343000Y-80484612D01*
X187343000Y-79408388D01*
X187347565Y-79362034D01*
X187359296Y-79323363D01*
X187378348Y-79287721D01*
X187403983Y-79256483D01*
X187435221Y-79230848D01*
X187470863Y-79211796D01*
X187509534Y-79200065D01*
X187555888Y-79195500D01*
X188207112Y-79195500D01*
X188253466Y-79200065D01*
X188253466Y-79200065D01*
G37*
G36*
X224225467Y-78775066D02*
X224264138Y-78786797D01*
X224299780Y-78805849D01*
X224331018Y-78831484D01*
X224356653Y-78862722D01*
X224375705Y-78898364D01*
X224387436Y-78937035D01*
X224392001Y-78983389D01*
X224392001Y-80059613D01*
X224387436Y-80105967D01*
X224375705Y-80144638D01*
X224356653Y-80180280D01*
X224331018Y-80211518D01*
X224299780Y-80237153D01*
X224264138Y-80256205D01*
X224225467Y-80267936D01*
X224179113Y-80272501D01*
X223527889Y-80272501D01*
X223481535Y-80267936D01*
X223442864Y-80256205D01*
X223407222Y-80237153D01*
X223375984Y-80211518D01*
X223350349Y-80180280D01*
X223331297Y-80144638D01*
X223319566Y-80105967D01*
X223315001Y-80059613D01*
X223315001Y-78983389D01*
X223319566Y-78937035D01*
X223331297Y-78898364D01*
X223350349Y-78862722D01*
X223375984Y-78831484D01*
X223407222Y-78805849D01*
X223442864Y-78786797D01*
X223481535Y-78775066D01*
X223527889Y-78770501D01*
X224179113Y-78770501D01*
X224225467Y-78775066D01*
X224225467Y-78775066D01*
G37*
G36*
X222350467Y-78775066D02*
X222389138Y-78786797D01*
X222424780Y-78805849D01*
X222456018Y-78831484D01*
X222481653Y-78862722D01*
X222500705Y-78898364D01*
X222512436Y-78937035D01*
X222517001Y-78983389D01*
X222517001Y-80059613D01*
X222512436Y-80105967D01*
X222500705Y-80144638D01*
X222481653Y-80180280D01*
X222456018Y-80211518D01*
X222424780Y-80237153D01*
X222389138Y-80256205D01*
X222350467Y-80267936D01*
X222304113Y-80272501D01*
X221652889Y-80272501D01*
X221606535Y-80267936D01*
X221567864Y-80256205D01*
X221532222Y-80237153D01*
X221500984Y-80211518D01*
X221475349Y-80180280D01*
X221456297Y-80144638D01*
X221444566Y-80105967D01*
X221440001Y-80059613D01*
X221440001Y-78983389D01*
X221444566Y-78937035D01*
X221456297Y-78898364D01*
X221475349Y-78862722D01*
X221500984Y-78831484D01*
X221532222Y-78805849D01*
X221567864Y-78786797D01*
X221606535Y-78775066D01*
X221652889Y-78770501D01*
X222304113Y-78770501D01*
X222350467Y-78775066D01*
X222350467Y-78775066D01*
G37*
G36*
X218940467Y-78775066D02*
X218979138Y-78786797D01*
X219014780Y-78805849D01*
X219046018Y-78831484D01*
X219071653Y-78862722D01*
X219090705Y-78898364D01*
X219102436Y-78937035D01*
X219107001Y-78983389D01*
X219107001Y-80059613D01*
X219102436Y-80105967D01*
X219090705Y-80144638D01*
X219071653Y-80180280D01*
X219046018Y-80211518D01*
X219014780Y-80237153D01*
X218979138Y-80256205D01*
X218940467Y-80267936D01*
X218894113Y-80272501D01*
X218242889Y-80272501D01*
X218196535Y-80267936D01*
X218157864Y-80256205D01*
X218122222Y-80237153D01*
X218090984Y-80211518D01*
X218065349Y-80180280D01*
X218046297Y-80144638D01*
X218034566Y-80105967D01*
X218030001Y-80059613D01*
X218030001Y-78983389D01*
X218034566Y-78937035D01*
X218046297Y-78898364D01*
X218065349Y-78862722D01*
X218090984Y-78831484D01*
X218122222Y-78805849D01*
X218157864Y-78786797D01*
X218196535Y-78775066D01*
X218242889Y-78770501D01*
X218894113Y-78770501D01*
X218940467Y-78775066D01*
X218940467Y-78775066D01*
G37*
G36*
X220815467Y-78775066D02*
X220854138Y-78786797D01*
X220889780Y-78805849D01*
X220921018Y-78831484D01*
X220946653Y-78862722D01*
X220965705Y-78898364D01*
X220977436Y-78937035D01*
X220982001Y-78983389D01*
X220982001Y-80059613D01*
X220977436Y-80105967D01*
X220965705Y-80144638D01*
X220946653Y-80180280D01*
X220921018Y-80211518D01*
X220889780Y-80237153D01*
X220854138Y-80256205D01*
X220815467Y-80267936D01*
X220769113Y-80272501D01*
X220117889Y-80272501D01*
X220071535Y-80267936D01*
X220032864Y-80256205D01*
X219997222Y-80237153D01*
X219965984Y-80211518D01*
X219940349Y-80180280D01*
X219921297Y-80144638D01*
X219909566Y-80105967D01*
X219905001Y-80059613D01*
X219905001Y-78983389D01*
X219909566Y-78937035D01*
X219921297Y-78898364D01*
X219940349Y-78862722D01*
X219965984Y-78831484D01*
X219997222Y-78805849D01*
X220032864Y-78786797D01*
X220071535Y-78775066D01*
X220117889Y-78770501D01*
X220769113Y-78770501D01*
X220815467Y-78775066D01*
X220815467Y-78775066D01*
G37*
G36*
X199129000Y-76663500D02*
X198127000Y-76663500D01*
X198127000Y-74561500D01*
X199129000Y-74561500D01*
X199129000Y-76663500D01*
X199129000Y-76663500D01*
G37*
G36*
X200399000Y-76663500D02*
X199397000Y-76663500D01*
X199397000Y-74561500D01*
X200399000Y-74561500D01*
X200399000Y-76663500D01*
X200399000Y-76663500D01*
G37*
G36*
X206749000Y-76663500D02*
X205747000Y-76663500D01*
X205747000Y-74561500D01*
X206749000Y-74561500D01*
X206749000Y-76663500D01*
X206749000Y-76663500D01*
G37*
G36*
X201669000Y-76663500D02*
X200667000Y-76663500D01*
X200667000Y-74561500D01*
X201669000Y-74561500D01*
X201669000Y-76663500D01*
X201669000Y-76663500D01*
G37*
G36*
X202939000Y-76663500D02*
X201937000Y-76663500D01*
X201937000Y-74561500D01*
X202939000Y-74561500D01*
X202939000Y-76663500D01*
X202939000Y-76663500D01*
G37*
G36*
X197859000Y-76663500D02*
X196857000Y-76663500D01*
X196857000Y-74561500D01*
X197859000Y-74561500D01*
X197859000Y-76663500D01*
X197859000Y-76663500D01*
G37*
G36*
X196589000Y-76663500D02*
X195587000Y-76663500D01*
X195587000Y-74561500D01*
X196589000Y-74561500D01*
X196589000Y-76663500D01*
X196589000Y-76663500D01*
G37*
G36*
X205479000Y-76663500D02*
X204477000Y-76663500D01*
X204477000Y-74561500D01*
X205479000Y-74561500D01*
X205479000Y-76663500D01*
X205479000Y-76663500D01*
G37*
G36*
X204209000Y-76663500D02*
X203207000Y-76663500D01*
X203207000Y-74561500D01*
X204209000Y-74561500D01*
X204209000Y-76663500D01*
X204209000Y-76663500D01*
G37*
G36*
X208019000Y-76663500D02*
X207017000Y-76663500D01*
X207017000Y-74561500D01*
X208019000Y-74561500D01*
X208019000Y-76663500D01*
X208019000Y-76663500D01*
G37*
G36*
X185287500Y-75811500D02*
X182885500Y-75811500D01*
X182885500Y-75209500D01*
X185287500Y-75209500D01*
X185287500Y-75811500D01*
X185287500Y-75811500D01*
G37*
G36*
X223994500Y-75418000D02*
X222592500Y-75418000D01*
X222592500Y-73766000D01*
X223994500Y-73766000D01*
X223994500Y-75418000D01*
X223994500Y-75418000D01*
G37*
G36*
X219494500Y-75418000D02*
X218092500Y-75418000D01*
X218092500Y-73766000D01*
X219494500Y-73766000D01*
X219494500Y-75418000D01*
X219494500Y-75418000D01*
G37*
G36*
X211354000Y-75113500D02*
X209252000Y-75113500D01*
X209252000Y-74111500D01*
X211354000Y-74111500D01*
X211354000Y-75113500D01*
X211354000Y-75113500D01*
G37*
G36*
X194354000Y-75113500D02*
X192252000Y-75113500D01*
X192252000Y-74111500D01*
X194354000Y-74111500D01*
X194354000Y-75113500D01*
X194354000Y-75113500D01*
G37*
G36*
X194354000Y-73843500D02*
X192252000Y-73843500D01*
X192252000Y-72841500D01*
X194354000Y-72841500D01*
X194354000Y-73843500D01*
X194354000Y-73843500D01*
G37*
G36*
X211354000Y-73843500D02*
X209252000Y-73843500D01*
X209252000Y-72841500D01*
X211354000Y-72841500D01*
X211354000Y-73843500D01*
X211354000Y-73843500D01*
G37*
G36*
X185287500Y-73761500D02*
X182885500Y-73761500D01*
X182885500Y-73159500D01*
X185287500Y-73159500D01*
X185287500Y-73761500D01*
X185287500Y-73761500D01*
G37*
G36*
X194354000Y-72573500D02*
X192252000Y-72573500D01*
X192252000Y-71571500D01*
X194354000Y-71571500D01*
X194354000Y-72573500D01*
X194354000Y-72573500D01*
G37*
G36*
X211354000Y-72573500D02*
X209252000Y-72573500D01*
X209252000Y-71571500D01*
X211354000Y-71571500D01*
X211354000Y-72573500D01*
X211354000Y-72573500D01*
G37*
G36*
X211354000Y-71303500D02*
X209252000Y-71303500D01*
X209252000Y-70301500D01*
X211354000Y-70301500D01*
X211354000Y-71303500D01*
X211354000Y-71303500D01*
G37*
G36*
X194354000Y-71303500D02*
X192252000Y-71303500D01*
X192252000Y-70301500D01*
X194354000Y-70301500D01*
X194354000Y-71303500D01*
X194354000Y-71303500D01*
G37*
G36*
X178828966Y-69125565D02*
X178867637Y-69137296D01*
X178903279Y-69156348D01*
X178934517Y-69181983D01*
X178960152Y-69213221D01*
X178979204Y-69248863D01*
X178990935Y-69287534D01*
X178995500Y-69333888D01*
X178995500Y-69985112D01*
X178990935Y-70031466D01*
X178979204Y-70070137D01*
X178960152Y-70105779D01*
X178934517Y-70137017D01*
X178903279Y-70162652D01*
X178867637Y-70181704D01*
X178828966Y-70193435D01*
X178782612Y-70198000D01*
X177706388Y-70198000D01*
X177660034Y-70193435D01*
X177621363Y-70181704D01*
X177585721Y-70162652D01*
X177554483Y-70137017D01*
X177528848Y-70105779D01*
X177509796Y-70070137D01*
X177498065Y-70031466D01*
X177493500Y-69985112D01*
X177493500Y-69333888D01*
X177498065Y-69287534D01*
X177509796Y-69248863D01*
X177528848Y-69213221D01*
X177554483Y-69181983D01*
X177585721Y-69156348D01*
X177621363Y-69137296D01*
X177660034Y-69125565D01*
X177706388Y-69121000D01*
X178782612Y-69121000D01*
X178828966Y-69125565D01*
X178828966Y-69125565D01*
G37*
G36*
X194354000Y-70033500D02*
X192252000Y-70033500D01*
X192252000Y-69031500D01*
X194354000Y-69031500D01*
X194354000Y-70033500D01*
X194354000Y-70033500D01*
G37*
G36*
X211354000Y-70033500D02*
X209252000Y-70033500D01*
X209252000Y-69031500D01*
X211354000Y-69031500D01*
X211354000Y-70033500D01*
X211354000Y-70033500D01*
G37*
G36*
X185522966Y-67643065D02*
X185561637Y-67654796D01*
X185597279Y-67673848D01*
X185628517Y-67699483D01*
X185654152Y-67730721D01*
X185673204Y-67766363D01*
X185684935Y-67805034D01*
X185689500Y-67851388D01*
X185689500Y-68927612D01*
X185684935Y-68973966D01*
X185673204Y-69012637D01*
X185654152Y-69048279D01*
X185628517Y-69079517D01*
X185597279Y-69105152D01*
X185561637Y-69124204D01*
X185522966Y-69135935D01*
X185476612Y-69140500D01*
X184825388Y-69140500D01*
X184779034Y-69135935D01*
X184740363Y-69124204D01*
X184704721Y-69105152D01*
X184673483Y-69079517D01*
X184647848Y-69048279D01*
X184628796Y-69012637D01*
X184617065Y-68973966D01*
X184612500Y-68927612D01*
X184612500Y-67851388D01*
X184617065Y-67805034D01*
X184628796Y-67766363D01*
X184647848Y-67730721D01*
X184673483Y-67699483D01*
X184704721Y-67673848D01*
X184740363Y-67654796D01*
X184779034Y-67643065D01*
X184825388Y-67638500D01*
X185476612Y-67638500D01*
X185522966Y-67643065D01*
X185522966Y-67643065D01*
G37*
G36*
X183647966Y-67643065D02*
X183686637Y-67654796D01*
X183722279Y-67673848D01*
X183753517Y-67699483D01*
X183779152Y-67730721D01*
X183798204Y-67766363D01*
X183809935Y-67805034D01*
X183814500Y-67851388D01*
X183814500Y-68927612D01*
X183809935Y-68973966D01*
X183798204Y-69012637D01*
X183779152Y-69048279D01*
X183753517Y-69079517D01*
X183722279Y-69105152D01*
X183686637Y-69124204D01*
X183647966Y-69135935D01*
X183601612Y-69140500D01*
X182950388Y-69140500D01*
X182904034Y-69135935D01*
X182865363Y-69124204D01*
X182829721Y-69105152D01*
X182798483Y-69079517D01*
X182772848Y-69048279D01*
X182753796Y-69012637D01*
X182742065Y-68973966D01*
X182737500Y-68927612D01*
X182737500Y-67851388D01*
X182742065Y-67805034D01*
X182753796Y-67766363D01*
X182772848Y-67730721D01*
X182798483Y-67699483D01*
X182829721Y-67673848D01*
X182865363Y-67654796D01*
X182904034Y-67643065D01*
X182950388Y-67638500D01*
X183601612Y-67638500D01*
X183647966Y-67643065D01*
X183647966Y-67643065D01*
G37*
G36*
X211354000Y-68763500D02*
X209252000Y-68763500D01*
X209252000Y-67761500D01*
X211354000Y-67761500D01*
X211354000Y-68763500D01*
X211354000Y-68763500D01*
G37*
G36*
X194354000Y-68763500D02*
X192252000Y-68763500D01*
X192252000Y-67761500D01*
X194354000Y-67761500D01*
X194354000Y-68763500D01*
X194354000Y-68763500D01*
G37*
G36*
X178828966Y-67250565D02*
X178867637Y-67262296D01*
X178903279Y-67281348D01*
X178934517Y-67306983D01*
X178960152Y-67338221D01*
X178979204Y-67373863D01*
X178990935Y-67412534D01*
X178995500Y-67458888D01*
X178995500Y-68110112D01*
X178990935Y-68156466D01*
X178979204Y-68195137D01*
X178960152Y-68230779D01*
X178934517Y-68262017D01*
X178903279Y-68287652D01*
X178867637Y-68306704D01*
X178828966Y-68318435D01*
X178782612Y-68323000D01*
X177706388Y-68323000D01*
X177660034Y-68318435D01*
X177621363Y-68306704D01*
X177585721Y-68287652D01*
X177554483Y-68262017D01*
X177528848Y-68230779D01*
X177509796Y-68195137D01*
X177498065Y-68156466D01*
X177493500Y-68110112D01*
X177493500Y-67458888D01*
X177498065Y-67412534D01*
X177509796Y-67373863D01*
X177528848Y-67338221D01*
X177554483Y-67306983D01*
X177585721Y-67281348D01*
X177621363Y-67262296D01*
X177660034Y-67250565D01*
X177706388Y-67246000D01*
X178782612Y-67246000D01*
X178828966Y-67250565D01*
X178828966Y-67250565D01*
G37*
G36*
X203354000Y-68153500D02*
X198252000Y-68153500D01*
X198252000Y-63051500D01*
X203354000Y-63051500D01*
X203354000Y-68153500D01*
X203354000Y-68153500D01*
G37*
G36*
X194354000Y-67493500D02*
X192252000Y-67493500D01*
X192252000Y-66491500D01*
X194354000Y-66491500D01*
X194354000Y-67493500D01*
X194354000Y-67493500D01*
G37*
G36*
X211354000Y-67493500D02*
X209252000Y-67493500D01*
X209252000Y-66491500D01*
X211354000Y-66491500D01*
X211354000Y-67493500D01*
X211354000Y-67493500D01*
G37*
G36*
X223994500Y-67458000D02*
X222592500Y-67458000D01*
X222592500Y-65806000D01*
X223994500Y-65806000D01*
X223994500Y-67458000D01*
X223994500Y-67458000D01*
G37*
G36*
X219494500Y-67458000D02*
X218092500Y-67458000D01*
X218092500Y-65806000D01*
X219494500Y-65806000D01*
X219494500Y-67458000D01*
X219494500Y-67458000D01*
G37*
G36*
X194354000Y-66223500D02*
X192252000Y-66223500D01*
X192252000Y-65221500D01*
X194354000Y-65221500D01*
X194354000Y-66223500D01*
X194354000Y-66223500D01*
G37*
G36*
X211354000Y-66223500D02*
X209252000Y-66223500D01*
X209252000Y-65221500D01*
X211354000Y-65221500D01*
X211354000Y-66223500D01*
X211354000Y-66223500D01*
G37*
G36*
X216462466Y-64277565D02*
X216501137Y-64289296D01*
X216536779Y-64308348D01*
X216568017Y-64333983D01*
X216593652Y-64365221D01*
X216612704Y-64400863D01*
X216624435Y-64439534D01*
X216629000Y-64485888D01*
X216629000Y-65562112D01*
X216624435Y-65608466D01*
X216612704Y-65647137D01*
X216593652Y-65682779D01*
X216568017Y-65714017D01*
X216536779Y-65739652D01*
X216501137Y-65758704D01*
X216462466Y-65770435D01*
X216416112Y-65775000D01*
X215764888Y-65775000D01*
X215718534Y-65770435D01*
X215679863Y-65758704D01*
X215644221Y-65739652D01*
X215612983Y-65714017D01*
X215587348Y-65682779D01*
X215568296Y-65647137D01*
X215556565Y-65608466D01*
X215552000Y-65562112D01*
X215552000Y-64485888D01*
X215556565Y-64439534D01*
X215568296Y-64400863D01*
X215587348Y-64365221D01*
X215612983Y-64333983D01*
X215644221Y-64308348D01*
X215679863Y-64289296D01*
X215718534Y-64277565D01*
X215764888Y-64273000D01*
X216416112Y-64273000D01*
X216462466Y-64277565D01*
X216462466Y-64277565D01*
G37*
G36*
X214587466Y-64277565D02*
X214626137Y-64289296D01*
X214661779Y-64308348D01*
X214693017Y-64333983D01*
X214718652Y-64365221D01*
X214737704Y-64400863D01*
X214749435Y-64439534D01*
X214754000Y-64485888D01*
X214754000Y-65562112D01*
X214749435Y-65608466D01*
X214737704Y-65647137D01*
X214718652Y-65682779D01*
X214693017Y-65714017D01*
X214661779Y-65739652D01*
X214626137Y-65758704D01*
X214587466Y-65770435D01*
X214541112Y-65775000D01*
X213889888Y-65775000D01*
X213843534Y-65770435D01*
X213804863Y-65758704D01*
X213769221Y-65739652D01*
X213737983Y-65714017D01*
X213712348Y-65682779D01*
X213693296Y-65647137D01*
X213681565Y-65608466D01*
X213677000Y-65562112D01*
X213677000Y-64485888D01*
X213681565Y-64439534D01*
X213693296Y-64400863D01*
X213712348Y-64365221D01*
X213737983Y-64333983D01*
X213769221Y-64308348D01*
X213804863Y-64289296D01*
X213843534Y-64277565D01*
X213889888Y-64273000D01*
X214541112Y-64273000D01*
X214587466Y-64277565D01*
X214587466Y-64277565D01*
G37*
G36*
X194354000Y-64953500D02*
X192252000Y-64953500D01*
X192252000Y-63951500D01*
X194354000Y-63951500D01*
X194354000Y-64953500D01*
X194354000Y-64953500D01*
G37*
G36*
X211354000Y-64953500D02*
X209252000Y-64953500D01*
X209252000Y-63951500D01*
X211354000Y-63951500D01*
X211354000Y-64953500D01*
X211354000Y-64953500D01*
G37*
G36*
X184819000Y-62307100D02*
X184821402Y-62331486D01*
X184828515Y-62354935D01*
X184840066Y-62376546D01*
X184855612Y-62395488D01*
X184874554Y-62411034D01*
X184896165Y-62422585D01*
X184919614Y-62429698D01*
X184944000Y-62432100D01*
X185230900Y-62432100D01*
X185230900Y-63034100D01*
X184944000Y-63034100D01*
X184919614Y-63036502D01*
X184896165Y-63043615D01*
X184874554Y-63055166D01*
X184855612Y-63070712D01*
X184840066Y-63089654D01*
X184828515Y-63111265D01*
X184821402Y-63134714D01*
X184819000Y-63159100D01*
X184819000Y-64484100D01*
X180933588Y-64484100D01*
X180916386Y-64478882D01*
X180892000Y-64476480D01*
X180217000Y-64476480D01*
X180217000Y-63159100D01*
X180214598Y-63134714D01*
X180207485Y-63111265D01*
X180195934Y-63089654D01*
X180180388Y-63070712D01*
X180161446Y-63055166D01*
X180139835Y-63043615D01*
X180116386Y-63036502D01*
X180092000Y-63034100D01*
X179805100Y-63034100D01*
X179805100Y-62432100D01*
X180092000Y-62432100D01*
X180116386Y-62429698D01*
X180139835Y-62422585D01*
X180161446Y-62411034D01*
X180180388Y-62395488D01*
X180195934Y-62376546D01*
X180207485Y-62354935D01*
X180214169Y-62332900D01*
X181030900Y-62332900D01*
X181030900Y-63133300D01*
X181033302Y-63157686D01*
X181040415Y-63181135D01*
X181051966Y-63202746D01*
X181067512Y-63221688D01*
X181086454Y-63237234D01*
X181108065Y-63248785D01*
X181131514Y-63255898D01*
X181155900Y-63258300D01*
X183880100Y-63258300D01*
X183904486Y-63255898D01*
X183927935Y-63248785D01*
X183949546Y-63237234D01*
X183968488Y-63221688D01*
X183984034Y-63202746D01*
X183995585Y-63181135D01*
X184002698Y-63157686D01*
X184005100Y-63133300D01*
X184005100Y-62332900D01*
X184002698Y-62308514D01*
X183995585Y-62285065D01*
X183984034Y-62263454D01*
X183968488Y-62244512D01*
X183949546Y-62228966D01*
X183927935Y-62217415D01*
X183904486Y-62210302D01*
X183880100Y-62207900D01*
X181155900Y-62207900D01*
X181131514Y-62210302D01*
X181108065Y-62217415D01*
X181086454Y-62228966D01*
X181067512Y-62244512D01*
X181051966Y-62263454D01*
X181040415Y-62285065D01*
X181033302Y-62308514D01*
X181030900Y-62332900D01*
X180214169Y-62332900D01*
X180214598Y-62331486D01*
X180217000Y-62307100D01*
X180217000Y-60982100D01*
X184819000Y-60982100D01*
X184819000Y-62307100D01*
X184819000Y-62307100D01*
G37*
G36*
X194354000Y-63683500D02*
X192252000Y-63683500D01*
X192252000Y-62681500D01*
X194354000Y-62681500D01*
X194354000Y-63683500D01*
X194354000Y-63683500D01*
G37*
G36*
X211354000Y-63683500D02*
X209252000Y-63683500D01*
X209252000Y-62681500D01*
X211354000Y-62681500D01*
X211354000Y-63683500D01*
X211354000Y-63683500D01*
G37*
G36*
X194354000Y-62413500D02*
X192252000Y-62413500D01*
X192252000Y-61411500D01*
X194354000Y-61411500D01*
X194354000Y-62413500D01*
X194354000Y-62413500D01*
G37*
G36*
X211354000Y-62413500D02*
X209252000Y-62413500D01*
X209252000Y-61411500D01*
X211354000Y-61411500D01*
X211354000Y-62413500D01*
X211354000Y-62413500D01*
G37*
G36*
X214445466Y-60531065D02*
X214484137Y-60542796D01*
X214519779Y-60561848D01*
X214551017Y-60587483D01*
X214576652Y-60618721D01*
X214595704Y-60654363D01*
X214607435Y-60693034D01*
X214612000Y-60739388D01*
X214612000Y-61815612D01*
X214607435Y-61861966D01*
X214595704Y-61900637D01*
X214576652Y-61936279D01*
X214551017Y-61967517D01*
X214519779Y-61993152D01*
X214484137Y-62012204D01*
X214445466Y-62023935D01*
X214399112Y-62028500D01*
X213747888Y-62028500D01*
X213701534Y-62023935D01*
X213662863Y-62012204D01*
X213627221Y-61993152D01*
X213595983Y-61967517D01*
X213570348Y-61936279D01*
X213551296Y-61900637D01*
X213539565Y-61861966D01*
X213535000Y-61815612D01*
X213535000Y-60739388D01*
X213539565Y-60693034D01*
X213551296Y-60654363D01*
X213570348Y-60618721D01*
X213595983Y-60587483D01*
X213627221Y-60561848D01*
X213662863Y-60542796D01*
X213701534Y-60531065D01*
X213747888Y-60526500D01*
X214399112Y-60526500D01*
X214445466Y-60531065D01*
X214445466Y-60531065D01*
G37*
G36*
X216320466Y-60531065D02*
X216359137Y-60542796D01*
X216394779Y-60561848D01*
X216426017Y-60587483D01*
X216451652Y-60618721D01*
X216470704Y-60654363D01*
X216482435Y-60693034D01*
X216487000Y-60739388D01*
X216487000Y-61815612D01*
X216482435Y-61861966D01*
X216470704Y-61900637D01*
X216451652Y-61936279D01*
X216426017Y-61967517D01*
X216394779Y-61993152D01*
X216359137Y-62012204D01*
X216320466Y-62023935D01*
X216274112Y-62028500D01*
X215622888Y-62028500D01*
X215576534Y-62023935D01*
X215537863Y-62012204D01*
X215502221Y-61993152D01*
X215470983Y-61967517D01*
X215445348Y-61936279D01*
X215426296Y-61900637D01*
X215414565Y-61861966D01*
X215410000Y-61815612D01*
X215410000Y-60739388D01*
X215414565Y-60693034D01*
X215426296Y-60654363D01*
X215445348Y-60618721D01*
X215470983Y-60587483D01*
X215502221Y-60561848D01*
X215537863Y-60542796D01*
X215576534Y-60531065D01*
X215622888Y-60526500D01*
X216274112Y-60526500D01*
X216320466Y-60531065D01*
X216320466Y-60531065D01*
G37*
G36*
X211354000Y-61143500D02*
X209252000Y-61143500D01*
X209252000Y-60141500D01*
X211354000Y-60141500D01*
X211354000Y-61143500D01*
X211354000Y-61143500D01*
G37*
G36*
X194354000Y-61143500D02*
X192252000Y-61143500D01*
X192252000Y-60141500D01*
X194354000Y-60141500D01*
X194354000Y-61143500D01*
X194354000Y-61143500D01*
G37*
G36*
X194354000Y-59873500D02*
X192252000Y-59873500D01*
X192252000Y-58871500D01*
X194354000Y-58871500D01*
X194354000Y-59873500D01*
X194354000Y-59873500D01*
G37*
G36*
X211354000Y-59873500D02*
X209252000Y-59873500D01*
X209252000Y-58871500D01*
X211354000Y-58871500D01*
X211354000Y-59873500D01*
X211354000Y-59873500D01*
G37*
G36*
X211354000Y-58603500D02*
X209252000Y-58603500D01*
X209252000Y-57601500D01*
X211354000Y-57601500D01*
X211354000Y-58603500D01*
X211354000Y-58603500D01*
G37*
G36*
X194354000Y-58603500D02*
X192252000Y-58603500D01*
X192252000Y-57601500D01*
X194354000Y-57601500D01*
X194354000Y-58603500D01*
X194354000Y-58603500D01*
G37*
G36*
X183808466Y-56403565D02*
X183847137Y-56415296D01*
X183882779Y-56434348D01*
X183914017Y-56459983D01*
X183939652Y-56491221D01*
X183958704Y-56526863D01*
X183970435Y-56565534D01*
X183975000Y-56611888D01*
X183975000Y-57688112D01*
X183970435Y-57734466D01*
X183958704Y-57773137D01*
X183939652Y-57808779D01*
X183914017Y-57840017D01*
X183882779Y-57865652D01*
X183847137Y-57884704D01*
X183808466Y-57896435D01*
X183762112Y-57901000D01*
X183110888Y-57901000D01*
X183064534Y-57896435D01*
X183025863Y-57884704D01*
X182990221Y-57865652D01*
X182958983Y-57840017D01*
X182933348Y-57808779D01*
X182914296Y-57773137D01*
X182902565Y-57734466D01*
X182898000Y-57688112D01*
X182898000Y-56611888D01*
X182902565Y-56565534D01*
X182914296Y-56526863D01*
X182933348Y-56491221D01*
X182958983Y-56459983D01*
X182990221Y-56434348D01*
X183025863Y-56415296D01*
X183064534Y-56403565D01*
X183110888Y-56399000D01*
X183762112Y-56399000D01*
X183808466Y-56403565D01*
X183808466Y-56403565D01*
G37*
G36*
X181933466Y-56403565D02*
X181972137Y-56415296D01*
X182007779Y-56434348D01*
X182039017Y-56459983D01*
X182064652Y-56491221D01*
X182083704Y-56526863D01*
X182095435Y-56565534D01*
X182100000Y-56611888D01*
X182100000Y-57688112D01*
X182095435Y-57734466D01*
X182083704Y-57773137D01*
X182064652Y-57808779D01*
X182039017Y-57840017D01*
X182007779Y-57865652D01*
X181972137Y-57884704D01*
X181933466Y-57896435D01*
X181887112Y-57901000D01*
X181235888Y-57901000D01*
X181189534Y-57896435D01*
X181150863Y-57884704D01*
X181115221Y-57865652D01*
X181083983Y-57840017D01*
X181058348Y-57808779D01*
X181039296Y-57773137D01*
X181027565Y-57734466D01*
X181023000Y-57688112D01*
X181023000Y-56611888D01*
X181027565Y-56565534D01*
X181039296Y-56526863D01*
X181058348Y-56491221D01*
X181083983Y-56459983D01*
X181115221Y-56434348D01*
X181150863Y-56415296D01*
X181189534Y-56403565D01*
X181235888Y-56399000D01*
X181887112Y-56399000D01*
X181933466Y-56403565D01*
X181933466Y-56403565D01*
G37*
G36*
X222434546Y-51356934D02*
X222753782Y-51420434D01*
X223345426Y-51665501D01*
X223745573Y-51932871D01*
X223877895Y-52021286D01*
X224330714Y-52474105D01*
X224330716Y-52474108D01*
X224686499Y-53006574D01*
X224931566Y-53598218D01*
X224931566Y-53598219D01*
X225056500Y-54226303D01*
X225056500Y-54866697D01*
X224994033Y-55180739D01*
X224931566Y-55494782D01*
X224686499Y-56086426D01*
X224438765Y-56457185D01*
X224330714Y-56618895D01*
X223877895Y-57071714D01*
X223877892Y-57071716D01*
X223345426Y-57427499D01*
X222753782Y-57672566D01*
X222440971Y-57734788D01*
X222125697Y-57797500D01*
X221485303Y-57797500D01*
X221170029Y-57734788D01*
X220857218Y-57672566D01*
X220265574Y-57427499D01*
X219733108Y-57071716D01*
X219733105Y-57071714D01*
X219280286Y-56618895D01*
X219172235Y-56457185D01*
X218924501Y-56086426D01*
X218679434Y-55494782D01*
X218616967Y-55180739D01*
X218554500Y-54866697D01*
X218554500Y-54226303D01*
X218679434Y-53598219D01*
X218679434Y-53598218D01*
X218924501Y-53006574D01*
X219280284Y-52474108D01*
X219280286Y-52474105D01*
X219733105Y-52021286D01*
X219865427Y-51932871D01*
X220265574Y-51665501D01*
X220857218Y-51420434D01*
X221176454Y-51356934D01*
X221485303Y-51295500D01*
X222125697Y-51295500D01*
X222434546Y-51356934D01*
X222434546Y-51356934D01*
G37*
G36*
X177608739Y-51294467D02*
X177922782Y-51356934D01*
X178514426Y-51602001D01*
X178914573Y-51869371D01*
X179046895Y-51957786D01*
X179499714Y-52410605D01*
X179499716Y-52410608D01*
X179855499Y-52943074D01*
X180100566Y-53534718D01*
X180100566Y-53534719D01*
X180225500Y-54162803D01*
X180225500Y-54803197D01*
X180197061Y-54946171D01*
X180100566Y-55431282D01*
X179855499Y-56022926D01*
X179516435Y-56530370D01*
X179499714Y-56555395D01*
X179046895Y-57008214D01*
X179046892Y-57008216D01*
X178514426Y-57363999D01*
X177922782Y-57609066D01*
X177608739Y-57671533D01*
X177294697Y-57734000D01*
X176654303Y-57734000D01*
X176340261Y-57671533D01*
X176026218Y-57609066D01*
X175434574Y-57363999D01*
X174902108Y-57008216D01*
X174902105Y-57008214D01*
X174449286Y-56555395D01*
X174432565Y-56530370D01*
X174093501Y-56022926D01*
X173848434Y-55431282D01*
X173751939Y-54946171D01*
X173723500Y-54803197D01*
X173723500Y-54162803D01*
X173848434Y-53534719D01*
X173848434Y-53534718D01*
X174093501Y-52943074D01*
X174449284Y-52410608D01*
X174449286Y-52410605D01*
X174902105Y-51957786D01*
X175034427Y-51869371D01*
X175434574Y-51602001D01*
X176026218Y-51356934D01*
X176340261Y-51294467D01*
X176654303Y-51232000D01*
X177294697Y-51232000D01*
X177608739Y-51294467D01*
X177608739Y-51294467D01*
G37*
M02*
